<svg id="Layer_1" data-name="Layer 1" xmlns="http://www.w3.org/2000/svg" viewBox="0 0 271.89 287.04">
  <g opacity="0.81">
    <g>
      <g>
        <polygon points="121.91 212.59 71.2 208.37 106.8 182.18 157.51 186.4 121.91 212.59" fill="#b5ce9c" stroke="#fff" stroke-miterlimit="10"/>
        <polygon points="172.62 216.81 121.91 212.59 157.51 186.4 208.22 190.62 172.62 216.81" fill="#c6e1aa" stroke="#fff" stroke-miterlimit="10"/>
        <polygon points="223.33 221.03 172.62 216.81 208.22 190.62 258.93 194.84 223.33 221.03" fill="#cee0bb" stroke="#fff" stroke-miterlimit="10"/>
        <polygon points="187.73 247.23 137.02 243.01 172.62 216.81 223.33 221.03 187.73 247.23" fill="#f5d0df" stroke="#fff" stroke-miterlimit="10"/>
        <polygon points="137.02 243.01 86.31 238.79 121.91 212.59 172.62 216.81 137.02 243.01" fill="#f5bbd4" stroke="#fff" stroke-miterlimit="10"/>
        <polygon points="86.31 238.79 35.6 234.57 71.2 208.37 121.91 212.59 86.31 238.79" fill="#dda9c0" stroke="#fff" stroke-miterlimit="10"/>
        <polygon points="50.71 264.98 0 260.76 35.6 234.57 86.31 238.79 50.71 264.98" fill="#ebbf82" stroke="#fff" stroke-miterlimit="10"/>
        <polygon points="101.42 269.2 50.71 264.98 86.31 238.79 137.02 243.01 101.42 269.2" fill="#f6c98a" stroke="#fff" stroke-miterlimit="10"/>
        <polygon points="152.13 273.42 101.42 269.2 137.02 243.01 187.73 247.23 152.13 273.42" fill="#f6dcb8" stroke="#fff" stroke-miterlimit="10"/>
      </g>
      <g opacity="0.83">
        <polygon points="123.42 178.59 72.71 174.37 108.31 148.17 159.02 152.39 123.42 178.59" fill="#b5ce9c" stroke="#fff" stroke-miterlimit="10"/>
        <polygon points="174.13 182.81 123.42 178.59 159.02 152.39 209.73 156.61 174.13 182.81" fill="#c6e1aa" stroke="#fff" stroke-miterlimit="10"/>
        <polygon points="224.84 187.03 174.13 182.81 209.73 156.61 260.44 160.83 224.84 187.03" fill="#cee0bb" stroke="#fff" stroke-miterlimit="10"/>
        <polygon points="189.24 213.22 138.53 209 174.13 182.81 224.84 187.03 189.24 213.22" fill="#f5d0df" stroke="#fff" stroke-miterlimit="10"/>
        <polygon points="138.53 209 87.82 204.78 123.42 178.59 174.13 182.81 138.53 209" fill="#f5bbd4" stroke="#fff" stroke-miterlimit="10"/>
        <polygon points="87.82 204.78 37.11 200.56 72.71 174.37 123.42 178.59 87.82 204.78" fill="#dda9c0" stroke="#fff" stroke-miterlimit="10"/>
        <polygon points="52.22 230.98 1.51 226.76 37.11 200.56 87.82 204.78 52.22 230.98" fill="#ebbf82" stroke="#fff" stroke-miterlimit="10"/>
        <polygon points="102.93 235.2 52.22 230.98 87.82 204.78 138.53 209 102.93 235.2" fill="#f6c98a" stroke="#fff" stroke-miterlimit="10"/>
        <polygon points="153.64 239.42 102.93 235.2 138.53 209 189.24 213.22 153.64 239.42" fill="#f6dcb8" stroke="#fff" stroke-miterlimit="10"/>
      </g>
      <g opacity="0.66">
        <polygon points="124.93 144.58 74.22 140.36 109.82 114.17 160.53 118.39 124.93 144.58" fill="#b5ce9c" stroke="#fff" stroke-miterlimit="10"/>
        <polygon points="175.64 148.8 124.93 144.58 160.53 118.39 211.24 122.61 175.64 148.8" fill="#c6e1aa" stroke="#fff" stroke-miterlimit="10"/>
        <polygon points="226.35 153.02 175.64 148.8 211.24 122.61 261.95 126.83 226.35 153.02" fill="#cee0bb" stroke="#fff" stroke-miterlimit="10"/>
        <polygon points="190.75 179.22 140.04 175 175.64 148.8 226.35 153.02 190.75 179.22" fill="#f5d0df" stroke="#fff" stroke-miterlimit="10"/>
        <polygon points="140.04 175 89.33 170.78 124.93 144.58 175.64 148.8 140.04 175" fill="#f5bbd4" stroke="#fff" stroke-miterlimit="10"/>
        <polygon points="89.33 170.78 38.62 166.56 74.22 140.36 124.93 144.58 89.33 170.78" fill="#dda9c0" stroke="#fff" stroke-miterlimit="10"/>
        <polygon points="53.73 196.97 3.02 192.75 38.62 166.56 89.33 170.78 53.73 196.97" fill="#ebbf82" stroke="#fff" stroke-miterlimit="10"/>
        <polygon points="104.44 201.19 53.73 196.97 89.33 170.78 140.04 175 104.44 201.19" fill="#f6c98a" stroke="#fff" stroke-miterlimit="10"/>
        <polygon points="155.15 205.41 104.44 201.19 140.04 175 190.75 179.22 155.15 205.41" fill="#f6dcb8" stroke="#fff" stroke-miterlimit="10"/>
      </g>
      <g opacity="0.49">
        <polygon points="126.44 110.58 75.73 106.36 111.33 80.16 162.04 84.38 126.44 110.58" fill="#b5ce9c" stroke="#fff" stroke-miterlimit="10"/>
        <polygon points="177.15 114.8 126.44 110.58 162.04 84.38 212.75 88.6 177.15 114.8" fill="#c6e1aa" stroke="#fff" stroke-miterlimit="10"/>
        <polygon points="227.86 119.02 177.15 114.8 212.75 88.6 263.46 92.82 227.86 119.02" fill="#cee0bb" stroke="#fff" stroke-miterlimit="10"/>
        <polygon points="192.26 145.22 141.55 140.99 177.15 114.8 227.86 119.02 192.26 145.22" fill="#f5d0df" stroke="#fff" stroke-miterlimit="10"/>
        <polygon points="141.55 140.99 90.84 136.77 126.44 110.58 177.15 114.8 141.55 140.99" fill="#f5bbd4" stroke="#fff" stroke-miterlimit="10"/>
        <polygon points="90.84 136.77 40.13 132.55 75.73 106.36 126.44 110.58 90.84 136.77" fill="#dda9c0" stroke="#fff" stroke-miterlimit="10"/>
        <polygon points="55.24 162.97 4.53 158.75 40.13 132.55 90.84 136.77 55.24 162.97" fill="#ebbf82" stroke="#fff" stroke-miterlimit="10"/>
        <polygon points="105.95 167.19 55.24 162.97 90.84 136.77 141.55 140.99 105.95 167.19" fill="#f6c98a" stroke="#fff" stroke-miterlimit="10"/>
        <polygon points="156.67 171.41 105.95 167.19 141.55 140.99 192.26 145.22 156.67 171.41" fill="#f6dcb8" stroke="#fff" stroke-miterlimit="10"/>
      </g>
      <g opacity="0.32">
        <polygon points="127.95 76.57 77.24 72.35 112.84 46.16 163.55 50.38 127.95 76.57" fill="#b5ce9c" stroke="#fff" stroke-miterlimit="10"/>
        <polygon points="178.66 80.79 127.95 76.57 163.55 50.38 214.26 54.6 178.66 80.79" fill="#c6e1aa" stroke="#fff" stroke-miterlimit="10"/>
        <polygon points="229.37 85.02 178.66 80.79 214.26 54.6 264.97 58.82 229.37 85.02" fill="#cee0bb" stroke="#fff" stroke-miterlimit="10"/>
        <polygon points="193.78 111.21 143.06 106.99 178.66 80.79 229.37 85.02 193.78 111.21" fill="#f5d0df" stroke="#fff" stroke-miterlimit="10"/>
        <polygon points="143.06 106.99 92.35 102.77 127.95 76.57 178.66 80.79 143.06 106.99" fill="#f5bbd4" stroke="#fff" stroke-miterlimit="10"/>
        <polygon points="92.35 102.77 41.64 98.55 77.24 72.35 127.95 76.57 92.35 102.77" fill="#dda9c0" stroke="#fff" stroke-miterlimit="10"/>
        <polygon points="56.76 128.96 6.04 124.74 41.64 98.55 92.35 102.77 56.76 128.96" fill="#ebbf82" stroke="#fff" stroke-miterlimit="10"/>
        <polygon points="107.47 133.19 56.76 128.96 92.35 102.77 143.06 106.99 107.47 133.19" fill="#f6c98a" stroke="#fff" stroke-miterlimit="10"/>
        <polygon points="158.18 137.41 107.47 133.19 143.06 106.99 193.78 111.21 158.18 137.41" fill="#f6dcb8" stroke="#fff" stroke-miterlimit="10"/>
      </g>
      <g opacity="0.15">
        <polygon points="129.46 42.57 78.75 38.35 114.35 12.15 165.06 16.37 129.46 42.57" fill="#b5ce9c" stroke="#fff" stroke-miterlimit="10"/>
        <polygon points="180.18 46.79 129.46 42.57 165.06 16.37 215.77 20.59 180.18 46.79" fill="#c6e1aa" stroke="#fff" stroke-miterlimit="10"/>
        <polygon points="230.88 51.01 180.18 46.79 215.77 20.59 266.48 24.82 230.88 51.01" fill="#cee0bb" stroke="#fff" stroke-miterlimit="10"/>
        <polygon points="195.29 77.21 144.58 72.98 180.18 46.79 230.88 51.01 195.29 77.21" fill="#f5d0df" stroke="#fff" stroke-miterlimit="10"/>
        <polygon points="144.58 72.98 93.86 68.77 129.46 42.57 180.18 46.79 144.58 72.98" fill="#f5bbd4" stroke="#fff" stroke-miterlimit="10"/>
        <polygon points="93.86 68.77 43.16 64.54 78.75 38.35 129.46 42.57 93.86 68.77" fill="#dda9c0" stroke="#fff" stroke-miterlimit="10"/>
        <polygon points="58.27 94.96 7.56 90.74 43.16 64.54 93.86 68.77 58.27 94.96" fill="#ebbf82" stroke="#fff" stroke-miterlimit="10"/>
        <polygon points="108.98 99.18 58.27 94.96 93.86 68.77 144.58 72.98 108.98 99.18" fill="#f6c98a" stroke="#fff" stroke-miterlimit="10"/>
        <polygon points="159.69 103.4 108.98 99.18 144.58 72.98 195.29 77.21 159.69 103.4" fill="#f6dcb8" stroke="#fff" stroke-miterlimit="10"/>
      </g>
    </g>
  </g>
  <g>
    <path d="M34.39,87.86V85H44.68v2.83H44l0-2.3.24.11H34.82l.25-.11,0,2.3Zm8.27-2.29V75.65l.39.56H37.49l.38-.48c0,.67-.09,1.34-.13,2s-.1,1.35-.14,2a18.58,18.58,0,0,1-.29,2.35,8,8,0,0,1-.53,1.73A6.16,6.16,0,0,1,36,85.17l-.71-.09a5.93,5.93,0,0,0,.81-1.3,8.22,8.22,0,0,0,.54-1.73,16.23,16.23,0,0,0,.31-2.46c.05-.71.1-1.4.14-2.08s.09-1.32.13-1.94h6.16v10Z"/>
    <path d="M47.68,85.67c.22-.42.45-.85.67-1.29L49.06,83l-2.41-4.5-.75-1.4c-.25-.44-.52-1-.83-1.52h.82q.36.71.66,1.26l.55,1c.16.32.33.64.5,1l.54,1,1.26,2.37h.1l1.17-2.32c.2-.38.38-.74.54-1.07s.33-.65.49-1l.53-1,.63-1.24h.78l-1,1.9-.93,1.82-1.64,3.2c-.24.48-.51,1-.8,1.56l-.83,1.62Z"/>
    <path d="M54.65,85.67l.92-1.37c.31-.46.64-1,1-1.47l1.65-2.46v.29l-1.43-2.07c-.34-.47-.68-1-1-1.44l-1.11-1.58h.85c.34.48.67,1,1,1.43s.64.91.93,1.33L58.56,80h.09l1.11-1.64c.3-.43.6-.88.92-1.35s.63-.93,1-1.4h.83l-1,1.5-.9,1.33L59,80.66v-.29l1.59,2.21,1.13,1.55,1.12,1.54H62L61,84.3l-.91-1.25-1.42-2h-.1l-1.33,2-.85,1.26-.91,1.35Z"/>
    <path d="M35.09,119.8h-.26l-.24,0-.2,0,.07-.67.28,0,.26,0a1.16,1.16,0,0,0,1-.54,4.45,4.45,0,0,0,.51-1.69c.1-.77.19-1.75.26-2.94.05-.74.1-1.46.14-2.19s.09-1.45.13-2.19H43.3v10.11h-.71v-10l.45.56H37.31l.43-.5c-.05.73-.09,1.46-.14,2.19s-.09,1.49-.14,2.27q-.1,1.44-.21,2.49a9,9,0,0,1-.35,1.75,2.18,2.18,0,0,1-.67,1A1.84,1.84,0,0,1,35.09,119.8Z"/>
    <path d="M46.26,119.69V109.58H47v8.83H47l2.5-3.48,1.88-2.61,2-2.74H54v10.11h-.7v-8.84h-.08l-2.49,3.47-2.08,2.89-1.78,2.48Z"/>
    <path d="M62.73,119.69v-4.41a6.26,6.26,0,0,1-2.9.66,4.86,4.86,0,0,1-1.9-.33,2.29,2.29,0,0,1-1.17-1,3.14,3.14,0,0,1-.4-1.66v-3.38h.7v3.34a2.7,2.7,0,0,0,.3,1.33,1.81,1.81,0,0,0,.94.79,4.41,4.41,0,0,0,1.63.26,6.2,6.2,0,0,0,1.1-.09A5,5,0,0,0,62,115a5.1,5.1,0,0,0,.78-.35v-5h.7v10.11Z"/>
    <path d="M66.4,119.69V109.58h.71v10.11Zm.37-4.81v-.64h7v.64Zm6.58,4.81V109.58h.71v10.11Z"/>
    <path d="M81.39,119.82a5.52,5.52,0,0,1-2.19-.4,4.33,4.33,0,0,1-1.57-1.14,4.75,4.75,0,0,1-1-1.66,6,6,0,0,1-.32-2A5.74,5.74,0,0,1,77,112a4.63,4.63,0,0,1,1.72-1.87,5.05,5.05,0,0,1,2.69-.69,5.22,5.22,0,0,1,2.11.4A4.51,4.51,0,0,1,85,110.93a4.84,4.84,0,0,1,1,1.66,6.07,6.07,0,0,1,.33,2,5.84,5.84,0,0,1-.6,2.68A4.55,4.55,0,0,1,84,119.14,4.86,4.86,0,0,1,81.39,119.82Zm0-.66a4.61,4.61,0,0,0,1.91-.37,3.6,3.6,0,0,0,1.31-1,4.35,4.35,0,0,0,.77-1.46,5.92,5.92,0,0,0,.24-1.7,5.66,5.66,0,0,0-.26-1.77,4.19,4.19,0,0,0-.8-1.45,3.72,3.72,0,0,0-1.32-1,5.06,5.06,0,0,0-3.75,0,3.65,3.65,0,0,0-1.33,1,4.3,4.3,0,0,0-.79,1.46,5.65,5.65,0,0,0-.26,1.7,6.06,6.06,0,0,0,.25,1.72,4.28,4.28,0,0,0,.78,1.46,3.54,3.54,0,0,0,1.33,1A4.47,4.47,0,0,0,81.36,119.16Z"/>
    <path d="M93,119.82a5.54,5.54,0,0,1-2.13-.39,4.69,4.69,0,0,1-1.6-1.11,4.75,4.75,0,0,1-1-1.66,5.77,5.77,0,0,1-.35-2,5.62,5.62,0,0,1,.63-2.71,4.58,4.58,0,0,1,1.74-1.83,4.84,4.84,0,0,1,2.52-.66,6.41,6.41,0,0,1,1,.07,7.26,7.26,0,0,1,.89.21c.28.08.54.18.77.27s.43.2.6.29L96,111a6.58,6.58,0,0,0-1.08-.51,6,6,0,0,0-1-.29,5.83,5.83,0,0,0-1-.09,4.2,4.2,0,0,0-2.17.56,3.9,3.9,0,0,0-1.48,1.58,5.06,5.06,0,0,0-.54,2.4,5.66,5.66,0,0,0,.28,1.77,4.05,4.05,0,0,0,.83,1.44,3.88,3.88,0,0,0,1.37,1,4.73,4.73,0,0,0,1.9.36,6.3,6.3,0,0,0,.75,0,6.42,6.42,0,0,0,.74-.14,3.79,3.79,0,0,0,.71-.26,4.09,4.09,0,0,0,.67-.38l.09.72a4.48,4.48,0,0,1-.65.35,4.91,4.91,0,0,1-.74.24,7.09,7.09,0,0,1-.78.14A7.32,7.32,0,0,1,93,119.82Z"/>
    <path d="M101,119.69v-10l.3.57h-4v-.66h8.09v.66h-4l.32-.57v10Z"/>
    <path d="M110.21,119.69h-2.83V109.58h.7v9.48h2.06a5,5,0,0,0,1.74-.25,1.84,1.84,0,0,0,1-.79,2.73,2.73,0,0,0,.33-1.43,2.28,2.28,0,0,0-.25-1.18,1.55,1.55,0,0,0-.63-.64,2.37,2.37,0,0,0-.83-.26,6.44,6.44,0,0,0-.86-.06H108v-.63h2.72a4.6,4.6,0,0,1,1.83.31,2.16,2.16,0,0,1,1.07.92,3.1,3.1,0,0,1,.35,1.54,3.57,3.57,0,0,1-.34,1.59,2.37,2.37,0,0,1-1.14,1.11A5.35,5.35,0,0,1,110.21,119.69Z"/>
    <path d="M37.2,153.71c.22-.43.44-.86.67-1.29s.45-.91.71-1.39l-2.41-4.51c-.26-.49-.51-1-.76-1.4l-.82-1.52h.82q.36.71.66,1.26l.55,1c.16.32.33.64.5,1s.35.65.54,1l1.26,2.38H39l1.18-2.33c.2-.38.38-.74.54-1.06l.49-1,.53-1c.18-.36.39-.78.63-1.24h.78l-1,1.91-.93,1.81-1.64,3.2c-.24.48-.51,1-.8,1.56L38,153.71Z"/>
    <path d="M47.89,153.71H45.06V143.6h6v.66H45.38l.38-.58v9.39h2.06a6.11,6.11,0,0,0,1.65-.2,2,2,0,0,0,1.06-.73,2.5,2.5,0,0,0,.37-1.47,2.25,2.25,0,0,0-.27-1.2,1.68,1.68,0,0,0-.69-.61,2.4,2.4,0,0,0-.85-.23,7.32,7.32,0,0,0-.76,0H45.66V148h2.72a4.79,4.79,0,0,1,1.83.3,2.14,2.14,0,0,1,1.07.91,3,3,0,0,1,.35,1.52,3.5,3.5,0,0,1-.33,1.55,2.38,2.38,0,0,1-1.15,1.08A5.37,5.37,0,0,1,47.89,153.71Z"/>
    <path d="M53.77,153.71V143.6h6v.64H54.09l.38-.56v9.93l-.35-.55h5.69v.65Zm.56-4.82v-.63H59.5v.63H54.33Z"/>
    <path d="M61.18,153.71l.94-1,1.08-1.14,1-1.1,2.07-2.17,0,.31-1.85-1.92c-.49-.51-1-1-1.47-1.53l-1.52-1.57h.92l1.41,1.47L65,146.34l1.77,1.84h.87v.62h-.86l-2,2.11-1.29,1.35-1.38,1.45Zm6.35,0V143.6h.7v10.11Zm6.12,0-1.38-1.44L71,151,69,148.8H68.1v-.62H69l1.77-1.84c.41-.43.83-.85,1.23-1.28l1.41-1.46h.92l-1.53,1.57-1.47,1.53-1.87,1.92v-.31l2.09,2.19,1,1.08,1.08,1.14.94,1Z"/>
    <path d="M75.28,155.9v-2.84H85.57v2.84h-.63l0-2.31.24.12H75.72l.24-.12,0,2.31Zm8.28-2.29v-9.93l.38.56H78.39l.38-.48c0,.67-.09,1.34-.14,2s-.09,1.35-.14,2a17,17,0,0,1-.28,2.35,8.44,8.44,0,0,1-.53,1.73,6.16,6.16,0,0,1-.79,1.32l-.71-.09a6.29,6.29,0,0,0,.8-1.3,7.66,7.66,0,0,0,.55-1.73,17.58,17.58,0,0,0,.3-2.46c.06-.71.1-1.4.15-2.07s.09-1.33.13-2h6.16v10Z"/>
    <path d="M87.49,153.71V143.6h6v.64H87.81l.38-.56v9.93l-.36-.55h5.69v.65Zm.56-4.82v-.63h5.17v.63H88.05Z"/>
    <path d="M95.88,153.71V143.6h.71v10.11Zm.37-4.82v-.63h7v.63Zm6.57,4.82V143.6h.71v10.11Z"/>
    <path d="M106.49,153.71V143.6h.7v8.82h.07l2.51-3.48,1.87-2.6,2-2.74h.64v10.11h-.71v-8.84h-.07L111,148.34c-.76,1-1.45,2-2.08,2.88l-1.78,2.49Z"/>
    <path d="M116.23,153.71l.76-.89.88-1,.84-1,1.72-2,.06.35a4.85,4.85,0,0,1-1.64-.24,2.76,2.76,0,0,1-1.06-.64,2.42,2.42,0,0,1-.56-.95,3.77,3.77,0,0,1-.17-1.13,2.93,2.93,0,0,1,.35-1.51,2.08,2.08,0,0,1,1.08-.86,5.3,5.3,0,0,1,1.84-.27h3.23v10.11h-.7v-10l.46.55h-3c-.27,0-.56,0-.86.05a2.39,2.39,0,0,0-.83.23,1.47,1.47,0,0,0-.64.6,2.37,2.37,0,0,0-.24,1.17,2.13,2.13,0,0,0,.75,1.83,3.83,3.83,0,0,0,2.33.56H123v.63h-2.36l.53-.3-1.9,2.22-1,1.21-1.11,1.28Z"/>
    <path d="M40.08,187.86a5.61,5.61,0,0,1-2.13-.4,4.55,4.55,0,0,1-1.6-1.11,4.75,4.75,0,0,1-1-1.66,6,6,0,0,1-.35-2.05,5.62,5.62,0,0,1,.63-2.71,4.79,4.79,0,0,1,1.74-1.83,4.85,4.85,0,0,1,2.53-.66,5.26,5.26,0,0,1,1,.08,6.89,6.89,0,0,1,.89.2l.77.27a5.7,5.7,0,0,1,.6.29l-.08.72a7.46,7.46,0,0,0-1.08-.51,6.11,6.11,0,0,0-1-.29,5.83,5.83,0,0,0-1-.09,4.22,4.22,0,0,0-2.17.56,3.9,3.9,0,0,0-1.48,1.58,5.06,5.06,0,0,0-.53,2.4,5.66,5.66,0,0,0,.27,1.77,4.12,4.12,0,0,0,.83,1.44,4,4,0,0,0,1.38,1,4.84,4.84,0,0,0,1.9.35,6,6,0,0,0,.74-.05,5,5,0,0,0,1.45-.39,4.5,4.5,0,0,0,.67-.39l.09.72a3.36,3.36,0,0,1-.65.35,4.57,4.57,0,0,1-.74.24,6.34,6.34,0,0,1-.78.14A7.34,7.34,0,0,1,40.08,187.86Z"/>
    <path d="M45.38,187.72v-10.1H53v10.1h-.71v-10l.34.56H45.74l.35-.56v10Z"/>
    <path d="M60.33,187.86a5.47,5.47,0,0,1-2.18-.41,4.26,4.26,0,0,1-1.58-1.14,5.08,5.08,0,0,1-1-1.66,6.26,6.26,0,0,1-.32-2,5.77,5.77,0,0,1,.6-2.65,4.66,4.66,0,0,1,1.73-1.87,5,5,0,0,1,2.68-.69,5.16,5.16,0,0,1,2.11.4A4.46,4.46,0,0,1,64,179a5,5,0,0,1,1,1.66,6.09,6.09,0,0,1,.33,2,5.83,5.83,0,0,1-.6,2.67A4.55,4.55,0,0,1,63,187.17,4.9,4.9,0,0,1,60.33,187.86Zm0-.67a4.54,4.54,0,0,0,1.92-.37,3.6,3.6,0,0,0,1.31-1,4.33,4.33,0,0,0,.76-1.46,5.58,5.58,0,0,0,.25-1.69,5.68,5.68,0,0,0-.27-1.78,4,4,0,0,0-.79-1.44,3.61,3.61,0,0,0-1.33-1,4.42,4.42,0,0,0-1.85-.36,4.55,4.55,0,0,0-1.89.37,3.89,3.89,0,0,0-1.34,1,4.38,4.38,0,0,0-.78,1.46,5.66,5.66,0,0,0-.26,1.71,5.77,5.77,0,0,0,.25,1.72,4.39,4.39,0,0,0,.77,1.45,3.52,3.52,0,0,0,1.33,1A4.54,4.54,0,0,0,60.3,187.19Z"/>
    <path d="M72,187.86a5.54,5.54,0,0,1-2.13-.4,4.59,4.59,0,0,1-1.61-1.11,4.9,4.9,0,0,1-1-1.66,6,6,0,0,1-.35-2.05,5.51,5.51,0,0,1,.64-2.71,4.65,4.65,0,0,1,1.74-1.83,4.81,4.81,0,0,1,2.52-.66,5.37,5.37,0,0,1,1,.08,7.74,7.74,0,0,1,.89.2l.77.27c.23.1.43.2.6.29L75,179a7.46,7.46,0,0,0-1.08-.51,6,6,0,0,0-1-.29,5.83,5.83,0,0,0-1-.09,4.2,4.2,0,0,0-2.17.56,3.83,3.83,0,0,0-1.48,1.58,5.06,5.06,0,0,0-.54,2.4,5.38,5.38,0,0,0,.28,1.77,4,4,0,0,0,.83,1.44,3.85,3.85,0,0,0,1.37,1,4.88,4.88,0,0,0,1.9.35,6.3,6.3,0,0,0,.75-.05,4.48,4.48,0,0,0,.73-.14,4.72,4.72,0,0,0,.72-.25,4.4,4.4,0,0,0,.66-.39l.09.72a3.09,3.09,0,0,1-.65.35,4.46,4.46,0,0,1-.73.24,6.86,6.86,0,0,1-.79.14A7,7,0,0,1,72,187.86Z"/>
    <path d="M81.65,187.86a5.52,5.52,0,0,1-2.19-.41,4.3,4.3,0,0,1-1.57-1.14,4.91,4.91,0,0,1-1-1.66,6.26,6.26,0,0,1-.32-2,5.77,5.77,0,0,1,.6-2.65,4.59,4.59,0,0,1,1.73-1.87,5,5,0,0,1,2.68-.69,5.19,5.19,0,0,1,2.11.4A4.42,4.42,0,0,1,85.29,179a4.84,4.84,0,0,1,1,1.66,6.09,6.09,0,0,1,.33,2,5.83,5.83,0,0,1-.6,2.67,4.46,4.46,0,0,1-1.7,1.85A4.9,4.9,0,0,1,81.65,187.86Zm0-.67a4.46,4.46,0,0,0,1.91-.37,3.63,3.63,0,0,0,1.32-1,4.52,4.52,0,0,0,.76-1.46,5.91,5.91,0,0,0,.25-1.69,5.68,5.68,0,0,0-.27-1.78,4.06,4.06,0,0,0-.8-1.44,3.49,3.49,0,0,0-1.32-1,4.46,4.46,0,0,0-1.85-.36,4.63,4.63,0,0,0-1.9.37,3.85,3.85,0,0,0-1.33,1,4.59,4.59,0,0,0-.79,1.46,5.66,5.66,0,0,0-.25,1.71,5.77,5.77,0,0,0,.25,1.72,4.05,4.05,0,0,0,.77,1.45,3.52,3.52,0,0,0,1.33,1A4.54,4.54,0,0,0,81.62,187.19Z"/>
    <path d="M91.72,187.72H88.88v-10.1h6v.65H89.2l.38-.57v9.39h2.06a5.71,5.71,0,0,0,1.65-.21,1.91,1.91,0,0,0,1.06-.73,2.5,2.5,0,0,0,.37-1.47,2.21,2.21,0,0,0-.27-1.19,1.64,1.64,0,0,0-.69-.62,2.82,2.82,0,0,0-.85-.23c-.28,0-.54,0-.75,0H89.48V182H92.2a4.79,4.79,0,0,1,1.83.3,2.2,2.2,0,0,1,1.07.91,3.06,3.06,0,0,1,.35,1.53,3.53,3.53,0,0,1-.33,1.55A2.36,2.36,0,0,1,94,187.33,5.29,5.29,0,0,1,91.72,187.72Z"/>
    <path d="M97.59,187.72v-10.1h.71v10.1Zm.37-4.81v-.64h7v.64Zm6.58,4.81v-10.1h.71v10.1Z"/>
    <path d="M112.57,187.86a5.5,5.5,0,0,1-2.18-.41,4.34,4.34,0,0,1-1.58-1.14,4.89,4.89,0,0,1-1-1.66,6,6,0,0,1-.33-2,5.78,5.78,0,0,1,.61-2.65,4.56,4.56,0,0,1,1.72-1.87,5,5,0,0,1,2.68-.69,5.24,5.24,0,0,1,2.12.4,4.51,4.51,0,0,1,1.56,1.12,4.84,4.84,0,0,1,1,1.66,6.09,6.09,0,0,1,.33,2,5.83,5.83,0,0,1-.6,2.67,4.55,4.55,0,0,1-1.71,1.85A4.9,4.9,0,0,1,112.57,187.86Zm0-.67a4.51,4.51,0,0,0,1.92-.37,3.6,3.6,0,0,0,1.31-1,4.16,4.16,0,0,0,.76-1.46,5.58,5.58,0,0,0,.25-1.69,6,6,0,0,0-.26-1.78,4.22,4.22,0,0,0-.8-1.44,3.53,3.53,0,0,0-1.33-1,4.39,4.39,0,0,0-1.85-.36,4.58,4.58,0,0,0-1.89.37,3.76,3.76,0,0,0-1.33,1,4.23,4.23,0,0,0-.79,1.46,5.66,5.66,0,0,0-.26,1.71,6.11,6.11,0,0,0,.25,1.72,4.24,4.24,0,0,0,.78,1.45,3.48,3.48,0,0,0,1.32,1A4.54,4.54,0,0,0,112.54,187.19Z"/>
    <path d="M124.23,187.86a5.54,5.54,0,0,1-2.13-.4,4.46,4.46,0,0,1-1.6-1.11,4.75,4.75,0,0,1-1-1.66,5.73,5.73,0,0,1-.35-2.05,5.62,5.62,0,0,1,.63-2.71,4.65,4.65,0,0,1,1.74-1.83,4.84,4.84,0,0,1,2.52-.66,5.37,5.37,0,0,1,1,.08,7.74,7.74,0,0,1,.89.2l.77.27c.23.1.43.2.6.29l-.09.72a7.46,7.46,0,0,0-1.08-.51,6,6,0,0,0-1-.29,5.83,5.83,0,0,0-1-.09,4.2,4.2,0,0,0-2.17.56,3.83,3.83,0,0,0-1.48,1.58,5.06,5.06,0,0,0-.54,2.4,5.38,5.38,0,0,0,.28,1.77,3.95,3.95,0,0,0,2.2,2.42,4.88,4.88,0,0,0,1.9.35,6.3,6.3,0,0,0,.75-.05,4.82,4.82,0,0,0,.74-.14,4.61,4.61,0,0,0,.71-.25,4.4,4.4,0,0,0,.66-.39l.1.72a3.45,3.45,0,0,1-.66.35,4.46,4.46,0,0,1-.73.24,6.86,6.86,0,0,1-.79.14A7,7,0,0,1,124.23,187.86Z"/>
    <path d="M132.22,187.72v-10l.3.57h-4v-.65h8.09v.65h-4l.32-.57v10Z"/>
    <path d="M138.57,187.72v-10.1h.7v8.82h.07l2.5-3.48,1.88-2.61,2-2.73h.64v10.1h-.7v-8.84h-.07l-2.5,3.48L141,185.24l-1.78,2.48Z"/>
    <path d="M34.39,223.93v-2.84H44.68v2.84H44l0-2.31.24.12H34.82l.25-.12,0,2.31Zm8.27-2.29v-9.92l.39.56H37.49l.38-.49c0,.67-.09,1.34-.13,2s-.1,1.35-.14,2a19,19,0,0,1-.29,2.36,7.94,7.94,0,0,1-.53,1.72,6.16,6.16,0,0,1-.79,1.32l-.71-.09a5.93,5.93,0,0,0,.81-1.3,8.22,8.22,0,0,0,.54-1.73,16.06,16.06,0,0,0,.31-2.46c.05-.71.1-1.4.14-2.07s.09-1.33.13-2h6.16v10Z"/>
    <path d="M46.59,221.74V211.63h6v.65H46.92l.37-.56v9.92l-.35-.55h5.69v.65Zm.56-4.82v-.63h5.17v.63H47.15Z"/>
    <path d="M55,221.74V211.63h.7v8.82h.07l2.5-3.48,1.88-2.6,2-2.74h.63v10.11H62V212.9H62l-2.49,3.47-2.08,2.89-1.78,2.48Zm3.85-11.34a2.75,2.75,0,0,1-1.35-.29,1.94,1.94,0,0,1-.8-.78,2.18,2.18,0,0,1-.27-1.07l.61,0a1.54,1.54,0,0,0,.47,1.2,1.91,1.91,0,0,0,1.34.43,1.86,1.86,0,0,0,1.34-.43,1.53,1.53,0,0,0,.45-1.18h.61a2.28,2.28,0,0,1-.25,1.07,2,2,0,0,1-.79.78A2.77,2.77,0,0,1,58.83,210.4Z"/>
    <path d="M70.12,221.87a5.36,5.36,0,0,1-2.13-.4,4.57,4.57,0,0,1-1.61-1.1,5,5,0,0,1-1-1.66,6,6,0,0,1-.35-2.05,5.58,5.58,0,0,1,.64-2.72,4.65,4.65,0,0,1,1.74-1.83,4.79,4.79,0,0,1,2.52-.66,6.17,6.17,0,0,1,1,.08,5.93,5.93,0,0,1,.9.21,6.91,6.91,0,0,1,.77.27,4.65,4.65,0,0,1,.59.29l-.08.72a7.46,7.46,0,0,0-1.08-.51,6,6,0,0,0-1-.29,5.92,5.92,0,0,0-1-.09,4.1,4.1,0,0,0-2.17.56,3.85,3.85,0,0,0-1.49,1.58,5.18,5.18,0,0,0-.53,2.4,5.28,5.28,0,0,0,.28,1.76,4.23,4.23,0,0,0,.82,1.45,4,4,0,0,0,1.38,1,4.7,4.7,0,0,0,1.9.35,5.49,5.49,0,0,0,1.48-.18,4.77,4.77,0,0,0,.72-.26,3.64,3.64,0,0,0,.66-.38l.09.72a3.63,3.63,0,0,1-.65.35,4.27,4.27,0,0,1-.74.24,6.34,6.34,0,0,1-.78.13A5.37,5.37,0,0,1,70.12,221.87Z"/>
    <path d="M78.1,221.74v-10l.31.56h-4v-.65h8.1v.65h-4l.32-.56v10Z"/>
    <path d="M87.39,221.74H84.45V211.63H88a5.57,5.57,0,0,1,1.38.16,2.58,2.58,0,0,1,1,.48,1.93,1.93,0,0,1,.57.76,2.91,2.91,0,0,1-.05,2.14,2.25,2.25,0,0,1-.62.81,2.77,2.77,0,0,1-.89.5v.1a2.89,2.89,0,0,1,.94.34,2.21,2.21,0,0,1,.78.77,2.48,2.48,0,0,1,.3,1.3,2.9,2.9,0,0,1-.19,1.07,2.23,2.23,0,0,1-.66.88,3.18,3.18,0,0,1-1.21.58A6.69,6.69,0,0,1,87.39,221.74Zm-2.24-.63h2.27a5.33,5.33,0,0,0,1.87-.27A1.82,1.82,0,0,0,90.6,219a1.69,1.69,0,0,0-.77-1.59,4.22,4.22,0,0,0-2.16-.47H85v-.61h2.71a3.22,3.22,0,0,0,1.5-.3,2,2,0,0,0,.84-.81,2.24,2.24,0,0,0,.26-1.05,1.62,1.62,0,0,0-.61-1.43,3,3,0,0,0-1.78-.44H85.15v8.85Z"/>
    <path d="M93.48,221.74V211.63h.7v8.82h.07L96.76,217l1.87-2.6,2-2.74h.63v10.11h-.7V212.9h-.07L98,216.37l-2.08,2.89-1.78,2.48Z"/>
    <path d="M103.22,221.74l.76-.89.88-1,.84-1,1.72-2,.06.35a4.85,4.85,0,0,1-1.64-.24,2.68,2.68,0,0,1-1.06-.64,2.35,2.35,0,0,1-.56-.95,3.47,3.47,0,0,1-.17-1.13,3,3,0,0,1,.35-1.51,2.13,2.13,0,0,1,1.08-.86,5.27,5.27,0,0,1,1.83-.27h3.24v10.11h-.7v-10l.46.54h-3c-.27,0-.56,0-.86.05a2.56,2.56,0,0,0-.83.23,1.42,1.42,0,0,0-.64.6,2.37,2.37,0,0,0-.24,1.17,2.16,2.16,0,0,0,.75,1.84,3.9,3.9,0,0,0,2.33.55H110v.63H107.6l.54-.3-1.9,2.22-1,1.21-1.11,1.28Z"/>
    <path d="M40,255.89a5.43,5.43,0,0,1-2.18-.41,4.35,4.35,0,0,1-1.58-1.13,5.13,5.13,0,0,1-1-1.67,6.24,6.24,0,0,1-.32-2,5.78,5.78,0,0,1,.6-2.66,4.59,4.59,0,0,1,1.73-1.87,5,5,0,0,1,2.68-.69,5.19,5.19,0,0,1,2.11.4A4.46,4.46,0,0,1,43.67,247a4.69,4.69,0,0,1,1,1.66,6.13,6.13,0,0,1,.33,2,5.92,5.92,0,0,1-.59,2.67,4.65,4.65,0,0,1-1.71,1.86A5,5,0,0,1,40,255.89Zm0-.67a4.46,4.46,0,0,0,1.91-.37,3.55,3.55,0,0,0,1.32-1,4.47,4.47,0,0,0,.76-1.45,6,6,0,0,0,.25-1.7A5.72,5.72,0,0,0,44,248.9a4.06,4.06,0,0,0-.8-1.44,3.49,3.49,0,0,0-1.32-1,4.46,4.46,0,0,0-1.85-.35,4.63,4.63,0,0,0-1.9.36,3.85,3.85,0,0,0-1.33,1A4.38,4.38,0,0,0,36,249a5.37,5.37,0,0,0-.26,1.71A5.77,5.77,0,0,0,36,252.4a4.21,4.21,0,0,0,.77,1.45,3.65,3.65,0,0,0,1.33,1A4.7,4.7,0,0,0,40,255.22Z"/>
    <path d="M50.1,255.75H47.26v-10.1h6v.66H47.58l.38-.58v9.39H50a5.71,5.71,0,0,0,1.65-.21,1.87,1.87,0,0,0,1.06-.73,2.48,2.48,0,0,0,.37-1.47,2.21,2.21,0,0,0-.27-1.19,1.64,1.64,0,0,0-.69-.62,2.84,2.84,0,0,0-.84-.23l-.76,0H47.87V250h2.71a4.78,4.78,0,0,1,1.83.31,2.13,2.13,0,0,1,1.07.9,3,3,0,0,1,.35,1.53,3.53,3.53,0,0,1-.33,1.55,2.36,2.36,0,0,1-1.15,1.07A5.29,5.29,0,0,1,50.1,255.75Z"/>
    <path d="M60.39,255.89a5.61,5.61,0,0,1-2.13-.4,4.43,4.43,0,0,1-1.6-1.11,4.75,4.75,0,0,1-1-1.66,6,6,0,0,1-.35-2.05,5.65,5.65,0,0,1,.63-2.71,4.79,4.79,0,0,1,1.74-1.83,4.85,4.85,0,0,1,2.53-.66,6.27,6.27,0,0,1,1,.08,6.89,6.89,0,0,1,.89.2c.28.09.54.18.77.28a4.3,4.3,0,0,1,.6.28l-.08.73a6.62,6.62,0,0,0-1.08-.52,7.18,7.18,0,0,0-1.05-.29,5.75,5.75,0,0,0-1-.09,4.22,4.22,0,0,0-2.17.56,4,4,0,0,0-1.48,1.58,5.07,5.07,0,0,0-.53,2.41,5.64,5.64,0,0,0,.27,1.76,4.12,4.12,0,0,0,.83,1.44,3.85,3.85,0,0,0,1.38,1,4.84,4.84,0,0,0,1.9.35,4.53,4.53,0,0,0,.74-.05,5,5,0,0,0,1.45-.39,4.5,4.5,0,0,0,.67-.39l.09.72a3.36,3.36,0,0,1-.65.35,4.57,4.57,0,0,1-.74.24,6.34,6.34,0,0,1-.78.14A7.34,7.34,0,0,1,60.39,255.89Z"/>
    <path d="M68.38,255.75v-10l.31.57h-4v-.65h8.09v.65h-4l.32-.57v10Z"/>
    <path d="M78.56,255.89a5.5,5.5,0,0,1-2.18-.41,4.31,4.31,0,0,1-1.57-1.13,4.8,4.8,0,0,1-1-1.67,6,6,0,0,1-.32-2,5.78,5.78,0,0,1,.6-2.66,4.63,4.63,0,0,1,1.72-1.87,5.05,5.05,0,0,1,2.69-.69,5.22,5.22,0,0,1,2.11.4A4.65,4.65,0,0,1,82.21,247a4.84,4.84,0,0,1,1,1.66,6.13,6.13,0,0,1,.33,2,5.8,5.8,0,0,1-.6,2.67,4.65,4.65,0,0,1-1.71,1.86A5,5,0,0,1,78.56,255.89Zm0-.67a4.46,4.46,0,0,0,1.91-.37,3.6,3.6,0,0,0,1.31-1,4.31,4.31,0,0,0,.77-1.45,6,6,0,0,0,.24-1.7,5.72,5.72,0,0,0-.26-1.78,4.06,4.06,0,0,0-.8-1.44,3.57,3.57,0,0,0-1.32-1,4.46,4.46,0,0,0-1.85-.35,4.63,4.63,0,0,0-1.9.36,3.76,3.76,0,0,0-1.33,1,4.4,4.4,0,0,0-.79,1.46,5.66,5.66,0,0,0-.26,1.71,6.11,6.11,0,0,0,.25,1.72,4.24,4.24,0,0,0,.78,1.45,3.57,3.57,0,0,0,1.33,1A4.63,4.63,0,0,0,78.54,255.22Z"/>
    <path d="M84.61,255.75l.76-.88.88-1,.84-1,1.72-2,.06.34a4.87,4.87,0,0,1-1.64-.23,2.77,2.77,0,0,1-1.06-.65,2.31,2.31,0,0,1-.56-.94,3.81,3.81,0,0,1-.17-1.13,2.93,2.93,0,0,1,.35-1.51,2.08,2.08,0,0,1,1.08-.86,5.3,5.3,0,0,1,1.84-.27h3.23v10.1h-.7v-10l.46.55h-3c-.27,0-.56,0-.86,0a2.63,2.63,0,0,0-.83.23,1.56,1.56,0,0,0-.64.61,2.32,2.32,0,0,0-.24,1.17,2.13,2.13,0,0,0,.75,1.83,3.9,3.9,0,0,0,2.33.56h2.11v.62H89l.53-.29-1.9,2.21-1,1.21c-.35.42-.72.84-1.11,1.28Z"/>
    <path d="M97.61,255.75v-10l.3.57h-4v-.65H102v.65H98l.31-.57v10Z"/>
    <path d="M104,255.75v-10.1h6v.64h-5.72l.38-.56v9.92l-.36-.54H110v.64Zm.56-4.82v-.63h5.17v.63h-5.17Z"/>
    <path d="M111.77,255.86h-.26l-.24,0-.2,0,.07-.67a1.6,1.6,0,0,0,.29,0,1.1,1.1,0,0,0,.25,0,1.15,1.15,0,0,0,1-.54,4.39,4.39,0,0,0,.51-1.69q.16-1.16.27-2.94c0-.73.09-1.46.13-2.18s.09-1.46.14-2.19H120v10.1h-.71v-10l.44.56H114l.43-.49c0,.72-.09,1.45-.13,2.18s-.09,1.49-.15,2.27c-.06,1-.13,1.79-.21,2.5a9,9,0,0,1-.35,1.74,2.13,2.13,0,0,1-.67,1A1.78,1.78,0,0,1,111.77,255.86Z"/>
    <path d="M125.78,255.75H123v-10.1h.7v9.47h2a5.31,5.31,0,0,0,1.75-.24,1.93,1.93,0,0,0,1-.79,2.79,2.79,0,0,0,.33-1.44,2.41,2.41,0,0,0-.25-1.18,1.55,1.55,0,0,0-.63-.64,2.6,2.6,0,0,0-.83-.26,6.38,6.38,0,0,0-.86,0h-2.67v-.64h2.71a4.8,4.8,0,0,1,1.84.31,2.16,2.16,0,0,1,1.07.92,3.1,3.1,0,0,1,.35,1.54,3.57,3.57,0,0,1-.34,1.59,2.37,2.37,0,0,1-1.14,1.11A5.2,5.2,0,0,1,125.78,255.75Z"/>
    <path d="M136.08,255.89a5.54,5.54,0,0,1-2.13-.4,4.46,4.46,0,0,1-1.61-1.11,4.9,4.9,0,0,1-1-1.66,6,6,0,0,1-.35-2.05,5.54,5.54,0,0,1,.64-2.71,4.65,4.65,0,0,1,1.74-1.83,4.79,4.79,0,0,1,2.52-.66,6.4,6.4,0,0,1,1,.08,7.74,7.74,0,0,1,.89.2c.28.09.53.18.77.28a5.74,5.74,0,0,1,.6.28L139,247a6.62,6.62,0,0,0-1.08-.52,7.06,7.06,0,0,0-1-.29,5.83,5.83,0,0,0-1-.09,4.2,4.2,0,0,0-2.17.56,3.89,3.89,0,0,0-1.48,1.58,5.07,5.07,0,0,0-.54,2.41,5.37,5.37,0,0,0,.28,1.76,4,4,0,0,0,.83,1.44,3.73,3.73,0,0,0,1.37,1,4.88,4.88,0,0,0,1.9.35,4.73,4.73,0,0,0,.75-.05,4.48,4.48,0,0,0,.73-.14,4.72,4.72,0,0,0,.72-.25,4.4,4.4,0,0,0,.66-.39l.09.72a3.09,3.09,0,0,1-.65.35,4.46,4.46,0,0,1-.73.24,6.86,6.86,0,0,1-.79.14A7,7,0,0,1,136.08,255.89Z"/>
    <path d="M144.06,255.75v-10l.31.57h-4v-.65h8.09v.65h-4l.32-.57v10Z"/>
    <path d="M153.35,255.75h-2.94v-10.1h3.53a5.05,5.05,0,0,1,1.37.16,2.73,2.73,0,0,1,.95.47,1.93,1.93,0,0,1,.57.76,2.73,2.73,0,0,1,.18,1,2.68,2.68,0,0,1-.22,1.13,2.5,2.5,0,0,1-.62.81,3,3,0,0,1-.89.49v.1a3.27,3.27,0,0,1,.94.35,2.23,2.23,0,0,1,.77.76,2.53,2.53,0,0,1,.31,1.3,3,3,0,0,1-.2,1.08,2.26,2.26,0,0,1-.65.87,3.31,3.31,0,0,1-1.22.59A7.12,7.12,0,0,1,153.35,255.75Zm-2.23-.63h2.26a5.6,5.6,0,0,0,1.87-.26,2,2,0,0,0,1-.75,2.11,2.11,0,0,0,.31-1.14,1.69,1.69,0,0,0-.78-1.58,4.12,4.12,0,0,0-2.16-.47H151v-.61h2.71a3.1,3.1,0,0,0,1.5-.31,1.87,1.87,0,0,0,.84-.8,2.28,2.28,0,0,0,.26-1.06,1.63,1.63,0,0,0-.61-1.43,3,3,0,0,0-1.78-.43h-2.77v8.84Z"/>
    <path d="M158.43,255.75l.65-1.72c.23-.59.45-1.16.65-1.71l1.32-3.46c.24-.62.45-1.18.64-1.69s.39-1,.58-1.52h1c.19.51.39,1,.58,1.52s.4,1.07.63,1.69l1.31,3.48c.2.56.42,1.13.64,1.72l.63,1.69h-.74c-.23-.62-.46-1.25-.71-1.91s-.47-1.28-.69-1.87l-2.09-5.61h-.1l-2.09,5.57c-.24.6-.47,1.24-.72,1.9l-.72,1.92ZM160,253l0-.61h5.45l0,.61Z"/>
  </g>
</svg>
