<svg xmlns="http://www.w3.org/2000/svg" xmlns:xlink="http://www.w3.org/1999/xlink" viewBox="0 0 457.07 457.07">
  <defs>
    <filter id="luminosity-invert-noclip" x="12.06" y="12.06" width="432.96" height="432.96" filterUnits="userSpaceOnUse" color-interpolation-filters="sRGB">
      <feColorMatrix values="-1 0 0 0 1 0 -1 0 0 1 0 0 -1 0 1 0 0 0 1 0" result="invert"/>
      <feFlood flood-color="#fff" result="bg"/>
      <feBlend in="invert" in2="bg"/>
    </filter>
    <mask id="mask" x="12.06" y="12.06" width="432.96" height="432.96" maskUnits="userSpaceOnUse">
      <circle cx="228.53" cy="228.53" r="108.47" fill="#fff" filter="url(#luminosity-invert-noclip)"/>
    </mask>
  </defs>
  <g style="isolation: isolate">
    <g id="circle">
      <g>
        <g mask="url(#mask)">
          <g>
            <path d="M336.77,416A215.33,215.33,0,0,0,416,336.76L228.53,228.53Z" fill="#b8dca9"/>
            <path d="M416,336.76a215.36,215.36,0,0,0,29-108.23H228.53Z" fill="#d1e29a"/>
            <path d="M228.53,228.53H445a217.52,217.52,0,0,0-29-108.24Z" fill="#efee8d"/>
            <path d="M228.53,228.53,416,120.29a215.47,215.47,0,0,0-79.25-79.21Z" fill="#fcc88e"/>
            <path d="M228.53,228.53,336.76,41.08a215.45,215.45,0,0,0-108.23-29Z" fill="#f8aead"/>
            <path d="M228.53,228.53,41.06,336.77A215.33,215.33,0,0,0,120.31,416Z" fill="#98c8eb"/>
            <path d="M12.06,228.53a217.36,217.36,0,0,0,29,108.24L228.53,228.53Z" fill="#abaad5"/>
            <path d="M336.77,416,228.53,228.53V445A217.46,217.46,0,0,0,336.77,416Z" fill="#a6d7c0"/>
            <path d="M228.53,228.53,120.31,416a215.35,215.35,0,0,0,108.22,29Z" fill="#7bcfd8"/>
            <path d="M228.53,12.06a217.42,217.42,0,0,0-108.24,29L228.53,228.53Z" fill="#f2a5c6"/>
            <path d="M228.53,228.53,41.08,120.31a215.44,215.44,0,0,0-29,108.22Z" fill="#c3a8d0"/>
            <path d="M228.53,228.53,120.29,41.06a215.47,215.47,0,0,0-79.21,79.25Z" fill="#e0abcf"/>
          </g>
        </g>
        <g id="text">
          <g>
            <path d="M26.3,245.71l1.42.33,1.4.34,2.87.68,1.39.34,1.25.3.18,1.71c-.4.2-.8.38-1.18.56l-1.29.6-2.67,1.23-1.32.62-1.3.6-.14-1.37,1.36-.6,1.31-.58,4-1.75v-.11l-4.21-.93-1.44-.31-1.46-.32Zm2.07,1.46,1,0,.4,3.9-1,.21Z" fill="#2f292a"/>
            <path d="M27.09,254.16a1.53,1.53,0,0,1,0-.3,2.62,2.62,0,0,1,0-.27c0-.08,0-.16,0-.23l1.14-.09a1.77,1.77,0,0,0,0,.22.9.9,0,0,0,0,.18.81.81,0,0,0,.49.67,3.14,3.14,0,0,0,1.26.2,19.5,19.5,0,0,0,2.12-.1l1.64-.14,1.65-.14.77,5.42-1.29.19-1.38.19-2.7.39-1.36.2-1.27.18L28,259.41l1.28-.18,1.35-.2,2.5-.36,1.38-.19,1.29-.19-.82.8-.61-4.26,1,.6-1.72.13-1.79.14c-.74.05-1.39.09-1.94.1a5.84,5.84,0,0,1-1.41-.11,1.72,1.72,0,0,1-.9-.49A1.88,1.88,0,0,1,27.09,254.16Z" fill="#2f292a"/>
            <path d="M29,265.45c-.1-.56-.19-1.07-.28-1.52s-.16-.88-.23-1.29l1.26-.23,1.35-.25,2.68-.49,1.38-.25,1.28-.24.24,1.29-1.29.24L34,263l-2.47.46-.9.16-.86.16L30,265a2.78,2.78,0,0,0,.34,1,1.09,1.09,0,0,0,.59.5,1.76,1.76,0,0,0,.9,0,1.59,1.59,0,0,0,.68-.27,1,1,0,0,0,.33-.43,1.6,1.6,0,0,0,.09-.53,3.1,3.1,0,0,0,0-.54l-.32-1.73,1.07-.2c0,.23.09.49.14.79s.12.65.19,1a4.35,4.35,0,0,1,.05,1.59,1.85,1.85,0,0,1-.6,1.06,2.72,2.72,0,0,1-1.34.56,3.18,3.18,0,0,1-1.38,0,2,2,0,0,1-1.07-.74A3.88,3.88,0,0,1,29,265.45Z" fill="#2f292a"/>
            <path d="M30.25,271.77l1.26-.28,1.34-.3,2.46-.54,1.37-.31,1.27-.28-.84.72-.21-1c-.1-.44-.19-.82-.26-1.16s-.15-.65-.21-1l1.14-.25L39,273.9l-1.15.25c-.07-.3-.14-.61-.21-.95s-.16-.72-.26-1.16l-.22-1,1.06.3-1.27.28-1.36.3-2.46.55-1.34.29-1.26.28Z" fill="#2f292a"/>
            <path d="M31.43,276.91l1.24-.32,1.33-.35,2.64-.68,1.35-.35,1.26-.33.32,1.2c.13.49.27,1.06.44,1.7a4.38,4.38,0,0,1,.16,1.58,1.88,1.88,0,0,1-.51,1.1,2.68,2.68,0,0,1-1.26.65,3.11,3.11,0,0,1-1.38.07,2,2,0,0,1-1.13-.65,3.8,3.8,0,0,1-.75-1.59c0-.18-.1-.38-.15-.58s-.11-.41-.16-.61-.1-.37-.13-.51l1-.27.37,1.42a3,3,0,0,0,.42,1,1.08,1.08,0,0,0,.62.46,1.7,1.7,0,0,0,.89,0,1.52,1.52,0,0,0,.65-.31A1,1,0,0,0,39,279a1.57,1.57,0,0,0,.05-.53,3.89,3.89,0,0,0-.09-.53l-.57-2.17,1,.4-1.26.33-1.35.35-2.45.64-1.32.34-1.25.32Z" fill="#2f292a"/>
            <path d="M33.64,285.12l1.15.17,1.23.19,2.91-2.75.91-.86,1-.93.43,1.43-.72.64-.6.52-.55.49-.59.52-1.35,1.2,0,.11,1.75.22.81.1.73.09.78.1.94.12.42,1.38-1.68-.26-1.59-.25-2.8-.43-1.38-.22-1.41-.22Z" fill="#2f292a"/>
            <path d="M35.53,291.3l1.21-.42,1.3-.45,2.57-.89,1.33-.45,1.23-.43.42,1.23-1.23.43-1.33.45-3,1,0,.1,2.68.77,2,.57,2.14.62.37,1.07-1.23.42-1.32.46-2.58.89-1.29.44-1.22.42-.42-1.23,1.22-.42,1.3-.44,3-1,0-.09-2.67-.77-2.24-.65-2-.55Z" fill="#2f292a"/>
            <path d="M39,301.48a6.18,6.18,0,0,1-.23-.73,6.85,6.85,0,0,1-.14-.74,5.29,5.29,0,0,1-.05-.67,3,3,0,0,1,0-.54l1.14-.33c0,.21,0,.43-.05.64s0,.42,0,.63a4,4,0,0,0,.1.6,3.54,3.54,0,0,0,.17.58,2.38,2.38,0,0,0,.53.89,1.17,1.17,0,0,0,.64.33,1.38,1.38,0,0,0,.69-.09,1,1,0,0,0,.73-.81,2.94,2.94,0,0,0-.26-1.42l-.17-.46c-.06-.14-.11-.28-.16-.41l1-.38c0,.11.09.22.14.34s.1.26.16.43a2.58,2.58,0,0,0,.55.91,1.29,1.29,0,0,0,.67.37,1.14,1.14,0,0,0,.66-.05,1.05,1.05,0,0,0,.56-.46,1.3,1.3,0,0,0,.15-.69,2.31,2.31,0,0,0-.18-.79,3.41,3.41,0,0,0-.22-.48,4,4,0,0,0-.33-.46,4.77,4.77,0,0,0-.45-.45,4.3,4.3,0,0,0-.56-.42l1.07-.6c.14.11.28.23.43.37a5.23,5.23,0,0,1,.44.48,5.07,5.07,0,0,1,.73,1.3,4.23,4.23,0,0,1,.31,1.5,2.07,2.07,0,0,1-.31,1.16,1.72,1.72,0,0,1-.88.7,1.79,1.79,0,0,1-1.32.06,2.09,2.09,0,0,1-1-.74l-.11,0a2.82,2.82,0,0,1,0,.87,1.75,1.75,0,0,1-.36.8,2,2,0,0,1-.9.61,2.4,2.4,0,0,1-1.18.15A2,2,0,0,1,40,303,3.79,3.79,0,0,1,39,301.48Z" fill="#2f292a"/>
            <path d="M40.6,305.2l1.24-.37,1.34-.4,2.6-.76,1.34-.4,1.29-.38.54,1.23-1.16,1.19-1.12,1.13-2.18,2.23,0,.09,3.11-.11,1.57,0,1.67-.06.53,1.22-1.16.68-1.2.72-2.35,1.39-1.18.7-1.12.66-.5-1.16,1.63-1,1.46-.86,1.93-1.14,0-.09-2.56.13-1.87.09L42.7,310l-.36-.82.8-.8.88-.89.88-.89,1.83-1.84,0-.09-2.14.64-1.62.49-1.83.54Z" fill="#2f292a"/>
          </g>
          <g>
            <path d="M37.1,200l-1.27-.21-1.35-.22-2.69-.44-1.38-.23-1.29-.21c.06-.31.12-.72.21-1.22s.17-1.08.28-1.74a4.54,4.54,0,0,1,.49-1.51,1.87,1.87,0,0,1,.92-.8,2.8,2.8,0,0,1,1.41-.08,3.22,3.22,0,0,1,1.29.49,2,2,0,0,1,.76,1.06,3.74,3.74,0,0,1,.05,1.76c0,.18-.06.38-.09.59s-.07.42-.11.62-.06.37-.08.52l-1.07-.18.24-1.45a3.18,3.18,0,0,0,0-1.06,1.16,1.16,0,0,0-.39-.68,1.76,1.76,0,0,0-.83-.33,1.41,1.41,0,0,0-.72,0,.94.94,0,0,0-.45.3,1.43,1.43,0,0,0-.26.47,4.94,4.94,0,0,0-.13.52l-.36,2.21-.76-.78,1.28.21,1.38.23,2.49.4,1.35.23,1.27.2Z" fill="#2f292a"/>
            <path d="M38.15,193.56l-1.25-.74-1.24-.74-2.53-1.5-1.23-.74-1.1-.66.34-1.69,1.29-.17,1.41-.2,2.92-.38,1.44-.19,1.42-.19-.27,1.35-1.47.17-1.43.16-4.33.48,0,.11,3.75,2.15,1.28.73,1.29.74Zm-1.53-2-1-.33.79-3.84,1,.1Z" fill="#2f292a"/>
            <path d="M40.57,182.45q-.2.84-.36,1.5c-.11.45-.22.88-.31,1.28l-1.25-.31-1.34-.32L34.67,184l-.93-.23-.85-.2-.85-.21,1.27-5.18,1.14.28-.31,1.24c-.1.44-.23,1-.38,1.56l-.45,1.86-.76-1,1.26.31,1.37.33,2.24.55.89.21.85.21.31-1.26a3.35,3.35,0,0,0,.1-1,1.15,1.15,0,0,0-.28-.72,1.48,1.48,0,0,0-.79-.42,1.32,1.32,0,0,0-.71,0,1,1,0,0,0-.46.3,1.48,1.48,0,0,0-.28.45,3,3,0,0,0-.15.46l-.42,1.72-1-.26c.06-.22.12-.48.19-.78s.16-.63.25-1a4.58,4.58,0,0,1,.61-1.47,1.79,1.79,0,0,1,1-.72,2.69,2.69,0,0,1,1.43,0,2.73,2.73,0,0,1,1.17.57,1.91,1.91,0,0,1,.62,1.1A4,4,0,0,1,40.57,182.45Z" fill="#2f292a"/>
            <path d="M42.77,174.77a4.59,4.59,0,0,1-.83,1.67,3.62,3.62,0,0,1-1.24,1,3.85,3.85,0,0,1-1.5.37,4.92,4.92,0,0,1-1.6-.2,4.72,4.72,0,0,1-1.91-1,3.67,3.67,0,0,1-1.06-1.76,4.26,4.26,0,0,1,.08-2.31,4.56,4.56,0,0,1,.81-1.62,3.7,3.7,0,0,1,1.22-1,3.77,3.77,0,0,1,1.5-.37,5,5,0,0,1,1.64.2,4.69,4.69,0,0,1,1.93,1.05,3.67,3.67,0,0,1,1,1.75A4.22,4.22,0,0,1,42.77,174.77Zm-1.09-.29a2.64,2.64,0,0,0,.1-1.23,2.4,2.4,0,0,0-.42-1,3,3,0,0,0-.8-.75A4.39,4.39,0,0,0,39.5,171a4,4,0,0,0-1.21-.17,2.94,2.94,0,0,0-1.08.23,2.31,2.31,0,0,0-.86.63,2.67,2.67,0,0,0-.55,1.06,2.74,2.74,0,0,0-.1,1.22,2.39,2.39,0,0,0,.41,1,2.94,2.94,0,0,0,.8.77,4.18,4.18,0,0,0,1.07.49,4,4,0,0,0,1.17.16,2.72,2.72,0,0,0,1.07-.21,2.3,2.3,0,0,0,.89-.63A2.74,2.74,0,0,0,41.68,174.48Z" fill="#2f292a"/>
            <path d="M44.85,167.6l-1.22-.41-1.3-.43L39.94,166l-1.33-.44-1.23-.41,1.08-.19-.32,1L37.77,167c-.11.33-.22.64-.32.93l-1.11-.37,2.11-6.29,1.11.38-.31.92c-.11.33-.23.7-.38,1.13l-.32.95-.75-.8,1.24.41,1.32.45,2.39.8,1.3.43,1.22.41Z" fill="#2f292a"/>
            <path d="M46.3,163.29l-1.11-.93c-.4-.32-.76-.63-1.11-.93l-2.26-1.89-1.09-.92-1-.83.61-1.62,1.31,0,1.42,0,2.94.09,1.46,0,1.43,0-.5,1.29-1.47-.07-1.44-.07-4.34-.22,0,.11,3.35,2.72,1.14.92,1.17.94Zm-1.19-2.22-.91-.48,1.39-3.67,1,.27Z" fill="#2f292a"/>
          </g>
          <g>
            <path d="M78.94,105.59l-1-.81-1.07-.86-1.8-1.45L74,101.59l-1-.81,1,.23-2.53,3.13-.24-1,1.12,1,1.12,1a14,14,0,0,1,1.16,1.17,5.74,5.74,0,0,1,.72,1,3.81,3.81,0,0,1,.37,1.06l-.91.91a3.26,3.26,0,0,0-.3-1,5.4,5.4,0,0,0-.72-1.11,11.27,11.27,0,0,0-1.3-1.34c-.39-.36-.77-.72-1.15-1.06l-1.09-1,3.42-4.24,1,.82,1.09.88,2,1.57,1.08.87,1,.8Zm-2.37,6-.54-.44c-.19-.14-.37-.29-.55-.44l-.57-.46-.57-.46.94-1.16.92-1.15,1.65-2c.31-.37.61-.75.93-1.15s.63-.77.93-1.16l.57.46.57.46.55.44.54.44-.7.88-1.57-1.16.34-.08-4.21,5.22v-.35l1.47,1.28Z" fill="#2f292a"/>
            <path d="M81.35,103c-.33-.3-.66-.58-1-.85l-1-.91-2-1.79-1-.93-1-.85c.21-.24.49-.55.82-.94s.73-.82,1.16-1.32a4.52,4.52,0,0,1,1.22-1,1.82,1.82,0,0,1,1.2-.19,2.68,2.68,0,0,1,1.24.67,3.14,3.14,0,0,1,.83,1.1,1.92,1.92,0,0,1,.09,1.3,3.66,3.66,0,0,1-.89,1.52l-.39.45-.41.47-.35.4L79,99.42l1-1.11a3,3,0,0,0,.57-.89,1.11,1.11,0,0,0,0-.78,1.72,1.72,0,0,0-.52-.72,1.65,1.65,0,0,0-.63-.36,1,1,0,0,0-.54,0,1.56,1.56,0,0,0-.47.26,4.59,4.59,0,0,0-.39.37L76.53,97.9l-.24-1.07,1,.86,1,.92,1.9,1.66,1,.91,1,.85Z" fill="#2f292a"/>
            <path d="M86.92,96.79,86.5,95.7l-.45-1.16-3.84-1.15L81,93l-1.3-.39,1-1.09.91.31.75.26.69.24.75.25,1.71.57.08-.08L85,91.47c-.11-.28-.21-.53-.31-.76L84.36,90l-.3-.72c-.11-.26-.23-.55-.36-.88l1-1.05.6,1.59c.21.54.41,1,.58,1.5l1,2.64.5,1.3.51,1.34Z" fill="#2f292a"/>
            <path d="M90.84,92.59c0-.3-.06-.65-.1-1s-.08-.82-.12-1.24-.08-.81-.11-1.18l-.24-2.37.34.5-2-.25L87,86.81l-1.63-.18,1.13-1.09,1.39.18,1.2.16,1.71.21.45-.43.73.77-.45.44.19,2c0,.42.09.84.13,1.27s.08.87.13,1.36Zm3.59-3.43-.89-.93-1-1-1.88-2-1-1-.9-.94.94-.9.9.94,1,1,1.88,2,.94,1,.89.93ZM97.8,86l-1.34-.2-1.22-.18-2-.3-.45.44L92,84.93l.45-.42-.13-1.73-.09-1.21c0-.4-.07-.87-.11-1.4l1.12-1.07c0,.57.07,1.12.1,1.66l.09,1.61.13,2L93.16,84l2.37.34,1.16.17,1.22.18,1.06.15Z" fill="#2f292a"/>
            <path d="M102,82.24l-1.17,1-1,.85-.84-1-.9-1-1.78-2c-.22-.27-.43-.51-.62-.73s-.39-.44-.57-.66L94.59,78l4-3.49.77.89-1,.84c-.35.29-.75.64-1.22,1l-1.45,1.25,0-1.25.85,1,.92,1.07L99,81.07l.59.69c.19.22.39.44.58.67l1-.86a3.18,3.18,0,0,0,.67-.74,1.24,1.24,0,0,0,.19-.75,1.56,1.56,0,0,0-.41-.81,1.31,1.31,0,0,0-.57-.42,1,1,0,0,0-.55,0A1.8,1.8,0,0,0,100,79c-.15.1-.28.19-.39.28l-1.33,1.16-.7-.81.61-.52.79-.69a4.34,4.34,0,0,1,1.35-.84,1.8,1.8,0,0,1,1.21,0,2.73,2.73,0,0,1,1.15.86,2.79,2.79,0,0,1,.62,1.14,1.93,1.93,0,0,1-.13,1.26A4.18,4.18,0,0,1,102,82.24Z" fill="#2f292a"/>
            <path d="M104.78,79.88l-.49-1.37c-.17-.48-.33-.94-.47-1.37l-1-2.77c-.18-.5-.33-1-.48-1.36l-.42-1.21,1.35-1.08,1.1.69,1.2.76,2.49,1.58,1.23.77,1.21.77-1.08.86-1.23-.82-1.2-.79-3.63-2.4-.09.07,1.5,4.05c.16.44.33.9.52,1.38l.52,1.4Zm.11-2.53-.54-.88L107.41,74l.72.73Z" fill="#2f292a"/>
          </g>
          <g>
            <path d="M163,46.45l-.43-1.21L162.11,44l-.85-2.38-.47-1.31L160.35,39l.81.74-.94.34-1.12.4-.92.33-.39-1.11L164,37.5l.39,1.11-.92.32-1.12.41-.94.33.16-1.08c.15.42.3.82.44,1.22l.47,1.32.85,2.37c.17.47.32.91.46,1.29l.43,1.22Z" fill="#2f292a"/>
            <path d="M167.89,44.74c-.14-.42-.27-.83-.39-1.22s-.26-.83-.41-1.31l-.82-2.6c-.16-.49-.3-.93-.42-1.33l-.4-1.25,1.19-.37,1.67-.53a4.35,4.35,0,0,1,1.57-.24,1.85,1.85,0,0,1,1.13.45,2.74,2.74,0,0,1,.71,1.23,3.14,3.14,0,0,1,.14,1.37,2,2,0,0,1-.59,1.16,3.81,3.81,0,0,1-1.55.84l-.57.18-.6.19-.5.15-.33-1,1.41-.44a3.11,3.11,0,0,0,1-.47,1.1,1.1,0,0,0,.43-.64,1.67,1.67,0,0,0-.08-.89,1.45,1.45,0,0,0-.35-.63,1,1,0,0,0-.47-.27,1.57,1.57,0,0,0-.53,0,4.12,4.12,0,0,0-.53.12l-2.13.68.35-1c.13.43.26.84.39,1.24s.27.85.42,1.34l.76,2.4.41,1.31q.19.59.39,1.23Z" fill="#2f292a"/>
            <path d="M174.06,42.8c0-.46.07-.95.1-1.45s.07-1,.11-1.45l.19-2.93c0-.53.08-1,.1-1.43l.09-1.29,1.67-.45.74,1.07.8,1.17,1.66,2.43.83,1.2.81,1.18-1.34.37L179,40l-.79-1.2-2.38-3.64-.11,0-.22,4.31c0,.47,0,1-.08,1.47s-.05,1-.07,1.49Zm1.1-2.28-.15-1,3.79-1,.37,1Z" fill="#2f292a"/>
            <path d="M182.28,40.58c-.1-.43-.2-.85-.29-1.25s-.19-.85-.31-1.34l-.6-2.65c-.12-.5-.22-1-.31-1.37s-.19-.83-.3-1.27l1.3-.3c.1.44.2.86.29,1.27s.2.87.32,1.37l.6,2.65c.12.49.22.94.31,1.34s.19.82.29,1.25Zm.11-3.64-.25-1.1,4.66-1.06.25,1.1Zm5,2.47c-.1-.44-.2-.85-.29-1.26l-.3-1.33-.61-2.66c-.11-.5-.22-.95-.31-1.36s-.19-.83-.29-1.27l1.3-.3c.1.44.19.86.29,1.27s.2.87.31,1.37l.61,2.65.3,1.34c.09.4.19.82.29,1.25Z" fill="#2f292a"/>
            <path d="M194.21,38.2a4.8,4.8,0,0,1-1.77,0,3.74,3.74,0,0,1-2.52-1.77,4.78,4.78,0,0,1-.59-1.6,4.45,4.45,0,0,1,.1-2.22,3.72,3.72,0,0,1,1.11-1.72,4.16,4.16,0,0,1,2-.92,6.87,6.87,0,0,1,.78-.08,4.42,4.42,0,0,1,.73,0l.67.08a5.48,5.48,0,0,1,.55.14l.11,1.26a5.8,5.8,0,0,0-.91-.27,4.14,4.14,0,0,0-.84-.09,4.77,4.77,0,0,0-.76.06,2.91,2.91,0,0,0-1.34.62,2.55,2.55,0,0,0-.78,1.21,3.44,3.44,0,0,0-.05,1.67,3.38,3.38,0,0,0,.39,1.12,2.87,2.87,0,0,0,.72.86,2.52,2.52,0,0,0,1,.49,3.21,3.21,0,0,0,1.31,0,3.41,3.41,0,0,0,.55-.14,4.87,4.87,0,0,0,.53-.21,3.57,3.57,0,0,0,.51-.32,4.45,4.45,0,0,0,.47-.41l.32,1.21a5.85,5.85,0,0,1-.48.34,3.81,3.81,0,0,1-.57.29l-.62.22C194.65,38.11,194.43,38.16,194.21,38.2Z" fill="#2f292a"/>
          </g>
          <g>
            <path d="M249.27,36.28a4.66,4.66,0,0,1-1.78-.53,3.58,3.58,0,0,1-1.19-1,4,4,0,0,1-.62-1.42,5.07,5.07,0,0,1-.08-1.61,4.68,4.68,0,0,1,.7-2.06,3.67,3.67,0,0,1,1.54-1.35,4.26,4.26,0,0,1,2.3-.31,4.5,4.5,0,0,1,1.73.51,3.58,3.58,0,0,1,1.18,1,3.91,3.91,0,0,1,.63,1.41,5.08,5.08,0,0,1,.09,1.66,4.72,4.72,0,0,1-.71,2.08A3.56,3.56,0,0,1,251.52,36,4.2,4.2,0,0,1,249.27,36.28Zm.1-1.12A2.72,2.72,0,0,0,250.6,35a2.41,2.41,0,0,0,.91-.58,3.1,3.1,0,0,0,.6-.93,4.29,4.29,0,0,0,.24-2.34,3.08,3.08,0,0,0-.41-1,2.4,2.4,0,0,0-.78-.74,2.47,2.47,0,0,0-1.13-.36,2.83,2.83,0,0,0-1.22.11,2.53,2.53,0,0,0-.92.58,2.9,2.9,0,0,0-.61.92,3.83,3.83,0,0,0-.3,1.14A4.12,4.12,0,0,0,247,33a3,3,0,0,0,.39,1,2.36,2.36,0,0,0,.78.76A2.79,2.79,0,0,0,249.37,35.16Z" fill="#2f292a"/>
            <path d="M257.53,37.21,256,37l-1.3-.19c.07-.44.13-.87.19-1.28s.14-.85.21-1.35l.41-2.69c.05-.34.1-.66.14-.95s.09-.58.13-.86.09-.57.13-.87l5.27.8L261,30.75l-1.26-.19-1.59-.24L256.26,30l.92-.84c-.07.44-.13.87-.19,1.29s-.14.87-.21,1.39l-.35,2.28c-.05.31-.09.61-.13.9s-.09.57-.13.86l1.28.2a3.4,3.4,0,0,0,1,0,1.15,1.15,0,0,0,.69-.35,1.42,1.42,0,0,0,.35-.83,1.21,1.21,0,0,0-.05-.7,1.07,1.07,0,0,0-.33-.44,1.69,1.69,0,0,0-.49-.23,2.42,2.42,0,0,0-.47-.11l-1.74-.27.16-1.05.79.12,1,.16a4.33,4.33,0,0,1,1.52.47,1.78,1.78,0,0,1,.81.91,2.73,2.73,0,0,1,.1,1.43,2.89,2.89,0,0,1-.46,1.21,1.92,1.92,0,0,1-1.05.72A4.12,4.12,0,0,1,257.53,37.21Z" fill="#2f292a"/>
            <path d="M261.74,37.88c.08-.44.16-.86.23-1.26s.16-.86.26-1.35l.5-2.68c.1-.5.18-1,.26-1.37s.16-.84.24-1.28l1.22.23,1.73.32a4.59,4.59,0,0,1,1.5.53,1.76,1.76,0,0,1,.77.94,2.62,2.62,0,0,1,.05,1.41,3,3,0,0,1-.52,1.28,2,2,0,0,1-1.07.74,3.83,3.83,0,0,1-1.76,0l-.59-.11-.62-.11-.52-.1.21-1.07,1.44.28a3,3,0,0,0,1.06,0,1.12,1.12,0,0,0,.69-.37,1.68,1.68,0,0,0,.35-.82,1.43,1.43,0,0,0,0-.72,1,1,0,0,0-.29-.46,1.48,1.48,0,0,0-.46-.26,2.74,2.74,0,0,0-.52-.15l-2.2-.41.8-.75c-.08.44-.17.87-.24,1.28s-.17.87-.26,1.37l-.47,2.48c-.09.5-.18,1-.25,1.35s-.16.83-.24,1.27Z" fill="#2f292a"/>
            <path d="M268.11,39.09l.77-1.23.78-1.23,1.55-2.49.77-1.21c.23-.36.45-.73.69-1.09l1.68.38c0,.44.1.88.14,1.3s.1.89.16,1.41l.31,2.93c.06.47.11,1,.16,1.45s.11,1,.16,1.42l-1.35-.31c0-.48-.08-1-.13-1.47s-.08-1-.12-1.44l-.38-4.33-.11,0L271,36.85l-.76,1.26-.77,1.28Zm2.05-1.49.34-1,3.83.87-.13,1Z" fill="#2f292a"/>
            <path d="M278.56,41.74a4.46,4.46,0,0,1-.73-.24,6.1,6.1,0,0,1-.68-.32q-.31-.18-.57-.36a3.23,3.23,0,0,1-.42-.34l.4-1.11c.16.14.32.28.49.41a4.3,4.3,0,0,0,.51.36,4.75,4.75,0,0,0,.55.28,4.3,4.3,0,0,0,.57.2,2.42,2.42,0,0,0,1,.09,1.09,1.09,0,0,0,.65-.32,1.57,1.57,0,0,0,.33-.61,1,1,0,0,0-.22-1.06,3,3,0,0,0-1.31-.63l-.47-.13-.43-.11.27-1,.36.1.44.11a2.41,2.41,0,0,0,1.06.1,1.31,1.31,0,0,0,.69-.32,1.22,1.22,0,0,0,.35-.57,1,1,0,0,0,0-.72,1.25,1.25,0,0,0-.47-.53,2.37,2.37,0,0,0-.74-.32,3,3,0,0,0-.52-.1,2.62,2.62,0,0,0-.56,0,3.68,3.68,0,0,0-.63.09,5.74,5.74,0,0,0-.68.21l.16-1.22.55-.13a4.18,4.18,0,0,1,.64-.07,4.43,4.43,0,0,1,.72,0,4.38,4.38,0,0,1,.76.14,4.33,4.33,0,0,1,1.4.64,2.19,2.19,0,0,1,.75.93,1.74,1.74,0,0,1,.05,1.13,1.81,1.81,0,0,1-.73,1.09,2.14,2.14,0,0,1-1.18.37l0,.11a2.5,2.5,0,0,1,.71.49,1.75,1.75,0,0,1,.44.76,2.16,2.16,0,0,1,0,1.09,2.46,2.46,0,0,1-.57,1,2,2,0,0,1-1.11.6A3.8,3.8,0,0,1,278.56,41.74Z" fill="#2f292a"/>
            <path d="M288.25,44.61a4.59,4.59,0,0,1-1.57-.82,3.88,3.88,0,0,1-1-1.23,3.93,3.93,0,0,1-.39-1.52,4.58,4.58,0,0,1,.24-1.69,4.5,4.5,0,0,1,1.13-1.91,3.74,3.74,0,0,1,1.79-1,4.18,4.18,0,0,1,2.2.14,5.84,5.84,0,0,1,.73.29,5.6,5.6,0,0,1,.64.36c.2.13.38.26.55.39A3.9,3.9,0,0,1,293,38l-.49,1.16a6.11,6.11,0,0,0-.68-.67,5,5,0,0,0-.69-.47,3.93,3.93,0,0,0-.7-.31,2.78,2.78,0,0,0-1.48-.08,2.47,2.47,0,0,0-1.25.69,3.39,3.39,0,0,0-.84,1.44,3.55,3.55,0,0,0-.18,1.19,2.66,2.66,0,0,0,.23,1.09,2.48,2.48,0,0,0,.67.92,3.37,3.37,0,0,0,1.16.62,4.9,4.9,0,0,0,.55.13,2.62,2.62,0,0,0,.57.06,3,3,0,0,0,.59,0,3.39,3.39,0,0,0,.61-.15l-.29,1.22a3.53,3.53,0,0,1-.58.08,4.58,4.58,0,0,1-.64,0c-.21,0-.43-.06-.65-.11A4.64,4.64,0,0,1,288.25,44.61Z" fill="#2f292a"/>
            <path d="M292,45.72l.44-1.21c.14-.38.29-.81.46-1.29l.93-2.56.47-1.32.44-1.22,4.85,1.74-.39,1.06-1.11-.4-1.39-.5-1.81-.66,1-.61L295.49,40c-.15.39-.3.83-.48,1.31l-.78,2.18-.47,1.29L293.33,46,293,44.88l1.84.67,1.28.46,1.15.41-.38,1.06Zm2.15-3,.37-1,1.45.52,1.24.45,1,.36-.37,1-1-.37-1.23-.44Z" fill="#2f292a"/>
            <path d="M301,49.08l-1.44-.58L298.29,48c.17-.41.33-.81.48-1.19s.33-.81.51-1.27l1-2.53c.13-.32.24-.62.35-.89l.33-.81.32-.81,4.95,2-.44,1.09-1.18-.47-1.5-.6-1.77-.71,1.09-.61q-.26.62-.48,1.2c-.16.39-.34.83-.53,1.31l-.86,2.14-.34.85-.32.81,1.21.48a3.1,3.1,0,0,0,1,.25,1.28,1.28,0,0,0,.76-.17,1.58,1.58,0,0,0,.53-.73,1.34,1.34,0,0,0,.11-.7.93.93,0,0,0-.23-.5,1.49,1.49,0,0,0-.41-.34l-.44-.22-1.63-.65.39-1,.75.3,1,.39a4.31,4.31,0,0,1,1.37.81,1.87,1.87,0,0,1,.58,1.06,2.74,2.74,0,0,1-.24,1.42,2.68,2.68,0,0,1-.73,1.07,1.87,1.87,0,0,1-1.18.46A4.18,4.18,0,0,1,301,49.08Z" fill="#2f292a"/>
            <path d="M304.28,50.42l.78-.44.9-.5.86-.48,1.75-1,.15.68a3.93,3.93,0,0,1-1.1-.7,2.23,2.23,0,0,1-.55-.83,2,2,0,0,1-.11-.9,2.93,2.93,0,0,1,.25-.93,2.3,2.3,0,0,1,.84-1.07,1.76,1.76,0,0,1,1.17-.26,4.91,4.91,0,0,1,1.54.45l1,.45.92.41.74.32c-.19.41-.36.81-.54,1.2l-.56,1.27-1.11,2.49-.56,1.25c-.17.38-.34.77-.53,1.18l-1.2-.54.53-1.17c.16-.38.35-.8.56-1.26l1-2.29.57-1.29.53-1.18.28,1.08-2.06-.92a4.24,4.24,0,0,0-.5-.18,1.39,1.39,0,0,0-.53-.05.85.85,0,0,0-.5.21,1.47,1.47,0,0,0-.42.59,1.34,1.34,0,0,0-.05,1.24,2.27,2.27,0,0,0,1.12.87l1.38.62-.44,1L308.69,49l1-.29-2.08,1.2-1,.55-1,.59Z" fill="#2f292a"/>
          </g>
          <g>
            <path d="M338.21,69.2c-.18-.13-.37-.27-.54-.42a5.42,5.42,0,0,1-.49-.46,3.58,3.58,0,0,1-.4-.49,3.47,3.47,0,0,1-.3-.52l.78-1a3.68,3.68,0,0,0,.26.57,4.34,4.34,0,0,0,.35.49,4,4,0,0,0,.4.42,5.19,5.19,0,0,0,.46.36,3.41,3.41,0,0,0,1.63.67,2.34,2.34,0,0,0,1.38-.29,3.42,3.42,0,0,0,1.09-1l.22-.32a3.28,3.28,0,0,0,.52-1.11,2.34,2.34,0,0,0,0-1,2.64,2.64,0,0,0-.41-1,3.39,3.39,0,0,0-.81-.79,4.33,4.33,0,0,0-.7-.39,5.29,5.29,0,0,0-.82-.29,5.42,5.42,0,0,0-.95-.14l.62-1.09a3.65,3.65,0,0,1,.56.11c.2.05.42.12.65.2a5.89,5.89,0,0,1,.7.3,4.89,4.89,0,0,1,.69.42,4.28,4.28,0,0,1,1.2,1.2,3.53,3.53,0,0,1,.54,1.43,3.89,3.89,0,0,1-.1,1.55,5,5,0,0,1-.74,1.54,4.54,4.54,0,0,1-1.63,1.5,3.55,3.55,0,0,1-2,.41A4.55,4.55,0,0,1,338.21,69.2Zm1.23-3.61.62-.89.89.61,1.08.75,1.45,1-.62.89-1.45-1-1.06-.74Z" fill="#2f292a"/>
            <path d="M342.84,72.29l.78-1,.82-1.1L346.08,68l.84-1.12.79-1,1.06.8-.79,1-.84,1.12L345.5,71l-.82,1.09-.78,1Zm3.86,2.91c0-.49-.06-1-.08-1.39s-.05-.86-.07-1.28l-.12-2.11L346,70.1l.64-.85.43.31,1.76-.34,1.23-.25,1.42-.29,1.26.95-1.67.31-1.64.32-2.08.39.34-.48.12,2.45c0,.38.05.78.07,1.21s.05.86.07,1.27,0,.78.06,1.09Z" fill="#2f292a"/>
            <path d="M351.71,79.38a4.57,4.57,0,0,1-1.2-1.42,3.67,3.67,0,0,1-.42-1.54,4,4,0,0,1,.26-1.52,4.94,4.94,0,0,1,.82-1.39,4.68,4.68,0,0,1,1.71-1.33,3.66,3.66,0,0,1,2-.29,4.35,4.35,0,0,1,2.09,1,4.5,4.5,0,0,1,1.16,1.38,3.47,3.47,0,0,1,.42,1.51,3.83,3.83,0,0,1-.25,1.52,4.72,4.72,0,0,1-.83,1.43,4.89,4.89,0,0,1-1.73,1.35,3.61,3.61,0,0,1-2,.27A4.13,4.13,0,0,1,351.71,79.38Zm.69-.88a2.8,2.8,0,0,0,1.09.57,2.24,2.24,0,0,0,1.09,0,2.62,2.62,0,0,0,1-.44,4,4,0,0,0,.86-.78,4.19,4.19,0,0,0,.63-1,3,3,0,0,0,.22-1.08,2.44,2.44,0,0,0-.24-1,2.77,2.77,0,0,0-.75-.92,2.7,2.7,0,0,0-1.08-.57,2.36,2.36,0,0,0-1.09,0,3.22,3.22,0,0,0-1,.43,4,4,0,0,0-.87.79,4.25,4.25,0,0,0-.61,1,2.91,2.91,0,0,0-.24,1.07,2.33,2.33,0,0,0,.23,1.06A2.79,2.79,0,0,0,352.4,78.5Z" fill="#2f292a"/>
            <path d="M356,82.78l.86-1,.92-1,1.83-2c.34-.38.65-.73.94-1l.87-1,1,.89-.88,1-.94,1-1.82,2c-.34.38-.65.71-.92,1l-.87,1Zm3-2,.76-.84,3.54,3.21-.75.84Zm.85,5.52.87-1,.92-1,1.82-2,.94-1,.88-1,1,.9-.88,1-.94,1-1.82,2-.93,1-.86,1Z" fill="#2f292a"/>
            <path d="M364.72,91.16a4.85,4.85,0,0,1-1.07-1.53,3.63,3.63,0,0,1-.27-1.56,3.89,3.89,0,0,1,.4-1.49,5,5,0,0,1,.94-1.32,4.76,4.76,0,0,1,1.83-1.17A3.58,3.58,0,0,1,368.6,84a4.2,4.2,0,0,1,2,1.18,4.5,4.5,0,0,1,1,1.49,3.49,3.49,0,0,1,.29,1.54,4.07,4.07,0,0,1-.39,1.5,4.91,4.91,0,0,1-1,1.34,4.7,4.7,0,0,1-1.84,1.19,3.63,3.63,0,0,1-2,.08A4.16,4.16,0,0,1,364.72,91.16Zm.77-.82a2.68,2.68,0,0,0,1,.67,2.3,2.3,0,0,0,1.07.12,3.17,3.17,0,0,0,1-.35,4.12,4.12,0,0,0,.92-.71,3.81,3.81,0,0,0,.72-1,2.82,2.82,0,0,0,.32-1.06,2.28,2.28,0,0,0-.14-1.06,2.77,2.77,0,0,0-.66-1,2.81,2.81,0,0,0-1-.67,2.53,2.53,0,0,0-1.09-.12,2.92,2.92,0,0,0-1.05.33,3.94,3.94,0,0,0-.94.71,4.1,4.1,0,0,0-.7.94,2.94,2.94,0,0,0-.34,1,2.51,2.51,0,0,0,.13,1.08A2.83,2.83,0,0,0,365.49,90.34Z" fill="#2f292a"/>
            <path d="M368.49,94.72l1.06-.75,1.14-.81,2.21-1.55L374,90.8l1.11-.78.9,1-.72,1.5L374.64,94l-1.36,2.81.07.07,2.91-1.1,1.47-.56,1.56-.59.89,1-.87,1-.91,1.06-1.78,2.07-.89,1-.85,1-.86-.94c.44-.51.85-1,1.25-1.44l1.1-1.28,1.47-1.7-.07-.07-2.39.94-1.74.69L372,98.6l-.6-.67c.16-.31.32-.64.5-1l.55-1.13.55-1.12,1.14-2.33-.06-.07-1.82,1.29-1.39,1-1.55,1.1Z" fill="#2f292a"/>
            <path d="M375.87,103l1-.82,1.06-.87,2.1-1.73,1.08-.89,1-.82.83,1-1,.83-1.09.89-2.42,2,.07.07,2.77-.21,2.11-.17,2.22-.17.72.88-1,.83-1.08.88-2.1,1.73-1.06.87-1,.82-.83-1,1-.82c.32-.26.67-.56,1.06-.87l2.46-2-.06-.08-2.78.21-2.32.18-2,.16Z" fill="#2f292a"/>
            <path d="M381.19,109.5l1-.77,1.09-.83,2.18-1.64,1.11-.84,1-.79.8,1.06-1,.79-1.12.84L384.11,109l-1.09.82-1,.78Zm2.91,3.86c.11-.49.21-.94.31-1.36s.19-.84.28-1.25l.47-2.06-.33-.43.85-.64.32.42,1.79.15,1.25.1,1.45.11.95,1.26-1.7-.16-1.66-.15-2.1-.19.45-.37-.55,2.39c-.08.37-.17.77-.27,1.19s-.19.83-.28,1.24l-.24,1Z" fill="#2f292a"/>
            <path d="M385.39,115.09l1.4-.4,1.4-.38,2.83-.79,1.38-.38,1.25-.34,1,1.42-.77,1-.83,1.15-1.74,2.38-.86,1.17-.85,1.16-.79-1.14.9-1.17.88-1.15,2.64-3.46-.07-.09L389,115.34l-1.41.42-1.43.43Zm2.52.28.9-.48,2.24,3.22-.78.67Z" fill="#2f292a"/>
          </g>
          <g>
            <path d="M409.08,159.06a6.23,6.23,0,0,1-.24-.73,6.77,6.77,0,0,1-.13-.74c0-.24,0-.46-.06-.67a4.16,4.16,0,0,1,0-.54l1.14-.33c0,.21,0,.43-.05.64a4.42,4.42,0,0,0,0,.63,5.77,5.77,0,0,0,.09.6,3.89,3.89,0,0,0,.18.58,2.46,2.46,0,0,0,.53.89,1.13,1.13,0,0,0,.64.33,1.38,1.38,0,0,0,.69-.09,1,1,0,0,0,.73-.8,3,3,0,0,0-.26-1.43c-.06-.17-.12-.32-.18-.46s-.1-.28-.16-.41l1-.38c0,.11.09.22.13.34s.11.26.17.43a2.44,2.44,0,0,0,.55.91,1.3,1.3,0,0,0,.66.37,1.17,1.17,0,0,0,.67,0,1.09,1.09,0,0,0,.56-.46,1.3,1.3,0,0,0,.15-.69,2.57,2.57,0,0,0-.18-.79,2.92,2.92,0,0,0-.23-.47,4.35,4.35,0,0,0-.32-.47,3.76,3.76,0,0,0-.45-.44,3.85,3.85,0,0,0-.57-.43l1.08-.6c.14.11.28.24.43.38a3.4,3.4,0,0,1,.43.48,3.21,3.21,0,0,1,.4.59,3.76,3.76,0,0,1,.33.7,4.05,4.05,0,0,1,.32,1.5,2.22,2.22,0,0,1-.31,1.16,2,2,0,0,1-2.2.76,2.07,2.07,0,0,1-1-.74l-.1,0a2.82,2.82,0,0,1,0,.87,1.68,1.68,0,0,1-.35.8,2.11,2.11,0,0,1-.91.61,2.38,2.38,0,0,1-1.18.15,2,2,0,0,1-1.13-.54A3.9,3.9,0,0,1,409.08,159.06Z" fill="#2f292a"/>
            <path d="M410.71,163l1.21-.42,1.3-.44,2.58-.88,1.32-.46,1.24-.42.43,1.26-1.24.43-1.32.45-2.58.88-1.29.44-1.22.42Zm1.7,5,1.22-.41,1.29-.45,2.58-.88,1.32-.45,1.24-.42.43,1.25-1.24.43-1.32.45-2.57.88-1.3.45-1.22.41Zm1.92-5.24,1.07-.37,1.55,4.53-1.07.37Z" fill="#2f292a"/>
            <path d="M413.21,170.34l1.45.07,1.45.07,2.94.14,1.43.07,1.28.07.49,1.65-1.05.76L420,174l-2.4,1.71-1.18.85-1.16.83-.4-1.32,1.23-.84,1.18-.81L420.9,172l0-.11-4.31-.13-1.48-.05-1.49,0Zm2.3,1,1-.17,1.11,3.77-.94.38Z" fill="#2f292a"/>
            <path d="M415.59,178.51l1.25-.31,1.33-.33,2.64-.67,1.36-.33,1.26-.32.33,1.29-1.27.32-1.36.34-2.64.66-1.33.33-1.25.31Zm1.28,5.1,1.25-.31,1.33-.34,2.64-.66,1.35-.34,1.27-.31.32,1.29-1.26.32-1.36.34-2.64.66-1.33.33-1.25.31Zm2.36-5.06,1.09-.28,1.16,4.65-1.09.27Z" fill="#2f292a"/>
            <path d="M417.59,186.68l1.26-.26,1.35-.27,2.67-.55,1.37-.28,1.28-.26.25,1.27-1.28.27-1.37.28-3.07.62,0,.1,2.55,1.11,1.94.84,2.05.88.23,1.11-1.28.26-1.37.29-2.67.54-1.34.27-1.26.26-.26-1.27,1.26-.26,1.35-.27,3.11-.64,0-.1-2.55-1.11-2.13-.93-1.86-.8Z" fill="#2f292a"/>
            <path d="M419.13,194.31l.79.41.91.48.88.46,1.78.93-.49.5a3.81,3.81,0,0,1,0-1.3,2.42,2.42,0,0,1,.39-.92,2.1,2.1,0,0,1,.7-.59A2.92,2.92,0,0,1,425,194a2.35,2.35,0,0,1,1.35.11,1.79,1.79,0,0,1,.86.84,5,5,0,0,1,.47,1.53c.06.38.11.74.17,1.1s.11.68.16,1,.09.57.13.8l-1.29.2-1.38.23-2.69.43-1.35.21-1.27.21-.21-1.3,1.27-.2,1.35-.22,2.49-.4,1.39-.22,1.28-.21-.76.83-.36-2.23a2.44,2.44,0,0,0-.12-.52,1.49,1.49,0,0,0-.24-.47,1,1,0,0,0-.45-.31,1.54,1.54,0,0,0-.72,0A1.36,1.36,0,0,0,424,196a2.31,2.31,0,0,0-.11,1.41l.24,1.5-1.07.17-.3-1.88.81.71-2.15-1.08-1-.51-1.05-.54Z" fill="#2f292a"/>
          </g>
          <g>
            <path d="M56.47,336.33a4.76,4.76,0,0,1-.66-1.65,3.64,3.64,0,0,1,0-1.58,3.69,3.69,0,0,1,.68-1.41,4.85,4.85,0,0,1,1.28-1.13,4.53,4.53,0,0,1,2.1-.71,3.69,3.69,0,0,1,2,.41,4.12,4.12,0,0,1,1.58,1.53,5.7,5.7,0,0,1,.36.69,5.35,5.35,0,0,1,.26.69c.07.23.12.45.16.65a3.16,3.16,0,0,1,.07.56l-1.13.57a5.61,5.61,0,0,0-.08-.95,4,4,0,0,0-.22-.81,3.66,3.66,0,0,0-.33-.69,2.89,2.89,0,0,0-1.07-1,2.51,2.51,0,0,0-1.41-.29,3.54,3.54,0,0,0-1.57.55,3.64,3.64,0,0,0-.91.78,3,3,0,0,0-.53,1,2.5,2.5,0,0,0-.08,1.13,3.14,3.14,0,0,0,.47,1.22,3.83,3.83,0,0,0,.33.46,3.88,3.88,0,0,0,.39.42,4.29,4.29,0,0,0,.48.36,4.21,4.21,0,0,0,.56.29l-1,.73a3.49,3.49,0,0,1-.5-.32,3.63,3.63,0,0,1-.47-.42c-.15-.16-.29-.32-.43-.5S56.59,336.52,56.47,336.33Z" fill="#2f292a"/>
            <path d="M58.69,339.57l1.07-.72,1.14-.76,2.26-1.52,1.16-.77,1.09-.72,2.86,4.27-.93.63-.66-1-.83-1.24-1.06-1.6,1.17.11-1.08.72-1.16.78-1.93,1.29-1.14.76-1.07.72.4-1.06,1.08,1.62.76,1.13.68,1-.93.62Zm3.51-1.14.9-.6.85,1.28.74,1.1.59.89-.9.6-.6-.91c-.21-.3-.45-.67-.73-1.08Z" fill="#2f292a"/>
            <path d="M62.43,345.12l1-.75,1.11-.81L66.79,342l1.14-.82,1-.76.78,1.07-1.06.77-1.13.82-2.21,1.59-1.11.8-1,.75ZM65.25,349c.12-.49.23-.94.34-1.36s.21-.83.31-1.24l.51-2.05L66.1,344l.86-.62.31.43,1.78.19,1.25.13c.42,0,.9.08,1.45.14l.92,1.28L71,345.3l-1.66-.18-2.1-.24.47-.36-.61,2.38c-.09.37-.19.76-.29,1.18s-.21.83-.31,1.23-.19.75-.27,1.05Z" fill="#2f292a"/>
            <path d="M69.14,354.35a4.56,4.56,0,0,1-.83-1.56,3.72,3.72,0,0,1-.13-1.58,3.78,3.78,0,0,1,.53-1.47,4.71,4.71,0,0,1,1.15-1.26,4.5,4.5,0,0,1,2-.94,3.72,3.72,0,0,1,2,.19,4.14,4.14,0,0,1,1.74,1.36,4.48,4.48,0,0,1,.43.64,5.08,5.08,0,0,1,.33.66c.09.22.17.43.23.63a3.71,3.71,0,0,1,.14.55l-1.07.69a5,5,0,0,0-.48-1.72,3.79,3.79,0,0,0-.41-.65,2.81,2.81,0,0,0-1.17-.9,2.57,2.57,0,0,0-1.43-.14,3.43,3.43,0,0,0-1.51.72,3.68,3.68,0,0,0-.81.87,2.77,2.77,0,0,0-.43,1,2.6,2.6,0,0,0,0,1.14,3.22,3.22,0,0,0,.6,1.16,5.14,5.14,0,0,0,.38.42,3.19,3.19,0,0,0,.44.37,2.57,2.57,0,0,0,.51.31,4.53,4.53,0,0,0,.59.23l-.93.83a3.69,3.69,0,0,1-.53-.26,4.39,4.39,0,0,1-.51-.37,5.11,5.11,0,0,1-.48-.45A5.37,5.37,0,0,1,69.14,354.35Z" fill="#2f292a"/>
            <path d="M72.54,358.35l1.12-.29,1.21-.32,1.57-3.68c.18-.4.34-.79.5-1.15s.33-.78.53-1.25l1,1.15-.41.87c-.12.25-.24.49-.34.71l-.31.67c-.1.22-.22.46-.34.71l-.76,1.64.07.08L78,357l.79-.22.71-.21.75-.23.91-.26.93,1.11-1.64.42-1.55.4-2.74.72-1.35.36-1.39.36Z" fill="#2f292a"/>
            <path d="M76.31,362.81l1.34-.57,1.33-.57,2.7-1.16L83,360l1.19-.5,1.16,1.28c-.21.39-.41.77-.62,1.14l-.67,1.25-1.41,2.59c-.23.41-.46.84-.7,1.28l-.68,1.25-.93-1,.73-1.28.72-1.25,2.15-3.78-.07-.08-4,1.76-1.34.6-1.36.62Zm2.53-.06.84-.59,2.64,2.9-.68.76Z" fill="#2f292a"/>
            <path d="M82,369.19l-.2-.22a2.39,2.39,0,0,1-.16-.22l-.13-.19.85-.75.13.18.12.14a.85.85,0,0,0,.8.24,3.15,3.15,0,0,0,1.13-.59c.45-.33,1-.77,1.64-1.34l1.23-1.09,1.24-1.1,3.86,3.9-.93.91-1,1L88.67,372l-1,1-.92.9-.94-.94.92-.91,1-1,1.8-1.78,1-1c.3-.3.61-.6.92-.92l-.18,1.13-3-3.06,1.12-.08-1.3,1.13-1.36,1.18c-.56.48-1.06.9-1.5,1.24a6,6,0,0,1-1.2.75,1.76,1.76,0,0,1-1,.14A2,2,0,0,1,82,369.19Z" fill="#2f292a"/>
            <path d="M90.3,377.15c-.42-.39-.8-.74-1.13-1.06l-1-.89.88-.94.93-1,1.86-2,1-1,.89-.95,1,.9c-.31.32-.61.64-.89.95l-1,1L91.13,374l-.62.66-.6.65,1,.88a2.62,2.62,0,0,0,.87.6,1.18,1.18,0,0,0,.78.06,1.9,1.9,0,0,0,.74-.51,1.75,1.75,0,0,0,.39-.62,1,1,0,0,0,0-.55,1.54,1.54,0,0,0-.24-.48,3.42,3.42,0,0,0-.36-.4l-1.29-1.2.74-.79.59.54.76.72a4.43,4.43,0,0,1,1,1.25A1.81,1.81,0,0,1,95,376a2.86,2.86,0,0,1-.74,1.25,3.13,3.13,0,0,1-1.13.8,2,2,0,0,1-1.3.05A4,4,0,0,1,90.3,377.15Z" fill="#2f292a"/>
            <path d="M93.52,380.12l.84-1,.89-1L97,376c.34-.38.64-.74.91-1.06l.86-1,1,.87c-.29.34-.57.67-.85,1L98,376.91,96.26,379l-.89,1-.85,1Zm3-2.07.74-.85,3.62,3.12-.74.86Zm1,5.5.85-1c.26-.32.56-.66.89-1l1.78-2.06.91-1.06.86-1,1,.87-.85,1-.91,1.06-1.78,2.06-.9,1-.84,1Z" fill="#2f292a"/>
            <path d="M102.82,388.06a4.73,4.73,0,0,1-1.24-1.4,3.68,3.68,0,0,1-.44-1.52,3.93,3.93,0,0,1,.22-1.52,4.8,4.8,0,0,1,.79-1.41,4.61,4.61,0,0,1,1.69-1.38,3.59,3.59,0,0,1,2-.32,4.19,4.19,0,0,1,2.11.95,4.67,4.67,0,0,1,1.2,1.35,3.51,3.51,0,0,1,.45,1.51,3.86,3.86,0,0,1-.21,1.53,5.19,5.19,0,0,1-.81,1.44,4.65,4.65,0,0,1-1.7,1.39,3.57,3.57,0,0,1-2,.31A4.18,4.18,0,0,1,102.82,388.06Zm.67-.9a2.71,2.71,0,0,0,1.1.55,2.36,2.36,0,0,0,1.09,0,3.11,3.11,0,0,0,1-.46,4.39,4.39,0,0,0,1.44-1.86,3,3,0,0,0,.2-1.09,2.49,2.49,0,0,0-.26-1,2.84,2.84,0,0,0-.77-.91,2.65,2.65,0,0,0-1.1-.55,2.46,2.46,0,0,0-1.08,0,3,3,0,0,0-1,.45,3.7,3.7,0,0,0-.86.82,4,4,0,0,0-.59,1,2.92,2.92,0,0,0-.21,1.08,2.39,2.39,0,0,0,.25,1.06A2.89,2.89,0,0,0,103.49,387.16Z" fill="#2f292a"/>
            <path d="M110.18,393.59a4.52,4.52,0,0,1-1.24-1.27,3.67,3.67,0,0,1-.45-3,4.7,4.7,0,0,1,.74-1.53,4.54,4.54,0,0,1,1.68-1.46,3.59,3.59,0,0,1,2-.38,4,4,0,0,1,2,.81,5,5,0,0,1,.6.5,6.15,6.15,0,0,1,.5.54c.15.19.28.37.4.54a5.33,5.33,0,0,1,.28.49l-.83,1a5.2,5.2,0,0,0-.44-.85,5.12,5.12,0,0,0-.51-.67,3.78,3.78,0,0,0-.57-.5,2.78,2.78,0,0,0-1.38-.55,2.52,2.52,0,0,0-1.41.27,3.86,3.86,0,0,0-1.78,2.18,2.82,2.82,0,0,0-.13,1.11,2.76,2.76,0,0,0,.36,1.08,3.35,3.35,0,0,0,.9.95q.24.17.48.3a4.27,4.27,0,0,0,.53.24,4.74,4.74,0,0,0,.57.15,4.34,4.34,0,0,0,.63.05l-.66,1.07a4.51,4.51,0,0,1-.58-.11l-.59-.21a6.54,6.54,0,0,1-.59-.3C110.55,393.85,110.36,393.72,110.18,393.59Z" fill="#2f292a"/>
            <path d="M115.17,396.89l.72-1.07.76-1.14,1.4-2.1.78-1.16.72-1.08-.11,1.09-.84-.55-1-.66-.82-.55.65-1,5.52,3.68-.66,1-.81-.54-1-.66-.83-.56,1-.51-.72,1.08c-.24.35-.49.74-.78,1.16l-1.4,2.1-.76,1.14-.72,1.07Z" fill="#2f292a"/>
            <path d="M121.94,401.25l-1.32-.81-1.11-.69.67-1.09.72-1.17,1.43-2.32.74-1.19.69-1.11,1.11.69-.68,1.11-.74,1.2L122.13,398l-.47.77-.46.75,1.1.69a3,3,0,0,0,1,.41,1.12,1.12,0,0,0,.77-.1,1.73,1.73,0,0,0,.62-.64,1.48,1.48,0,0,0,.26-.69,1,1,0,0,0-.1-.54,1.42,1.42,0,0,0-.33-.41,3,3,0,0,0-.43-.32l-1.5-.93.57-.93.68.43.89.54a4.44,4.44,0,0,1,1.21,1,1.72,1.72,0,0,1,.38,1.15,2.88,2.88,0,0,1-.47,1.37,3.31,3.31,0,0,1-1,1,2,2,0,0,1-1.27.29A3.74,3.74,0,0,1,121.94,401.25Z" fill="#2f292a"/>
          </g>
          <g>
            <path d="M152.4,416.69l-.27-.12-.24-.13-.2-.12.47-1,.2.12.16.07a.83.83,0,0,0,.83-.11,3,3,0,0,0,.79-1c.28-.48.59-1.12,1-1.89l.67-1.51.68-1.5,5.11,2-.46,1.21c-.16.4-.32.83-.51,1.31l-1,2.54c-.18.47-.34.9-.49,1.28l-.46,1.2-1.24-.48.46-1.2c.15-.38.31-.81.49-1.28l.91-2.35.5-1.31.47-1.21.3,1.1-4-1.54,1-.54-.72,1.57-.76,1.63c-.31.67-.59,1.25-.85,1.74a6.33,6.33,0,0,1-.79,1.18,1.64,1.64,0,0,1-.87.54A1.87,1.87,0,0,1,152.4,416.69Z" fill="#2f292a"/>
            <path d="M160.4,419.65c.14-.43.28-.83.4-1.23s.28-.82.43-1.3l.85-2.58.43-1.34.41-1.24,1.27.42-.41,1.24-.44,1.33-.84,2.59c-.16.47-.3.91-.43,1.3l-.4,1.22Zm2-3.06.35-1.07,2.52.82-.35,1.07Zm4.5,5.32a4.54,4.54,0,0,1-1.63-.89,3.31,3.31,0,0,1-.92-1.27,3.78,3.78,0,0,1-.29-1.5,4.9,4.9,0,0,1,.26-1.59,4.82,4.82,0,0,1,.76-1.48,3.85,3.85,0,0,1,1.14-1,3.37,3.37,0,0,1,1.48-.45,4.91,4.91,0,0,1,3.34,1.1,3.53,3.53,0,0,1,.94,1.25,3.82,3.82,0,0,1,.33,1.51,4.91,4.91,0,0,1-.26,1.63,4.71,4.71,0,0,1-1.13,1.89,3.62,3.62,0,0,1-1.78,1A4.07,4.07,0,0,1,166.87,421.91Zm.33-1.08a2.57,2.57,0,0,0,1.2.14,2.35,2.35,0,0,0,1-.39,2.89,2.89,0,0,0,.78-.78,4.37,4.37,0,0,0,.51-1,4.33,4.33,0,0,0,.21-1.2,2.92,2.92,0,0,0-.19-1.08,2.34,2.34,0,0,0-.6-.89,2.85,2.85,0,0,0-1-.58,2.76,2.76,0,0,0-1.21-.14,2.42,2.42,0,0,0-1,.38,2.73,2.73,0,0,0-.77.78,3.61,3.61,0,0,0-.52,1.06,4.25,4.25,0,0,0-.22,1.15,2.78,2.78,0,0,0,.17,1.08,2.31,2.31,0,0,0,.59.91A2.7,2.7,0,0,0,167.2,420.83Z" fill="#2f292a"/>
            <path d="M174.89,424.14l-1.49-.41-1.26-.35c.11-.43.23-.84.34-1.24l.36-1.32.73-2.63c.09-.33.17-.64.25-.92s.15-.57.23-.84.15-.56.23-.85l5.14,1.42-.31,1.13-1.23-.34-1.55-.42-1.84-.51,1-.73-.35,1.25c-.11.41-.23.86-.37,1.36l-.61,2.22-.25.88c-.07.28-.15.56-.23.84L175,423a3.41,3.41,0,0,0,1,.14,1.17,1.17,0,0,0,.72-.26,1.47,1.47,0,0,0,.45-.78,1.25,1.25,0,0,0,0-.71,1,1,0,0,0-.28-.47,1.34,1.34,0,0,0-.45-.29,3,3,0,0,0-.46-.17l-1.7-.47.29-1,.77.22,1,.28a4.16,4.16,0,0,1,1.45.65,1.77,1.77,0,0,1,.69,1,2.67,2.67,0,0,1-.07,1.44,2.81,2.81,0,0,1-.6,1.15,1.93,1.93,0,0,1-1.12.58A4.14,4.14,0,0,1,174.89,424.14Z" fill="#2f292a"/>
            <path d="M182.65,426.25a4.79,4.79,0,0,1-1.71-.74,3.81,3.81,0,0,1-1.05-1.19,4,4,0,0,1-.44-1.48,4.9,4.9,0,0,1,.11-1.61,4.77,4.77,0,0,1,.94-2,3.57,3.57,0,0,1,1.7-1.15,4.18,4.18,0,0,1,2.31,0,4.42,4.42,0,0,1,1.66.72,3.54,3.54,0,0,1,1.05,1.17,3.89,3.89,0,0,1,.46,1.47,5.16,5.16,0,0,1-.12,1.65,4.69,4.69,0,0,1-.95,2,3.52,3.52,0,0,1-1.69,1.14A4.23,4.23,0,0,1,182.65,426.25Zm.23-1.1a2.86,2.86,0,0,0,1.23,0,2.41,2.41,0,0,0,1-.47,3,3,0,0,0,.71-.85,4.24,4.24,0,0,0,.41-1.08,3.9,3.9,0,0,0,.11-1.21,2.93,2.93,0,0,0-.29-1.07,2.35,2.35,0,0,0-.68-.83,3.08,3.08,0,0,0-2.3-.53,2.41,2.41,0,0,0-1,.47,3,3,0,0,0-.73.84,4.11,4.11,0,0,0-.53,2.26,2.73,2.73,0,0,0,.27,1.07,2.31,2.31,0,0,0,.68.85A2.77,2.77,0,0,0,182.88,425.15Z" fill="#2f292a"/>
            <path d="M190.61,427.79l-1.06-.2-.87-.17-.66-.12c.09-.44.17-.86.24-1.27s.17-.85.26-1.34L189,422c.09-.5.18-1,.26-1.37s.16-.85.25-1.28l1.43.27,1.59.3a5.83,5.83,0,0,1,1.23.37,2.32,2.32,0,0,1,.75.53,1.55,1.55,0,0,1,.35.67,2,2,0,0,1,0,.8,2,2,0,0,1-.35.85,1.66,1.66,0,0,1-.63.52,2.13,2.13,0,0,1-.79.23l0,.12a2.67,2.67,0,0,1,.74.45,1.64,1.64,0,0,1,.48.72,2.07,2.07,0,0,1,0,1,2.36,2.36,0,0,1-.33.85,1.67,1.67,0,0,1-.66.6,2.82,2.82,0,0,1-1.1.27A7.36,7.36,0,0,1,190.61,427.79Zm-1.1-1.31,1.42.27a3.21,3.21,0,0,0,1.09.05,1.14,1.14,0,0,0,.67-.31,1.19,1.19,0,0,0,.32-.63,1,1,0,0,0-.28-1,2.39,2.39,0,0,0-1.21-.52l-1.85-.35.2-1,1.82.35a2,2,0,0,0,.91,0,1.14,1.14,0,0,0,.59-.36,1.2,1.2,0,0,0,.28-.59,1,1,0,0,0-.2-.91,1.8,1.8,0,0,0-1-.47l-1.65-.32c-.05.3-.11.6-.17.89s-.12.63-.18,1l-.41,2.12c-.06.35-.12.67-.18.95S189.56,426.19,189.51,426.48Z" fill="#2f292a"/>
            <path d="M198.09,429.08l-1.53-.24-1.3-.2c.07-.44.14-.86.2-1.27s.13-.86.21-1.36l.41-2.69q.12-.75.21-1.38c.07-.42.13-.85.2-1.29l1.3.2c-.07.44-.13.87-.2,1.29s-.13.88-.21,1.38L197,426c-.05.32-.1.62-.14.9s-.09.58-.13.87l1.29.2a2.82,2.82,0,0,0,1,0,1.11,1.11,0,0,0,.67-.39,1.8,1.8,0,0,0,.33-.84,1.57,1.57,0,0,0,0-.73,1.06,1.06,0,0,0-.3-.46,1.63,1.63,0,0,0-.47-.25,3.41,3.41,0,0,0-.53-.13L197,424.9l.17-1.07.79.12,1,.16a4.32,4.32,0,0,1,1.52.48,1.81,1.81,0,0,1,.8.91,2.71,2.71,0,0,1,.1,1.45,3.21,3.21,0,0,1-.48,1.29,2,2,0,0,1-1.06.77A3.78,3.78,0,0,1,198.09,429.08Z" fill="#2f292a"/>
          </g>
          <g>
            <path d="M253.54,430a6.49,6.49,0,0,1-.77,0,5.87,5.87,0,0,1-.74,0,6.25,6.25,0,0,1-.67-.11,4.15,4.15,0,0,1-.52-.15l-.05-1.19.62.2a6,6,0,0,0,.61.14,4.3,4.3,0,0,0,.61.05,3,3,0,0,0,.6,0,2.32,2.32,0,0,0,1-.3,1,1,0,0,0,.48-.54,1.32,1.32,0,0,0,.08-.69,1,1,0,0,0-.6-.9,3.08,3.08,0,0,0-1.45-.1l-.49.06-.44.06-.13-1,.37-.05.45-.05a2.55,2.55,0,0,0,1-.32,1.24,1.24,0,0,0,.52-.55,1.17,1.17,0,0,0,.11-.66,1,1,0,0,0-.31-.66,1.44,1.44,0,0,0-.63-.31,2.71,2.71,0,0,0-.81,0,3.46,3.46,0,0,0-.52.11,4.24,4.24,0,0,0-.52.2,3.92,3.92,0,0,0-.54.33,4.3,4.3,0,0,0-.56.44l-.31-1.18c.14-.11.29-.22.46-.33a5,5,0,0,1,.57-.31,6,6,0,0,1,.68-.24,4.53,4.53,0,0,1,.75-.15,4.28,4.28,0,0,1,1.54.06,2.15,2.15,0,0,1,1.05.58,1.76,1.76,0,0,1,.47,1,1.83,1.83,0,0,1-.27,1.29,2.14,2.14,0,0,1-.95.78v.11a2.65,2.65,0,0,1,.84.2,1.7,1.7,0,0,1,.7.53,2.16,2.16,0,0,1,.37,1,2.48,2.48,0,0,1-.14,1.18,2.1,2.1,0,0,1-.8,1A4,4,0,0,1,253.54,430Z" fill="#2f292a"/>
            <path d="M257.24,431.16l-.12-.69c0-.23-.07-.46-.11-.7l-.12-.72c0-.24-.08-.48-.11-.72l1.47-.24,1.45-.23,2.6-.43,1.46-.24,1.47-.24.12.72c0,.25.08.49.11.73l.12.69c0,.23.07.46.11.69l-1.11.18-.39-1.91.3.17-6.62,1.08.24-.26.24,1.94Zm5.79-2.92c-.07-.43-.14-.86-.2-1.27s-.14-.86-.22-1.35l-.38-2.29c-.08-.5-.15-1-.22-1.37s-.14-.85-.21-1.29l.59.84-4,.65.52-.94.15,1.5c0,.51.1,1,.15,1.51a14.56,14.56,0,0,1,.08,1.65,5.2,5.2,0,0,1-.16,1.25,3.78,3.78,0,0,1-.42,1l-1.29.07a3.48,3.48,0,0,0,.42-.91,5.61,5.61,0,0,0,.21-1.31,14.13,14.13,0,0,0-.07-1.87c-.06-.53-.11-1-.16-1.56s-.1-1-.15-1.46l5.38-.88q.1.67.21,1.29c.07.42.14.88.23,1.38l.4,2.48c.08.5.15,1,.22,1.36s.14.83.21,1.27Z" fill="#2f292a"/>
            <path d="M270.35,427.18a4.54,4.54,0,0,1-1.86.05,3.53,3.53,0,0,1-1.45-.63,3.79,3.79,0,0,1-1-1.15,5.09,5.09,0,0,1-.58-1.51,4.66,4.66,0,0,1,0-2.17,3.62,3.62,0,0,1,1.05-1.76,4.2,4.2,0,0,1,2.08-1,4.46,4.46,0,0,1,1.81-.05,3.57,3.57,0,0,1,1.44.61,3.82,3.82,0,0,1,1,1.15,5.08,5.08,0,0,1,.59,1.54,4.79,4.79,0,0,1,0,2.2,3.64,3.64,0,0,1-1.05,1.75A4.15,4.15,0,0,1,270.35,427.18Zm-.26-1.09a2.84,2.84,0,0,0,1.14-.49,2.41,2.41,0,0,0,.68-.84,2.93,2.93,0,0,0,.29-1.06,4.15,4.15,0,0,0-.08-1.16,4.07,4.07,0,0,0-.42-1.14,3,3,0,0,0-.71-.85,2.4,2.4,0,0,0-1-.47,3,3,0,0,0-2.32.5,2.38,2.38,0,0,0-.69.83,2.8,2.8,0,0,0-.3,1.07,4,4,0,0,0,.07,1.18,4,4,0,0,0,.4,1.1,2.75,2.75,0,0,0,.69.85,2.33,2.33,0,0,0,1,.49A2.69,2.69,0,0,0,270.09,426.09Z" fill="#2f292a"/>
            <path d="M275.77,425.84c-.11-.43-.21-.85-.31-1.25s-.22-.84-.34-1.33l-.67-2.64c-.13-.49-.24-.94-.34-1.35s-.22-.83-.32-1.27l1.2-.3,1.7-.43a4.14,4.14,0,0,1,1.58-.15,1.78,1.78,0,0,1,1.1.52,2.68,2.68,0,0,1,.64,1.26,3.11,3.11,0,0,1,.07,1.38,2.06,2.06,0,0,1-.67,1.12,3.8,3.8,0,0,1-1.59.75l-.58.14-.61.16-.51.13-.27-1.05,1.43-.37a2.81,2.81,0,0,0,1-.4,1.18,1.18,0,0,0,.47-.62,1.74,1.74,0,0,0,0-.9,1.46,1.46,0,0,0-.31-.65,1,1,0,0,0-.46-.29,1.54,1.54,0,0,0-.53-.05,4.18,4.18,0,0,0-.53.09l-2.17.55.41-1c.11.43.22.85.32,1.26s.22.86.34,1.36l.62,2.44c.13.49.24.93.34,1.33s.21.81.32,1.25Z" fill="#2f292a"/>
            <path d="M286.35,423.12a4.6,4.6,0,0,1-1.86.21,3.71,3.71,0,0,1-1.5-.51,3.77,3.77,0,0,1-1.11-1.07,4.76,4.76,0,0,1-.7-1.45,4.5,4.5,0,0,1-.15-2.17,3.59,3.59,0,0,1,.9-1.84,4.25,4.25,0,0,1,2-1.18,4.62,4.62,0,0,1,1.8-.2,3.56,3.56,0,0,1,1.49.5,3.86,3.86,0,0,1,1.12,1,5,5,0,0,1,.72,1.49,4.64,4.64,0,0,1,.15,2.2,3.53,3.53,0,0,1-.9,1.82A4.15,4.15,0,0,1,286.35,423.12Zm-.35-1.06a2.77,2.77,0,0,0,1.09-.59,2.26,2.26,0,0,0,.61-.89,3,3,0,0,0,.2-1.08,4.27,4.27,0,0,0-.69-2.25,2.9,2.9,0,0,0-.77-.79,2.34,2.34,0,0,0-1-.38,2.75,2.75,0,0,0-1.19.1,2.67,2.67,0,0,0-1.07.58,2.41,2.41,0,0,0-.63.89,2.82,2.82,0,0,0-.21,1.09,3.63,3.63,0,0,0,.17,1.16A3.87,3.87,0,0,0,283,421a2.86,2.86,0,0,0,.76.79,2.32,2.32,0,0,0,1,.41A2.8,2.8,0,0,0,286,422.06Z" fill="#2f292a"/>
            <path d="M294.09,420.51l-1,.35-.85.29-.63.21-.41-1.22c-.14-.38-.29-.82-.45-1.29l-.88-2.58-.46-1.32c-.13-.4-.28-.81-.42-1.24l1.38-.47,1.54-.53a5.24,5.24,0,0,1,1.24-.28,2.41,2.41,0,0,1,.92.08,1.52,1.52,0,0,1,.63.42,1.86,1.86,0,0,1,.39.69,2,2,0,0,1,.12.91,1.72,1.72,0,0,1-.29.77,2.17,2.17,0,0,1-.58.59l0,.11a2.6,2.6,0,0,1,.88,0,1.57,1.57,0,0,1,.76.38,2.18,2.18,0,0,1,.55.88,2.42,2.42,0,0,1,.13.91,1.62,1.62,0,0,1-.28.85,2.67,2.67,0,0,1-.82.77A7.22,7.22,0,0,1,294.09,420.51Zm-1.61-.6,1.36-.46a3.3,3.3,0,0,0,1-.5,1.13,1.13,0,0,0,.43-.61,1.21,1.21,0,0,0,0-.7,1,1,0,0,0-.74-.73,2.41,2.41,0,0,0-1.3.15l-1.78.61-.34-1,1.75-.6a2.11,2.11,0,0,0,.79-.45,1.31,1.31,0,0,0,.34-.6,1.35,1.35,0,0,0-.05-.66,1.05,1.05,0,0,0-.62-.69,1.88,1.88,0,0,0-1.12.09l-1.59.55.3.85c.1.29.21.61.32.95l.7,2,.32.92C292.28,419.36,292.38,419.64,292.48,419.91Z" fill="#2f292a"/>
            <path d="M301.26,417.9l-1.45.55-1.22.47c-.16-.42-.31-.82-.46-1.2l-.49-1.28-1-2.54-.5-1.31-.47-1.22,1.23-.47c.16.42.31.82.47,1.22s.31.83.5,1.31l.9,2.34.32.85c.11.27.21.54.32.82l1.22-.47a3.14,3.14,0,0,0,.92-.52,1.15,1.15,0,0,0,.38-.67,1.74,1.74,0,0,0-.13-.89,1.58,1.58,0,0,0-.39-.62.92.92,0,0,0-.49-.25,1.35,1.35,0,0,0-.53,0,4,4,0,0,0-.52.15l-1.65.63-.39-1,.76-.29,1-.37a4.36,4.36,0,0,1,1.55-.34,1.81,1.81,0,0,1,1.16.39,2.8,2.8,0,0,1,.79,1.21,3.07,3.07,0,0,1,.23,1.36,2,2,0,0,1-.53,1.2A3.93,3.93,0,0,1,301.26,417.9Z" fill="#2f292a"/>
            <path d="M305.25,416.33c-.17-.42-.34-.81-.5-1.19l-.54-1.26-1.06-2.51-.55-1.29q-.24-.58-.51-1.2l4.74-2,.44,1-1.08.46-1.37.58-1.77.75.32-1.14q.27.62.51,1.2l.55,1.29.9,2.13.54,1.26.5,1.19-1-.59,1.8-.76,1.25-.53,1.13-.48.44,1Zm-.46-3.67-.42-1,1.42-.6,1.21-.52,1-.42.42,1-1,.43-1.21.51Z" fill="#2f292a"/>
          </g>
          <g>
            <path d="M345.64,394.36c-.26-.37-.51-.71-.76-1.05l-.8-1.1-1.61-2.2-.82-1.13-.77-1.06,1.05-.76.77,1.05.83,1.14,1.84,2.53.08-.06-.05-2.79c0-.69,0-1.39,0-2.11s0-1.46,0-2.23l.92-.67L347,385c.25.34.53.71.83,1.13l1.6,2.2c.3.41.57.77.81,1.11l.76,1-1.05.76-.76-1-.81-1.11-1.87-2.57-.08.05,0,2.79c0,.85,0,1.62.05,2.33s0,1.38,0,2Z" fill="#2f292a"/>
            <path d="M355.51,387.09a4.77,4.77,0,0,1-1.56.84,3.72,3.72,0,0,1-1.58.14,3.82,3.82,0,0,1-1.47-.52,4.85,4.85,0,0,1-1.27-1.14,4.66,4.66,0,0,1-1-2,3.69,3.69,0,0,1,.18-2,4.08,4.08,0,0,1,1.35-1.75,4.62,4.62,0,0,1,.64-.45l.66-.33a5.92,5.92,0,0,1,.62-.23,3.71,3.71,0,0,1,.55-.14l.7,1.06a5.21,5.21,0,0,0-.94.19,4.53,4.53,0,0,0-.78.31,3.69,3.69,0,0,0-.64.41,2.83,2.83,0,0,0-.9,1.18,2.48,2.48,0,0,0-.12,1.43,3.48,3.48,0,0,0,.73,1.5,3.54,3.54,0,0,0,.88.81,2.88,2.88,0,0,0,1,.42,2.6,2.6,0,0,0,1.14,0,3.34,3.34,0,0,0,1.16-.61,5.14,5.14,0,0,0,.42-.38c.13-.14.25-.29.37-.44a3.72,3.72,0,0,0,.3-.52,4.53,4.53,0,0,0,.22-.59l.85.93a4.2,4.2,0,0,1-.26.52,4.49,4.49,0,0,1-.37.52c-.14.17-.29.33-.45.49Z" fill="#2f292a"/>
            <path d="M358.55,384.46l-.84-1c-.26-.32-.56-.66-.89-1l-1.77-2.07-.91-1.06-.85-1,1-.87.85,1,.91,1.07,1.77,2.06.89,1.05.84,1Zm3.67-3.15-1.38-.22-1.26-.2-2.08-.34-.41.35-.7-.81.4-.35,0-1.79,0-1.26c0-.41,0-.89,0-1.45l1.2-1c0,.58,0,1.15-.06,1.7s0,1.11,0,1.67l-.06,2.11-.4-.43,2.42.4,1.2.2,1.25.2,1.08.18Z" fill="#2f292a"/>
            <path d="M365.27,378.59c-.11-.36-.23-.73-.34-1.11s-.25-.77-.38-1.19l-3.75-1.4-1.17-.44-1.27-.48,1.1-1,.89.37.73.31.68.28.73.3,1.67.69.08-.08-.57-1.67c-.09-.28-.18-.53-.26-.77l-.24-.7-.26-.74q-.14-.39-.3-.9l1.06-1c.16.52.32,1.06.5,1.62s.33,1.07.47,1.54l.84,2.7.42,1.34c.15.47.29.93.42,1.36Z" fill="#2f292a"/>
            <path d="M372.79,371.57a4.58,4.58,0,0,1-1.45,1,3.72,3.72,0,0,1-1.55.32,4,4,0,0,1-1.53-.35,4.94,4.94,0,0,1-1.39-1,4.56,4.56,0,0,1-1.17-1.88,3.63,3.63,0,0,1-.06-2,4.06,4.06,0,0,1,1.13-1.9c.19-.18.39-.35.59-.51a4.66,4.66,0,0,1,.62-.4c.2-.12.4-.22.59-.31a4,4,0,0,1,.53-.2l.81,1a5.27,5.27,0,0,0-.9.3,4.3,4.3,0,0,0-.74.4,4.21,4.21,0,0,0-.6.48,2.74,2.74,0,0,0-.75,1.27,2.53,2.53,0,0,0,0,1.44,3.35,3.35,0,0,0,.9,1.4,3.62,3.62,0,0,0,1,.71,3,3,0,0,0,1.08.3,2.64,2.64,0,0,0,1.13-.19,3.23,3.23,0,0,0,1.08-.73c.13-.14.25-.28.37-.43a3.94,3.94,0,0,0,.31-.48,3.32,3.32,0,0,0,.25-.54,6,6,0,0,0,.15-.61l.94.81a3.08,3.08,0,0,1-.19.56,4.29,4.29,0,0,1-.31.55,3.87,3.87,0,0,1-.39.54A5.23,5.23,0,0,1,372.79,371.57Z" fill="#2f292a"/>
            <path d="M378.2,365.92a4.7,4.7,0,0,1-1.42,1.07,3.83,3.83,0,0,1-1.53.38,3.94,3.94,0,0,1-1.54-.29,4.88,4.88,0,0,1-1.43-.93,4.58,4.58,0,0,1-1.25-1.84,3.64,3.64,0,0,1-.13-2,4.06,4.06,0,0,1,1.05-1.93,4.81,4.81,0,0,1,.57-.54c.2-.16.4-.3.6-.43l.58-.33a3.63,3.63,0,0,1,.53-.21l.84.93a7.58,7.58,0,0,0-.89.33,5.62,5.62,0,0,0-.73.43,4.7,4.7,0,0,0-.57.51,2.73,2.73,0,0,0-.7,1.3,2.51,2.51,0,0,0,.09,1.43,3.51,3.51,0,0,0,1,1.37,3.81,3.81,0,0,0,1,.67,2.75,2.75,0,0,0,1.09.25,2.45,2.45,0,0,0,1.11-.22,3.41,3.41,0,0,0,1.05-.78,4.19,4.19,0,0,0,.66-.93,4.66,4.66,0,0,0,.22-.56,5.47,5.47,0,0,0,.13-.61l1,.78a4.43,4.43,0,0,1-.17.56,3.83,3.83,0,0,1-.29.57q-.17.27-.36.54C378.49,365.58,378.35,365.75,378.2,365.92Z" fill="#2f292a"/>
            <path d="M382.18,361.24l-1-.84-1-.89-1.91-1.65-1.06-.91-1-.84,1.07.24-.65.76-.77.9-.64.74-.89-.76,4.31-5,.89.76-.63.74-.78.91-.65.76-.4-1,1,.85,1.06.91L381,358.5l1,.89,1,.84Z" fill="#2f292a"/>
            <path d="M387.24,355.14l-.68.85-.55.7-.42.52-1-.8-1.08-.86-2.13-1.7-1.09-.87-1-.81.91-1.14,1-1.27a4.85,4.85,0,0,1,.9-.91,2.14,2.14,0,0,1,.82-.42,1.46,1.46,0,0,1,.75,0,1.76,1.76,0,0,1,.7.37,2,2,0,0,1,.59.71,1.86,1.86,0,0,1,.18.79,2.27,2.27,0,0,1-.18.81l.1.08a2.63,2.63,0,0,1,.75-.45,1.74,1.74,0,0,1,.85-.09,2,2,0,0,1,.93.46,2.43,2.43,0,0,1,.61.68,1.7,1.7,0,0,1,.21.87,2.66,2.66,0,0,1-.28,1.1A7,7,0,0,1,387.24,355.14Zm-1.68.37.9-1.13a3.34,3.34,0,0,0,.56-.94,1.19,1.19,0,0,0,0-.74,1.08,1.08,0,0,0-.41-.57,1,1,0,0,0-1-.22,2.31,2.31,0,0,0-1,.82l-1.18,1.47-.81-.65,1.15-1.44a2.14,2.14,0,0,0,.43-.81,1.22,1.22,0,0,0,0-.69,1.35,1.35,0,0,0-.4-.52,1,1,0,0,0-.89-.25,1.71,1.71,0,0,0-.89.67l-1.05,1.32.71.56.78.62,1.69,1.35.76.6Z" fill="#2f292a"/>
            <path d="M392.43,348.57a4.62,4.62,0,0,1-1.35,1.28,3.46,3.46,0,0,1-1.51.5,3.82,3.82,0,0,1-1.53-.17,4.89,4.89,0,0,1-1.44-.73,4.63,4.63,0,0,1-1.43-1.64,3.59,3.59,0,0,1-.4-2,4.17,4.17,0,0,1,.88-2.14,4.53,4.53,0,0,1,1.31-1.25,3.61,3.61,0,0,1,1.49-.5,3.81,3.81,0,0,1,1.53.15,4.91,4.91,0,0,1,1.47.76,4.61,4.61,0,0,1,1.45,1.65,3.64,3.64,0,0,1,.39,2A4.19,4.19,0,0,1,392.43,348.57Zm-.92-.64a2.86,2.86,0,0,0,.51-1.12,2.35,2.35,0,0,0,0-1.09,3,3,0,0,0-.5-1,4.26,4.26,0,0,0-.83-.81,4,4,0,0,0-1.08-.56,2.75,2.75,0,0,0-1.09-.16,2.4,2.4,0,0,0-1,.3,3,3,0,0,0-1.39,1.91,2.5,2.5,0,0,0,0,1.09,3.05,3.05,0,0,0,.49,1,4,4,0,0,0,1.88,1.38,2.72,2.72,0,0,0,1.08.17,2.3,2.3,0,0,0,1-.29A2.85,2.85,0,0,0,391.51,347.93Z" fill="#2f292a"/>
          </g>
          <g>
            <path d="M420.17,295.79a4.43,4.43,0,0,1-.87,1.54,3.85,3.85,0,0,1-1.26,1,4,4,0,0,1-1.53.34,4.8,4.8,0,0,1-1.68-.29,4.53,4.53,0,0,1-1.87-1.19,3.61,3.61,0,0,1-.93-1.82,4.12,4.12,0,0,1,.2-2.2,6.6,6.6,0,0,1,.31-.71,4.81,4.81,0,0,1,.39-.63,6.32,6.32,0,0,1,.4-.54,3.76,3.76,0,0,1,.4-.4l1.14.52a7.33,7.33,0,0,0-.69.66,4.3,4.3,0,0,0-.49.68,3.61,3.61,0,0,0-.33.69,2.89,2.89,0,0,0-.14,1.47,2.51,2.51,0,0,0,.66,1.28,3.44,3.44,0,0,0,1.41.88,3.56,3.56,0,0,0,1.18.22,2.69,2.69,0,0,0,1.1-.19,2.57,2.57,0,0,0,.94-.65,3.34,3.34,0,0,0,.66-1.13,4.94,4.94,0,0,0,.15-.55,3.43,3.43,0,0,0,.08-.56,3,3,0,0,0,0-.6,3.56,3.56,0,0,0-.12-.62l1.2.33a2.81,2.81,0,0,1,.06.59,3.33,3.33,0,0,1,0,.63c0,.22-.07.43-.12.65S420.25,295.58,420.17,295.79Z" fill="#2f292a"/>
            <path d="M421.33,292l-1.23-.39-1.31-.41-2.6-.82-1.33-.42-1.24-.39,1.55-4.91,1.07.34-.36,1.12c-.12.4-.27.87-.44,1.42l-.58,1.83-.66-1,1.25.39,1.33.42,2.21.7,1.3.41,1.24.39-1.08.35.59-1.86.41-1.29c.12-.41.25-.8.36-1.17l1.07.34Zm-3.08-2-1-.32.47-1.47c.15-.49.28-.91.4-1.26s.21-.69.32-1l1,.33c-.11.34-.22.68-.33,1l-.39,1.24Z" fill="#2f292a"/>
            <path d="M423.29,285.86l-1.21-.49-1.29-.52-2.5-1-1.3-.53-1.25-.51.35-1.29,1.65-.21,1.58-.19,3.09-.37,0-.1-2.5-1.85-1.26-.95-1.34-1,.35-1.28,1.33.18,1.39.2,2.7.38,1.35.18,1.29.19-.33,1.22-1.88-.27-1.67-.24-2.22-.31,0,.09,2.09,1.5,1.51,1.1,1.43,1-.24.86-1.12.13-1.24.14-1.25.15-2.58.3,0,.09,2.08.83,1.57.64,1.76.71Z" fill="#2f292a"/>
            <path d="M426.7,272.35c-.12.56-.23,1.06-.33,1.51l-.29,1.28-1.25-.28-1.34-.3-2.66-.59-1.36-.3-1.28-.28.29-1.29,1.27.29,1.37.3,2.45.54.89.2.85.19.29-1.27a3.1,3.1,0,0,0,.07-1.06,1.15,1.15,0,0,0-.35-.69,1.7,1.7,0,0,0-.81-.38,1.52,1.52,0,0,0-.73,0,1,1,0,0,0-.48.27,1.31,1.31,0,0,0-.28.45,3.93,3.93,0,0,0-.17.52l-.38,1.72-1.06-.24c0-.22.11-.48.17-.78s.15-.64.23-1a4.35,4.35,0,0,1,.58-1.48,1.85,1.85,0,0,1,1-.75,2.84,2.84,0,0,1,1.45,0,3.17,3.17,0,0,1,1.26.56,2,2,0,0,1,.7,1.1A3.81,3.81,0,0,1,426.7,272.35Z" fill="#2f292a"/>
            <path d="M427.5,268.76l-.61-.65-.7-.75-.67-.73-1.36-1.48.62-.3a3.69,3.69,0,0,1-.42,1.23,2.22,2.22,0,0,1-.68.74,2.14,2.14,0,0,1-.85.32,3.12,3.12,0,0,1-1,0,2.39,2.39,0,0,1-1.24-.56,1.91,1.91,0,0,1-.53-1.08,5,5,0,0,1,.08-1.6c.07-.37.13-.74.2-1.09s.13-.69.18-1,.11-.57.15-.8l1.28.24,1.38.26L426,262l1.35.25,1.27.23-.24,1.3-1.27-.24-1.35-.25-2.47-.45-1.38-.26-1.28-.23,1-.53-.41,2.22a4.52,4.52,0,0,0-.06.53,1.59,1.59,0,0,0,.08.53.91.91,0,0,0,.31.43,1.53,1.53,0,0,0,.68.27,1.34,1.34,0,0,0,1.22-.24,2.29,2.29,0,0,0,.58-1.3l.28-1.48,1.06.19-.34,1.87-.53-.94,1.66,1.74.76.81.82.86Z" fill="#2f292a"/>
          </g>
        </g>
      </g>
      <g opacity="0.33" style="mix-blend-mode: luminosity">
        <path d="M377,242.7l-22.79,22.73,2.39,2.39,2.13-2.13v19.2h14.95V268.28h6.64v16.61h14.95v-19.2l2.12,2.13,2.39-2.39Zm0,4.72,14.94,15v19.2h-8.3V265H370.37v16.61h-8.31V262.36Z"/>
        <path d="M359,317.4a6.2,6.2,0,0,0-4.37,1.83L329.45,344a6.82,6.82,0,0,0-3.84,2.12c-1.58,1.72-1.88,3.82-2.48,6.08a24.1,24.1,0,0,1-3.19,7.56l-1.89,3h3.48a20.63,20.63,0,0,0,14.77-6l.06-.06a7.5,7.5,0,0,0,2-4.13L363.29,328v-.06a6.15,6.15,0,0,0,0-8.68A6.09,6.09,0,0,0,359,317.4Zm0,3.72a2.34,2.34,0,0,1,1.65.77,2.25,2.25,0,0,1,0,3.37l-17.07,16.88-3.42-3.42,17.12-16.83A2.47,2.47,0,0,1,359,321.12Zm-21.56,20.26,3.42,3.42L338,347.58l-3.43-3.43Zm-6.49,6.26a4.33,4.33,0,0,1,2.77,1.12,3.59,3.59,0,0,1-.06,5.25,16.8,16.8,0,0,1-8.8,4.55,33.6,33.6,0,0,0,2-5.37c.63-2.37,1.09-4,1.6-4.55A3.21,3.21,0,0,1,330.93,347.64Z"/>
        <path d="M260.16,361.22c-7.42,0-13.46,5.71-13.46,12.73,0,.38,0,.74.06,1.11h3.47c0-.36-.07-.73-.07-1.11,0-5.11,4.49-9.27,10-9.27a10.43,10.43,0,0,1,6.78,2.45l2.25,1.93,2.25-1.93a10.41,10.41,0,0,1,6.78-2.45c5.51,0,10,4.16,10,9.27,0,8.86-8.34,14.12-15.05,18.34-1.54,1-2.88,1.81-4,2.61-1.09-.8-2.44-1.65-4-2.61a60.53,60.53,0,0,1-9.44-6.85h-4.7c3.43,4.17,8.28,7.25,12.3,9.78,1.68,1.06,3.13,2,4.16,2.77l1.65,1.29,1.65-1.29c1-.8,2.48-1.71,4.16-2.77,7.05-4.42,16.68-10.5,16.68-21.27,0-7-6-12.73-13.46-12.73a13.89,13.89,0,0,0-9,3.28A13.89,13.89,0,0,0,260.16,361.22Zm2.06,7.59-4,10.09-.38-.38H246.7V382h9.66l3.08,3.08,2.88-7.21L267.51,390,271.1,381l.48,1h3.27a3.46,3.46,0,1,0,0-3.46h-1.13l-3-5.95-3.33,8.35Z"/>
        <path d="M178.68,360.18A11.72,11.72,0,0,0,167,371.85a10.15,10.15,0,0,0,1.94,5.54,14.36,14.36,0,0,0,1.9,2.29l17.94,18,17.94-18s3.84-3.39,3.84-7.83a11.72,11.72,0,0,0-11.67-11.67,14.16,14.16,0,0,0-10.11,4.57A14.16,14.16,0,0,0,178.68,360.18Zm0,3.11c4.64,0,8.94,4.52,8.94,4.52l1.17,1.32,1.17-1.32s4.29-4.52,8.94-4.52a8.58,8.58,0,0,1,8.56,8.56c0,2.4-2.92,5.64-2.92,5.64l-15.75,15.75L173,377.49a12,12,0,0,1-1.5-1.85,7.49,7.49,0,0,1-1.41-3.79A8.58,8.58,0,0,1,178.68,363.29Z"/>
        <path d="M120.35,313.18a21.8,21.8,0,1,0,10.89,40.65l-2.42-2.49a18.23,18.23,0,0,1-8.47,2.08A18.44,18.44,0,1,1,138.79,335s0,.09,0,.13a7.75,7.75,0,0,1,3.29,1.32c0-.48.07-1,.07-1.45A21.82,21.82,0,0,0,120.35,313.18Zm-7.55,15.09a2.52,2.52,0,1,0,2.52,2.52A2.51,2.51,0,0,0,112.8,328.27Zm14.25,0a10.58,10.58,0,0,0-6,2l2,2.66a6.71,6.71,0,0,1,8,0l2.05-2.66A10.63,10.63,0,0,0,127.05,328.27Zm-8.38,8.4v2.5c1.51,0,2.48.69,2.48,1.06s-1,1-2.46,1h0v2.5h0c1.5,0,2.46.7,2.46,1.06s-1,1.05-2.48,1.05v2.5c2.8,0,5-1.56,5-3.55a3.06,3.06,0,0,0-1.19-2.31,3,3,0,0,0,1.19-2.3C123.66,338.23,121.47,336.67,118.67,336.67Zm13,1.66a4.69,4.69,0,0,0-4.61,4.7,4.61,4.61,0,0,0,1.46,3.18l6.09,6.26,6.1-6.26a4.17,4.17,0,0,0,1.44-3.18,4.68,4.68,0,0,0-4.61-4.7,5.71,5.71,0,0,0-2.93.84A5.75,5.75,0,0,0,131.66,338.33Zm0,3.36a2.41,2.41,0,0,1,1.22.36l1.72,1,1.71-1a2.31,2.31,0,0,1,1.22-.36,1.33,1.33,0,0,1,1.26,1.34c0,.31,0,.36-.49.84l-3.7,3.79-3.69-3.79a1.56,1.56,0,0,1-.5-.84A1.33,1.33,0,0,1,131.66,341.69Z"/>
        <path d="M82.39,245a6.24,6.24,0,0,0-6.24,6.24c0,6.24,10.69,11.58,10.69,11.58s10.69-5.34,10.69-11.58a6.22,6.22,0,0,0-10.69-4.35A6.2,6.2,0,0,0,82.39,245Zm0,3.57a2.63,2.63,0,0,1,1.9.8l.95,1h3.2l1-1A2.67,2.67,0,0,1,94,251.24c0,2.25-3.75,5.48-7.13,7.51-3.38-2-7.13-5.26-7.13-7.51A2.68,2.68,0,0,1,82.39,248.57Zm8.4,16-2.91,2,4.65,6.63-6.42,4.45-4.53-2.35,4.81-2.42h0l0,0a4.45,4.45,0,0,0-3.49-8.11l-12.68,3.53-8.38,5.76,3.37,13.76,9-3.25L87,291.18l21.15-14.65-2-2.92L86.71,287,74.5,280.7l-6.73,2.43-1.84-7.51,5.86-4,12.12-3.38a.88.88,0,0,1,1.1.56s0,0,0,.05a.88.88,0,0,1-.4,1l-10.88,5.47,12.64,6.55,11.12-7.71Z"/>
        <path d="M78.34,169.55,77,176.13a16.89,16.89,0,0,0-4.52,2.67l-6.42-2.18-4.89,8.49,4.95,4.35a16.06,16.06,0,0,0-.33,2.71,17.56,17.56,0,0,0,.33,2.73l-4.95,4.35,4.89,8.48,6.42-2.18A17.05,17.05,0,0,0,77,208.22l1.3,6.58h9.79l1.31-6.58A17,17,0,0,0,94,205.55l6.42,2.18,4.89-8.48-4.94-4.35a17.55,17.55,0,0,0,.32-2.73,16.44,16.44,0,0,0-.33-2.72l5-4.34-4.89-8.49L94,178.8a17,17,0,0,0-4.51-2.67l-1.31-6.58ZM81.17,173H85.3l1.09,5.55,1,.32a14.14,14.14,0,0,1,5.28,3l.76.71,5.38-1.85,2.07,3.53-3.48,3.1-.82.66.27,1a14.21,14.21,0,0,1,0,6.09l-.21,1,4.24,3.76-2.07,3.53-5.38-1.85-.76.71a14.14,14.14,0,0,1-5.28,3l-1,.32-1.09,5.55H81.17l-1.09-5.55-1-.32a14,14,0,0,1-5.27-3l-.76-.71-5.39,1.85L65.62,200l3.48-3.1.81-.66-.27-1a14.18,14.18,0,0,1-.33-3.05,14.59,14.59,0,0,1,.33-3l.27-1-.81-.66-3.48-3.1,2.06-3.53,5.39,1.85.76-.71a14,14,0,0,1,5.27-3l1-.32Zm2.07,10.44a8.71,8.71,0,1,0,8.7,8.7A8.73,8.73,0,0,0,83.24,183.47Zm0,3.48A5.23,5.23,0,1,1,78,192.17,5.2,5.2,0,0,1,83.24,187Z"/>
        <path d="M110.79,106.09a9.34,9.34,0,0,0-5.5,16.9,12.47,12.47,0,0,0-7,11.15h3.11a9.35,9.35,0,0,1,18.7,0h3.12a9.35,9.35,0,0,1,18.7,0h3.11a12.46,12.46,0,0,0-7-11.15,9.35,9.35,0,1,0-11,0,12.54,12.54,0,0,0-5.41,5.11,12.54,12.54,0,0,0-5.41-5.11,9.34,9.34,0,0,0-5.5-16.9Zm0,3.12a6.24,6.24,0,1,1-6.23,6.23A6.21,6.21,0,0,1,110.79,109.21Zm21.82,0a6.24,6.24,0,1,1-6.24,6.23A6.21,6.21,0,0,1,132.61,109.21Z"/>
        <path d="M358.85,176.37a4.91,4.91,0,0,0-4.91,4.91v19.64a4.9,4.9,0,0,0,4.91,4.89H369a8.17,8.17,0,0,1,4.54,1.39l3.34,2.23,3.34-2.23a8.1,8.1,0,0,1,4.54-1.37h10.12a4.92,4.92,0,0,0,4.91-4.91V181.28a4.91,4.91,0,0,0-4.91-4.91H384.73a11.45,11.45,0,0,0-6.35,1.92l-1.53,1-1.53-1a11.47,11.47,0,0,0-6.35-1.92Zm0,3.27H369a8.16,8.16,0,0,1,4.54,1.38l3.34,2.22,3.34-2.23a8.26,8.26,0,0,1,4.54-1.37h10.12a1.64,1.64,0,0,1,1.64,1.64v19.64a1.63,1.63,0,0,1-1.64,1.63H384.73a11.38,11.38,0,0,0-6.35,1.93l-1.53,1-1.53-1a11.4,11.4,0,0,0-6.35-1.93H358.85a1.63,1.63,0,0,1-1.64-1.63V181.28A1.64,1.64,0,0,1,358.85,179.64Zm1.63,6.55v3.27h13.1v-3.27Zm19.64,0v3.27h13.1v-3.27Zm-19.64,6.54V196h13.1v-3.28Zm19.64,0V196h13.1v-3.28Z"/>
        <path d="M261.07,65.49l-2.14,2.85H257.5V66.91h-5.7v1.43h-2.86V94H286V68.34h-10l-2.14-2.85Zm1.43,2.85h10l2.14,2.86h8.57v5.7h-8.3a8.54,8.54,0,0,0-14.8,0H251.8V71.2h8.56Zm15,4.28v2.86h2.85V72.62Zm-10,2.86a5.71,5.71,0,1,1-5.71,5.7A5.68,5.68,0,0,1,267.49,75.48ZM251.8,79.76h7.26a9.37,9.37,0,0,0-.13,1.42,8.56,8.56,0,1,0,17.12,0,9.37,9.37,0,0,0-.13-1.42h7.27V91.17H251.8Z"/>
        <path d="M343.53,103.32a14.87,14.87,0,0,0-6.61,1.37c-1.8.89-3.27,2.34-3.27,4.27v5.65a3.09,3.09,0,0,0,.09.53,17.5,17.5,0,0,0-4.32-.53A15.16,15.16,0,0,0,322.8,116c-1.79.89-3.27,2.35-3.27,4.28v11.29c0,1.93,1.48,3.39,3.27,4.28a16.66,16.66,0,0,0,13.23,0c1.79-.89,3.27-2.35,3.27-4.28V131a16.33,16.33,0,0,0,4.23.57,14.88,14.88,0,0,0,6.62-1.36c1.79-.9,3.27-2.35,3.27-4.28V109c0-1.93-1.48-3.38-3.27-4.27A14.88,14.88,0,0,0,343.53,103.32Zm0,2.82a12.35,12.35,0,0,1,5.34,1.1c1.28.64,1.72,1.32,1.72,1.72s-.44,1.09-1.72,1.73a13.49,13.49,0,0,1-10.67,0c-1.28-.64-1.73-1.32-1.73-1.73s.45-1.08,1.73-1.72A12.3,12.3,0,0,1,343.53,106.14ZM336.47,113c.15.08.29.19.45.26a16.66,16.66,0,0,0,13.23,0,4.64,4.64,0,0,0,.44-.26v1.63c0,.41-.44,1.08-1.72,1.72a13.38,13.38,0,0,1-10.67,0c-1.28-.64-1.73-1.31-1.73-1.72Zm-7.05,4.46a12.3,12.3,0,0,1,5.33,1.1c1.28.64,1.72,1.31,1.72,1.72s-.44,1.08-1.72,1.72a13.49,13.49,0,0,1-10.67,0c-1.28-.64-1.72-1.31-1.72-1.72s.44-1.08,1.72-1.72A12.35,12.35,0,0,1,329.42,117.44Zm21.17,1.19v1.63c0,.41-.44,1.08-1.72,1.72a12.35,12.35,0,0,1-5.34,1.1,13.26,13.26,0,0,1-4.23-.66v-2.16a3.09,3.09,0,0,0-.09-.53,17.27,17.27,0,0,0,4.32.53,15,15,0,0,0,6.62-1.37C350.31,118.81,350.45,118.71,350.59,118.63Zm-28.23,5.64a4.68,4.68,0,0,0,.44.27,16.66,16.66,0,0,0,13.23,0,4.68,4.68,0,0,0,.44-.27v1.64c0,.41-.44,1.08-1.72,1.72a13.49,13.49,0,0,1-10.67,0c-1.28-.64-1.72-1.32-1.72-1.72Zm28.23,0v1.64c0,.41-.44,1.08-1.72,1.72a12.35,12.35,0,0,1-5.34,1.1,13.67,13.67,0,0,1-4.23-.62v-2.73a16.6,16.6,0,0,0,4.23.53,15,15,0,0,0,6.62-1.37A4.68,4.68,0,0,0,350.59,124.27Zm-28.23,5.65c.14.08.28.19.44.27a15.16,15.16,0,0,0,6.62,1.36,15,15,0,0,0,6.61-1.36c.16-.08.3-.19.44-.27v1.63c0,.41-.44,1.09-1.72,1.73a13.49,13.49,0,0,1-10.67,0c-1.28-.64-1.72-1.32-1.72-1.73Z"/>
        <path d="M182.86,58.09v3.36H196.3V58.09Zm1.68,5V76a13.28,13.28,0,0,0-4.34,21.89l.49.47h17.78l.49-.47a13,13,0,0,0,2.13-16.22l3.21-3.21,1.19,1.19,2.37-2.38-4.75-4.75-2.37,2.38,1.19,1.19L199,79a13.12,13.12,0,0,0-4.42-3V63.12h-3.36V78.29l1.2.36a10.08,10.08,0,0,1,6.61,6.3h-19a10.08,10.08,0,0,1,6.61-6.3l1.2-.36V63.12Zm-5,25.19h20.14A9.87,9.87,0,0,1,197,95H182.21A9.87,9.87,0,0,1,179.51,88.31Z"/>
      </g>
    </g>
  </g>
</svg>
