<svg xmlns="http://www.w3.org/2000/svg" viewBox="0 0 572.03 218.61">
  <g id="squares">
    <g>
      <rect x="98.35" y="34.89" width="84.45" height="84.45" fill="#f8aead"/>
      <rect x="13.9" y="119.34" width="84.45" height="84.45" fill="#7bcfd8"/>
      <rect x="98.35" y="119.34" width="84.45" height="84.45" fill="#d1e29a"/>
      <rect x="13.9" y="34.89" width="84.45" height="84.45" fill="#c3a8d0"/>
    </g>
    <g>
      <rect x="201.56" y="34.89" width="84.45" height="84.45" fill="#e0abcf"/>
      <rect x="286.02" y="34.89" width="84.45" height="84.45" fill="#fcc88e"/>
      <rect x="201.56" y="119.34" width="84.45" height="84.45" fill="#98c8eb"/>
      <rect x="286.02" y="119.34" width="84.45" height="84.45" fill="#b8dca9"/>
    </g>
    <g>
      <rect x="389.22" y="34.89" width="84.45" height="84.45" fill="#f2a5c6"/>
      <rect x="473.68" y="34.89" width="84.45" height="84.45" fill="#efee8d"/>
      <rect x="389.22" y="119.34" width="84.45" height="84.45" fill="#abaad5"/>
      <rect x="473.68" y="119.34" width="84.45" height="84.45" fill="#a6d7c0"/>
    </g>
    <g>
      <g>
        <path d="M28,155.68a3.65,3.65,0,0,1-1.32-.23,2.84,2.84,0,0,1-1-.65,3,3,0,0,1-.63-1,3.72,3.72,0,0,1-.22-1.27,3.47,3.47,0,0,1,.38-1.63,2.76,2.76,0,0,1,1.05-1.12,3.15,3.15,0,0,1,1.63-.4,3.69,3.69,0,0,1,.58,0,4.48,4.48,0,0,1,.55.1l.48.15.4.18-.1,1.11a5.48,5.48,0,0,0-.63-.33,4,4,0,0,0-.6-.18,3.64,3.64,0,0,0-.56-.05,2,2,0,0,0-1,.25,1.8,1.8,0,0,0-.69.73,2.38,2.38,0,0,0-.25,1.15,2.53,2.53,0,0,0,.13.83,2.08,2.08,0,0,0,.39.68,1.73,1.73,0,0,0,.65.47,2.31,2.31,0,0,0,.91.17l.41,0a2.71,2.71,0,0,0,.41-.09,2.41,2.41,0,0,0,.42-.16,2.92,2.92,0,0,0,.4-.25l.07,1.1a2.12,2.12,0,0,1-.4.19c-.14.05-.3.09-.46.13a3.85,3.85,0,0,1-.49.07Z" fill="#2f292a"/>
        <path d="M33.8,155.68a3.72,3.72,0,0,1-1.4-.25,2.8,2.8,0,0,1-1-.69,2.88,2.88,0,0,1-.57-1,3.58,3.58,0,0,1-.19-1.19,3.65,3.65,0,0,1,.35-1.6,2.72,2.72,0,0,1,1.05-1.13,3.22,3.22,0,0,1,1.7-.42,3.55,3.55,0,0,1,1.36.24,2.62,2.62,0,0,1,1,.68,2.88,2.88,0,0,1,.59,1,3.76,3.76,0,0,1,.2,1.22,3.54,3.54,0,0,1-.36,1.62,2.76,2.76,0,0,1-1.05,1.12A3.23,3.23,0,0,1,33.8,155.68Zm0-1a1.77,1.77,0,0,0,.82-.18,1.57,1.57,0,0,0,.58-.47,2.25,2.25,0,0,0,.35-.69,3.12,3.12,0,0,0,.11-.82,2.84,2.84,0,0,0-.12-.84,2.51,2.51,0,0,0-.36-.69,1.66,1.66,0,0,0-.59-.46,1.8,1.8,0,0,0-.79-.16,1.94,1.94,0,0,0-.82.17,1.6,1.6,0,0,0-.59.47,2,2,0,0,0-.35.69,2.81,2.81,0,0,0-.12.82,3.2,3.2,0,0,0,.11.83,2.09,2.09,0,0,0,.35.68,1.63,1.63,0,0,0,.59.48A1.92,1.92,0,0,0,33.78,154.69Z" fill="#2f292a"/>
        <path d="M39.65,155.67a5.44,5.44,0,0,1-.57,0,4.65,4.65,0,0,1-.56-.1,3.29,3.29,0,0,1-.5-.14,3.64,3.64,0,0,1-.38-.16l.09-1a4.25,4.25,0,0,0,.43.21l.45.16.45.1a3.11,3.11,0,0,0,.43,0,1.66,1.66,0,0,0,.7-.12.75.75,0,0,0,.37-.33.9.9,0,0,0,.12-.46.7.7,0,0,0-.33-.65,2.07,2.07,0,0,0-1-.18h-.71v-.89h.62a1.61,1.61,0,0,0,.71-.13.88.88,0,0,0,.4-.32.78.78,0,0,0,.13-.44.71.71,0,0,0-.15-.46.8.8,0,0,0-.4-.26,1.59,1.59,0,0,0-.55-.09,1.72,1.72,0,0,0-.39,0,2.13,2.13,0,0,0-.4.1,2.69,2.69,0,0,0-.43.19,2.76,2.76,0,0,0-.45.28l-.14-1.07a2.69,2.69,0,0,1,.38-.2,4.05,4.05,0,0,1,.46-.17,2.76,2.76,0,0,1,.53-.11,3.7,3.7,0,0,1,.59-.05,3.16,3.16,0,0,1,1.18.2,1.61,1.61,0,0,1,.74.53,1.48,1.48,0,0,1-.06,1.73,1.68,1.68,0,0,1-.79.49v.09a1.93,1.93,0,0,1,.62.23,1.27,1.27,0,0,1,.46.46,1.65,1.65,0,0,1,.17.79,1.9,1.9,0,0,1-.21.88,1.51,1.51,0,0,1-.71.65A3.07,3.07,0,0,1,39.65,155.67Z" fill="#2f292a"/>
        <path d="M42.86,155.57v-6.06H46.8v1H43.39l.64-.8v5.7l-.56-.81h3.36v1Zm.9-2.59V152h2.89V153Z" fill="#2f292a"/>
        <path d="M47.93,155.57v-6.06h2.33a3.45,3.45,0,0,1,1.2.18,1.39,1.39,0,0,1,.73.59,2.11,2.11,0,0,1,.24,1.08,2.4,2.4,0,0,1-.21,1,1.51,1.51,0,0,1-.69.7,2.74,2.74,0,0,1-1.28.26H48.94v-.95H50a2,2,0,0,0,.7-.1.78.78,0,0,0,.4-.33,1.16,1.16,0,0,0,.13-.6,1.06,1.06,0,0,0-.09-.47.69.69,0,0,0-.25-.28,1.15,1.15,0,0,0-.34-.13,2.19,2.19,0,0,0-.36,0H48.53l.57-.77v5.88Z" fill="#2f292a"/>
        <path d="M58.12,156.87l-.06-1.49.22.19H53.39v-6.06h1.19v5.87l-.56-.81h5.11v2.3Zm-1-1.49v-5.87h1.2v5.87Z" fill="#2f292a"/>
        <path d="M59.51,155.57l2.06-6.06h1.54c.1.31,1.93,5.74,2,6.06H63.91l-1.54-5h-.09l-1.57,5Zm1.35-1.35.12-.9h2.83l.1.9Z" fill="#2f292a"/>
        <path d="M67.49,155.57v-5.88l.45.86H65.57v-1h5v1H68.21l.46-.86v5.88Z" fill="#2f292a"/>
        <path d="M71.47,155.57v-6.06h3.94v1H72l.63-.8v5.7l-.56-.81h3.36v1Zm.9-2.59V152h2.89V153Z" fill="#2f292a"/>
        <path d="M76.64,155.66h-.25l-.22,0-.18,0,.05-1,.16,0h.13a.59.59,0,0,0,.52-.29,2.2,2.2,0,0,0,.29-.88c.06-.4.11-.91.14-1.52,0-.4.11-2,.13-2.42h4.23v6.06H80.45v-5.88l.59.82H77.88l.65-.76c0,.43-.15,2.16-.18,2.63s-.08,1-.13,1.43a4,4,0,0,1-.24,1,1.4,1.4,0,0,1-.49.62A1.59,1.59,0,0,1,76.64,155.66Z" fill="#2f292a"/>
        <path d="M85.25,155.57H83v-6.06h1.17v5.12H85a1.94,1.94,0,0,0,.7-.11.78.78,0,0,0,.4-.33,1.42,1.42,0,0,0,0-1.09.76.76,0,0,0-.25-.28,1.2,1.2,0,0,0-.33-.13,2.33,2.33,0,0,0-.37,0H84v-.94H85.3a3.45,3.45,0,0,1,1.2.18,1.35,1.35,0,0,1,.73.59,2.16,2.16,0,0,1,.24,1.1,2.44,2.44,0,0,1-.21,1,1.53,1.53,0,0,1-.7.7A2.83,2.83,0,0,1,85.25,155.57Z" fill="#2f292a"/>
      </g>
      <g>
        <path d="M32,74.86H30V68.8h2.38a4.06,4.06,0,0,1,1,.1,1.65,1.65,0,0,1,.64.28,1,1,0,0,1,.35.44,1.36,1.36,0,0,1,.11.58,1.59,1.59,0,0,1-.14.68,1.19,1.19,0,0,1-.39.47,1.71,1.71,0,0,1-.56.27v.1A2.17,2.17,0,0,1,34,72a1.22,1.22,0,0,1,.44.46,1.51,1.51,0,0,1,.17.75,1.68,1.68,0,0,1-.13.68,1.19,1.19,0,0,1-.41.54,2.18,2.18,0,0,1-.78.35A5.48,5.48,0,0,1,32,74.86Zm-.88-.94h1a2.06,2.06,0,0,0,.71-.1.82.82,0,0,0,.4-.29.86.86,0,0,0,.13-.46.69.69,0,0,0-.3-.62,1.5,1.5,0,0,0-.86-.2H30.87v-.89h1.31a1.5,1.5,0,0,0,.6-.11.82.82,0,0,0,.35-.31.93.93,0,0,0,.11-.44.71.71,0,0,0-.24-.58,1.22,1.22,0,0,0-.73-.19H31.15Z" fill="#2f292a"/>
        <path d="M35.68,75h-.25l-.22,0-.19,0,.06-1,.16,0h.13a.59.59,0,0,0,.52-.29,2.21,2.21,0,0,0,.28-.88,13,13,0,0,0,.14-1.52c0-.4.12-2,.14-2.42h4.23v6.06H39.49V69l.59.81H36.91l.65-.75c0,.43-.15,2.16-.18,2.63s-.08,1-.13,1.43a4.12,4.12,0,0,1-.24,1,1.24,1.24,0,0,1-.48.61A1.53,1.53,0,0,1,35.68,75Z" fill="#2f292a"/>
        <path d="M41.55,74.86,43.6,68.8h1.54c.11.31,1.93,5.74,2,6.06H46l-1.54-5h-.1s-1.46,4.71-1.57,5Zm1.35-1.35.12-.9h2.83l.1.9Z" fill="#2f292a"/>
        <path d="M50.9,75a3.65,3.65,0,0,1-1.32-.23,2.84,2.84,0,0,1-1-.65,3,3,0,0,1-.63-1,3.78,3.78,0,0,1,.15-2.9,2.79,2.79,0,0,1,1.06-1.12,3.15,3.15,0,0,1,1.63-.4,5.63,5.63,0,0,1,.58,0l.55.11.48.15.4.18-.1,1.11a5.58,5.58,0,0,0-.64-.33,3.59,3.59,0,0,0-.59-.18,3.64,3.64,0,0,0-.56,0,2,2,0,0,0-1,.25,1.8,1.8,0,0,0-.69.73A2.38,2.38,0,0,0,49,71.83a2.43,2.43,0,0,0,.13.82,1.82,1.82,0,0,0,.39.69,1.73,1.73,0,0,0,.65.47A2.26,2.26,0,0,0,51,74a3,3,0,0,0,.42,0l.41-.09a2.41,2.41,0,0,0,.42-.16,2.92,2.92,0,0,0,.4-.25l.07,1.1a2.12,2.12,0,0,1-.4.19l-.46.13a3.76,3.76,0,0,1-.5.07A4.19,4.19,0,0,1,50.9,75Z" fill="#2f292a"/>
        <path d="M55.34,74.86V69l.45.86H53.42v-1h5v1H56.07l.45-.86v5.88Z" fill="#2f292a"/>
        <path d="M59.33,74.86V68.8h3.93v1h-3.4l.63-.8v5.7l-.56-.81h3.36v1Zm.89-2.59v-.94h2.9v.94Z" fill="#2f292a"/>
        <path d="M64.49,75h-.25l-.22,0-.18,0,0-1,.16,0h.13a.61.61,0,0,0,.53-.29,2.39,2.39,0,0,0,.28-.88c.06-.4.11-.91.14-1.52,0-.4.11-2,.14-2.42H69.5v6.06H68.31V69l.58.81H65.73l.65-.75c0,.43-.15,2.16-.18,2.63s-.08,1-.13,1.43a4.12,4.12,0,0,1-.24,1,1.24,1.24,0,0,1-.48.61A1.56,1.56,0,0,1,64.49,75Z" fill="#2f292a"/>
        <path d="M70.82,74.86V68.8H72v4.07h.09l2.81-4.07h1v6.06H74.73V70.78h-.08l-2.83,4.08Z" fill="#2f292a"/>
        <path d="M77.21,74.86V68.8H78.4v6.06Zm.85-2.56v-1h3.39v1Zm3,2.56V68.8h1.19v6.06Z" fill="#2f292a"/>
      </g>
      <g>
        <path d="M126.29,75l-.58,0-.55-.1a5.07,5.07,0,0,1-.5-.14,2.9,2.9,0,0,1-.38-.16l.08-1a4.39,4.39,0,0,0,.44.21l.45.16a3.58,3.58,0,0,0,.45.09,2.09,2.09,0,0,0,.43,0,1.69,1.69,0,0,0,.7-.12.8.8,0,0,0,.37-.33.9.9,0,0,0,.12-.46.69.69,0,0,0-.33-.65,2.05,2.05,0,0,0-1-.19h-.71v-.88h.62a1.8,1.8,0,0,0,.71-.13.93.93,0,0,0,.4-.32.78.78,0,0,0,.13-.44A.69.69,0,0,0,127,70a.8.8,0,0,0-.4-.26,1.63,1.63,0,0,0-.55-.09,1.72,1.72,0,0,0-.39,0,2.22,2.22,0,0,0-.41.1c-.13,0-.28.11-.42.18a2.85,2.85,0,0,0-.45.29l-.15-1.07a3.39,3.39,0,0,1,.38-.2,2.87,2.87,0,0,1,.47-.17,3.77,3.77,0,0,1,.53-.12,5.28,5.28,0,0,1,.58,0,3.18,3.18,0,0,1,1.19.2,1.66,1.66,0,0,1,.74.53,1.31,1.31,0,0,1,.25.8,1.28,1.28,0,0,1-.32.93,1.6,1.6,0,0,1-.78.49v.09a1.79,1.79,0,0,1,.61.23,1.13,1.13,0,0,1,.46.46,1.5,1.5,0,0,1,.18.78,1.91,1.91,0,0,1-.21.89,1.51,1.51,0,0,1-.71.65A3.07,3.07,0,0,1,126.29,75Z" fill="#2f292a"/>
        <path d="M131.55,74.86H129.5V68.8h2.38a4,4,0,0,1,1,.1,1.7,1.7,0,0,1,.65.28,1.06,1.06,0,0,1,.35.44,1.54,1.54,0,0,1,.11.58,1.59,1.59,0,0,1-.14.68,1.38,1.38,0,0,1-.39.47,1.82,1.82,0,0,1-.56.27v.1a2,2,0,0,1,.62.24,1.17,1.17,0,0,1,.45.46,1.52,1.52,0,0,1,.16.75,1.87,1.87,0,0,1-.12.68,1.26,1.26,0,0,1-.41.54,2.15,2.15,0,0,1-.79.35A5.45,5.45,0,0,1,131.55,74.86Zm-.88-.94h1a2,2,0,0,0,.71-.1.8.8,0,0,0,.41-.29.85.85,0,0,0,.12-.46.69.69,0,0,0-.3-.62,1.47,1.47,0,0,0-.85-.2h-1.35v-.89h1.31a1.5,1.5,0,0,0,.6-.11.79.79,0,0,0,.34-.31.82.82,0,0,0,.11-.44.71.71,0,0,0-.24-.58,1.19,1.19,0,0,0-.72-.19h-1.12Z" fill="#2f292a"/>
        <path d="M135.09,74.86V68.8H139v1h-3.41l.64-.8v5.7l-.56-.81h3.36v1Zm.9-2.59v-.94h2.89v.94Z" fill="#2f292a"/>
        <path d="M141.91,75a5.44,5.44,0,0,1-.57,0l-.56-.1a4.84,4.84,0,0,1-.49-.14,2.9,2.9,0,0,1-.38-.16l.08-1a3.55,3.55,0,0,0,.44.21l.44.16a3.58,3.58,0,0,0,.45.09,2.15,2.15,0,0,0,.43,0,1.66,1.66,0,0,0,.7-.12.78.78,0,0,0,.38-.33,1,1,0,0,0,.11-.46.69.69,0,0,0-.33-.65,2,2,0,0,0-1-.19h-.71v-.88h.61a1.77,1.77,0,0,0,.71-.13.91.91,0,0,0,.41-.32.87.87,0,0,0,.13-.44.69.69,0,0,0-.15-.46.8.8,0,0,0-.4-.26,1.8,1.8,0,0,0-.94,0,2,2,0,0,0-.41.1l-.43.18a2.85,2.85,0,0,0-.45.29l-.14-1.07a2.69,2.69,0,0,1,.38-.2,2.75,2.75,0,0,1,.46-.17,4.54,4.54,0,0,1,.53-.12,5.65,5.65,0,0,1,.59,0,3.22,3.22,0,0,1,1.19.2,1.58,1.58,0,0,1,.73.53,1.44,1.44,0,0,1-.06,1.73,1.59,1.59,0,0,1-.79.49v.09a1.85,1.85,0,0,1,.62.23,1.2,1.2,0,0,1,.46.46,1.5,1.5,0,0,1,.18.78,1.92,1.92,0,0,1-.22.89,1.48,1.48,0,0,1-.7.65A3.15,3.15,0,0,1,141.91,75Z" fill="#2f292a"/>
        <path d="M144.57,76.16v-2.3h6.51v2.3h-1L150,74.67l.22.19h-4.82l.23-.19-.07,1.49Zm4.54-1.49V69l.37.81h-2.92l.59-.74c0,.36-.11,1.84-.14,2.21a10.9,10.9,0,0,1-.12,1.17,3.9,3.9,0,0,1-.25.87,2.94,2.94,0,0,1-.43.69l-1.14-.11a2.27,2.27,0,0,0,.41-.59,4.84,4.84,0,0,0,.3-.91,8.93,8.93,0,0,0,.16-1.36c0-.39.12-1.88.14-2.22h4.22v5.87Z" fill="#2f292a"/>
        <path d="M151.47,74.86l2.05-6.06h1.54c.1.31,1.93,5.74,2,6.06h-1.23l-1.55-5h-.09s-1.46,4.71-1.57,5Zm1.34-1.35.12-.9h2.84l.09.9Z" fill="#2f292a"/>
      </g>
      <g>
        <path d="M129.06,155.56l-.52,0-.5-.08a3.23,3.23,0,0,1-.47-.12,2.46,2.46,0,0,1-.4-.19l.07-1.09a2.92,2.92,0,0,0,.4.25l.42.15.43.09a3.11,3.11,0,0,0,.43,0,2.51,2.51,0,0,0,1.22-.26,1.61,1.61,0,0,0,.69-.7,2.38,2.38,0,0,0,.21-1v-.37a2.38,2.38,0,0,0-.14-.84,1.73,1.73,0,0,0-.41-.6,1.63,1.63,0,0,0-.62-.37,2.2,2.2,0,0,0-.78-.13,3,3,0,0,0-.59.06,3.62,3.62,0,0,0-.62.18,3.55,3.55,0,0,0-.65.32l-.1-1.1.4-.18.5-.15.57-.11a5.66,5.66,0,0,1,.6,0,3.25,3.25,0,0,1,1.28.24,2.66,2.66,0,0,1,1,.66,2.75,2.75,0,0,1,.59,1,3.72,3.72,0,0,1,.21,1.27,3.53,3.53,0,0,1-.37,1.63,2.66,2.66,0,0,1-1.07,1.11A3.55,3.55,0,0,1,129.06,155.56Zm-.82-2.68v-.94h3v.94Z" fill="#2f292a"/>
        <path d="M136.11,155.57a3.64,3.64,0,0,1-1.31-.23,2.75,2.75,0,0,1-1-.65,2.7,2.7,0,0,1-.63-1,3.78,3.78,0,0,1,.15-2.9,2.79,2.79,0,0,1,1.06-1.12,3.09,3.09,0,0,1,1.62-.4,5.49,5.49,0,0,1,.58,0l.55.11.49.15.39.18-.09,1.11a5.58,5.58,0,0,0-.64-.33,4,4,0,0,0-.6-.18,3.51,3.51,0,0,0-.55,0,1.93,1.93,0,0,0-1,.25,1.7,1.7,0,0,0-.7.73,2.51,2.51,0,0,0-.25,1.15,2.71,2.71,0,0,0,.13.82,2.13,2.13,0,0,0,.39.69,1.94,1.94,0,0,0,.65.47,2.31,2.31,0,0,0,.91.16,2.82,2.82,0,0,0,.41,0l.42-.09a2.31,2.31,0,0,0,.41-.16,2.42,2.42,0,0,0,.4-.25l.08,1.1a2.46,2.46,0,0,1-.4.19l-.46.13a4,4,0,0,1-.5.07A4.36,4.36,0,0,1,136.11,155.57Z" fill="#2f292a"/>
        <path d="M140.55,155.46v-5.88l.46.86h-2.37v-1h5v1h-2.37l.46-.86v5.88Z" fill="#2f292a"/>
        <path d="M144.54,155.46V149.4h3.94v1h-3.41l.64-.8v5.7l-.56-.81h3.36v1Zm.9-2.59v-.94h2.89v.94Z" fill="#2f292a"/>
        <path d="M151.09,155.46v-5.88l.46.86h-2.37v-1h5v1h-2.37l.46-.86v5.88Z" fill="#2f292a"/>
      </g>
      <g>
        <path d="M225.84,155.57l1.84-3.27v.29l-1.85-3.08h1.35c.15.25,1.28,2.25,1.28,2.25h.1l1.22-2.25h1.32l-1.82,3.19v-.32l2,3.19h-1.4l-1.36-2.3h-.09s-1.13,2.06-1.27,2.3Z" fill="#2f292a"/>
        <path d="M235,155.68a3.67,3.67,0,0,1-1.39-.25,2.68,2.68,0,0,1-1.55-1.7,3.58,3.58,0,0,1-.19-1.19,3.51,3.51,0,0,1,.35-1.6,2.64,2.64,0,0,1,1-1.13,3.23,3.23,0,0,1,1.71-.42,3.55,3.55,0,0,1,1.36.24,2.62,2.62,0,0,1,1,.68,2.88,2.88,0,0,1,.59,1,3.76,3.76,0,0,1,.19,1.22,3.67,3.67,0,0,1-.35,1.62,2.76,2.76,0,0,1-1.05,1.12A3.27,3.27,0,0,1,235,155.68Zm0-1a1.78,1.78,0,0,0,.83-.18,1.65,1.65,0,0,0,.58-.47,2.22,2.22,0,0,0,.34-.69,2.76,2.76,0,0,0,.12-.82,2.84,2.84,0,0,0-.13-.84,2.06,2.06,0,0,0-.36-.69,1.54,1.54,0,0,0-.58-.46,2,2,0,0,0-1.61,0,1.6,1.6,0,0,0-.59.47,2.06,2.06,0,0,0-.36.69,2.9,2.9,0,0,0,0,1.65,2.09,2.09,0,0,0,.35.68,1.59,1.59,0,0,0,.58.48A2,2,0,0,0,235,154.69Z" fill="#2f292a"/>
        <path d="M240.88,155.67l-.58,0a5,5,0,0,1-.56-.1,3.5,3.5,0,0,1-.49-.14,2.9,2.9,0,0,1-.38-.16l.08-1a4.39,4.39,0,0,0,.44.21l.45.16.44.1.44,0a1.69,1.69,0,0,0,.7-.12.8.8,0,0,0,.37-.33.9.9,0,0,0,.11-.46.69.69,0,0,0-.32-.65,2.07,2.07,0,0,0-1-.18h-.71v-.89h.61a1.66,1.66,0,0,0,.72-.13.93.93,0,0,0,.4-.32.78.78,0,0,0,.13-.44.71.71,0,0,0-.15-.46.8.8,0,0,0-.4-.26,1.64,1.64,0,0,0-.56-.09,1.69,1.69,0,0,0-.38,0,2.22,2.22,0,0,0-.41.1,3.15,3.15,0,0,0-.43.19,3.19,3.19,0,0,0-.44.28l-.15-1.07a3.39,3.39,0,0,1,.38-.2l.46-.17a3,3,0,0,1,.54-.11,3.58,3.58,0,0,1,.58-.05,3.18,3.18,0,0,1,1.19.2,1.66,1.66,0,0,1,.74.53,1.31,1.31,0,0,1,.25.8,1.33,1.33,0,0,1-.32.93,1.59,1.59,0,0,1-.79.49v.09a1.85,1.85,0,0,1,.62.23,1.2,1.2,0,0,1,.46.46,1.54,1.54,0,0,1,.18.79,1.9,1.9,0,0,1-.21.88,1.56,1.56,0,0,1-.71.65A3.1,3.1,0,0,1,240.88,155.67Z" fill="#2f292a"/>
        <path d="M243.62,155.57l2.11-3,.4.48a3,3,0,0,1-1-.14,1.79,1.79,0,0,1-.64-.4,1.47,1.47,0,0,1-.35-.59,2.36,2.36,0,0,1-.11-.72,1.81,1.81,0,0,1,.25-1,1.41,1.41,0,0,1,.75-.54,3.92,3.92,0,0,1,1.22-.16h2.27v6.06h-1.17v-5.88l.61.77h-1.67a2.19,2.19,0,0,0-.36,0,.92.92,0,0,0-.34.12.73.73,0,0,0-.25.27,1.08,1.08,0,0,0-.09.48,1,1,0,0,0,.31.8,1.58,1.58,0,0,0,.92.23h1.09v.92h-1.43l.72-.6-2,2.86Z" fill="#2f292a"/>
        <path d="M249.89,155.57v-6.06h1.16v4.07h.09l2.81-4.07h1v6.06h-1.17v-4.08h-.08l-2.82,4.08Z" fill="#2f292a"/>
        <path d="M256.28,155.57v-6.06h1.19v6.06Zm.84-2.56v-1h3.4v1Zm3,2.56v-6.06h1.2v6.06Z" fill="#2f292a"/>
      </g>
      <g>
        <path d="M210,75l-.58,0-.56-.1-.49-.14a2,2,0,0,1-.38-.17l.08-1,.44.21a3.39,3.39,0,0,0,.45.15,2.51,2.51,0,0,0,.44.1l.44,0a1.69,1.69,0,0,0,.7-.12.84.84,0,0,0,.37-.32.9.9,0,0,0,.11-.46.68.68,0,0,0-.32-.65,2.05,2.05,0,0,0-1-.19h-.71v-.89h.61a1.83,1.83,0,0,0,.72-.12.88.88,0,0,0,.4-.33.75.75,0,0,0,.13-.43.69.69,0,0,0-.15-.46.89.89,0,0,0-.4-.27,1.94,1.94,0,0,0-.56-.08l-.38,0a2.28,2.28,0,0,0-.41.11l-.43.18a4.54,4.54,0,0,0-.44.28L208,69.26c.12-.06.24-.13.38-.19a3.12,3.12,0,0,1,.46-.17,4.28,4.28,0,0,1,.54-.12,3.6,3.6,0,0,1,.58,0,3.19,3.19,0,0,1,1.19.19,1.68,1.68,0,0,1,.74.54,1.29,1.29,0,0,1,.25.8,1.33,1.33,0,0,1-.32.93,1.64,1.64,0,0,1-.79.48v.1a2.08,2.08,0,0,1,.62.22,1.22,1.22,0,0,1,.46.47,1.5,1.5,0,0,1,.18.78,1.94,1.94,0,0,1-.21.89,1.56,1.56,0,0,1-.71.65A3.1,3.1,0,0,1,210,75Z" fill="#2f292a"/>
        <path d="M212.78,74.93c.11-.33,2-5.76,2.06-6.07h1.54c.1.32,1.93,5.74,2,6.07h-1.22c-.11-.34-1.55-5-1.55-5h-.09s-1.47,4.7-1.57,5Zm1.35-1.36.12-.9h2.83l.1.9Z" fill="#2f292a"/>
        <path d="M219.27,74.93V68.86h1.19v6.07Zm3.56,0-2.08-2.68h-.4v-.94h.39s1.79-2.15,2-2.45h1.39l-2.63,3.06,0-.53,2.77,3.54Z" fill="#2f292a"/>
        <path d="M228,75a3.54,3.54,0,0,1-1.4-.25,2.56,2.56,0,0,1-1-.69,3,3,0,0,1-.57-1,3.83,3.83,0,0,1,.16-2.79,2.75,2.75,0,0,1,1-1.14,3.22,3.22,0,0,1,1.7-.42,3.55,3.55,0,0,1,1.36.25,2.59,2.59,0,0,1,1,.67,2.77,2.77,0,0,1,.59,1,3.72,3.72,0,0,1,.2,1.22,3.5,3.5,0,0,1-.36,1.61,2.64,2.64,0,0,1-1.05,1.12A3.13,3.13,0,0,1,228,75Zm0-1a1.74,1.74,0,0,0,.82-.17,1.59,1.59,0,0,0,.58-.48,2,2,0,0,0,.35-.69,3,3,0,0,0,.11-.81,3,3,0,0,0-.12-.85,2.31,2.31,0,0,0-.36-.68,1.58,1.58,0,0,0-.59-.46,2,2,0,0,0-1.61,0,1.68,1.68,0,0,0-.59.47,2,2,0,0,0-.35.69,2.76,2.76,0,0,0-.12.82,3.12,3.12,0,0,0,.11.82,2.24,2.24,0,0,0,.35.69,1.6,1.6,0,0,0,.59.47A1.78,1.78,0,0,0,228,74Z" fill="#2f292a"/>
        <path d="M232.06,74.93V68.86h1.2v6.07Zm.85-2.56v-1h3.39v1Zm3,2.56V68.86h1.19v6.07Z" fill="#2f292a"/>
        <path d="M241.28,75a3.54,3.54,0,0,1-1.4-.25,2.56,2.56,0,0,1-1-.69,2.83,2.83,0,0,1-.57-1,3.83,3.83,0,0,1,.16-2.79,2.75,2.75,0,0,1,1-1.14,3.22,3.22,0,0,1,1.7-.42,3.55,3.55,0,0,1,1.36.25,2.59,2.59,0,0,1,1,.67,2.92,2.92,0,0,1,.59,1,3.72,3.72,0,0,1,.2,1.22A3.5,3.5,0,0,1,244,73.5,2.64,2.64,0,0,1,243,74.62,3.16,3.16,0,0,1,241.28,75Zm0-1a1.77,1.77,0,0,0,.82-.17,1.59,1.59,0,0,0,.58-.48,2,2,0,0,0,.35-.69,3,3,0,0,0,.11-.81A3,3,0,0,0,243,71a2.31,2.31,0,0,0-.36-.68,1.66,1.66,0,0,0-.59-.46,1.8,1.8,0,0,0-.79-.16,1.77,1.77,0,0,0-.82.17,1.6,1.6,0,0,0-.59.47,2,2,0,0,0-.35.69,3,3,0,0,0,0,1.64,2,2,0,0,0,.35.69,1.6,1.6,0,0,0,.59.47A1.78,1.78,0,0,0,241.26,74Z" fill="#2f292a"/>
        <path d="M244.81,76.22V73.93h6.51v2.29h-1l-.07-1.48.23.19h-4.82l.22-.19-.06,1.48Zm4.54-1.48V69.05l.37.81H246.8l.6-.75c0,.37-.12,1.85-.14,2.22a10.68,10.68,0,0,1-.13,1.17,3.24,3.24,0,0,1-.25.86,3,3,0,0,1-.43.7l-1.13-.12a2.19,2.19,0,0,0,.4-.58,3.87,3.87,0,0,0,.3-.91,8.8,8.8,0,0,0,.17-1.36c0-.39.11-1.88.13-2.23h4.22v5.88Z" fill="#2f292a"/>
        <path d="M251.71,74.93c.11-.33,1.95-5.76,2.06-6.07h1.53l2,6.07h-1.23c-.1-.34-1.54-5-1.54-5h-.1s-1.46,4.7-1.56,5Zm1.35-1.36.12-.9H256l.1.9Z" fill="#2f292a"/>
        <path d="M259.68,74.93V69.05l.46.86h-2.37v-1h5v1h-2.37l.46-.86v5.88Z" fill="#2f292a"/>
        <path d="M263.67,74.93V68.86h3.94v1H264.2l.64-.8v5.69l-.56-.8h3.36v1Zm.9-2.6v-.94h2.89v.94Z" fill="#2f292a"/>
        <path d="M268.84,75h-.25l-.22,0-.19,0,.06-1,.16,0h.13a.58.58,0,0,0,.52-.28,2.37,2.37,0,0,0,.29-.89c.06-.4.1-.9.13-1.52,0-.39.12-2,.14-2.42h4.23v6.07h-1.19V69.05l.59.81h-3.17l.66-.75c0,.43-.16,2.16-.19,2.62s-.08,1-.13,1.44a4.23,4.23,0,0,1-.24,1,1.24,1.24,0,0,1-.48.61A1.53,1.53,0,0,1,268.84,75Z" fill="#2f292a"/>
        <path d="M277.45,74.93h-2.28V68.86h1.16V74h.9a2,2,0,0,0,.7-.1.79.79,0,0,0,.4-.34,1.15,1.15,0,0,0,.13-.59,1.1,1.1,0,0,0-.09-.49.63.63,0,0,0-.25-.28,1,1,0,0,0-.33-.13,1.61,1.61,0,0,0-.37,0h-1.23v-1h1.31a3.45,3.45,0,0,1,1.2.18,1.4,1.4,0,0,1,.73.6,2.16,2.16,0,0,1,.24,1.1,2.4,2.4,0,0,1-.21,1,1.58,1.58,0,0,1-.7.7A2.85,2.85,0,0,1,277.45,74.93Z" fill="#2f292a"/>
      </g>
      <g>
        <path d="M313.32,74.86V68.8h5v6.06h-1.19V69l.36.81h-3.36l.36-.81v5.88Z" fill="#2f292a"/>
        <path d="M319.67,74.86V68.8H322a3.49,3.49,0,0,1,1.2.18,1.37,1.37,0,0,1,.72.59,2.11,2.11,0,0,1,.24,1.08,2.4,2.4,0,0,1-.21,1,1.51,1.51,0,0,1-.69.7,2.71,2.71,0,0,1-1.28.26h-1.3v-1h1a2,2,0,0,0,.7-.1.74.74,0,0,0,.4-.33,1.16,1.16,0,0,0,.14-.6.94.94,0,0,0-.1-.47.61.61,0,0,0-.24-.28,1.4,1.4,0,0,0-.34-.13l-.37,0h-1.65l.57-.77v5.88Z" fill="#2f292a"/>
        <path d="M325.13,74.86V68.8h1.17v4.07h.08l2.81-4.07h1v6.06H329V70.78H329l-2.83,4.08Z" fill="#2f292a"/>
        <path d="M331.52,74.86V68.8h1.2v6.06Zm.85-2.56v-1h3.39v1Zm3,2.56V68.8h1.19v6.06Z" fill="#2f292a"/>
        <path d="M342.64,76.16l-.07-1.49.23.19h-4.9V68.8h1.19v5.87l-.56-.81h5.11v2.3Zm-1-1.49V68.8h1.19v5.87Z" fill="#2f292a"/>
      </g>
      <g>
        <path d="M303.82,155.57a3.64,3.64,0,0,1-1.31-.23,2.67,2.67,0,0,1-1-.65,2.7,2.7,0,0,1-.63-1,3.78,3.78,0,0,1,.15-2.9,2.83,2.83,0,0,1,1.05-1.12,3.15,3.15,0,0,1,1.63-.4,5.49,5.49,0,0,1,.58,0l.55.11.49.15.39.18-.09,1.11a5.58,5.58,0,0,0-.64-.33,4,4,0,0,0-.6-.18,3.51,3.51,0,0,0-.55,0,1.93,1.93,0,0,0-1,.25,1.7,1.7,0,0,0-.7.73,2.51,2.51,0,0,0-.25,1.15,2.71,2.71,0,0,0,.13.82,2.13,2.13,0,0,0,.39.69,1.94,1.94,0,0,0,.65.47,2.31,2.31,0,0,0,.91.16,2.88,2.88,0,0,0,.41,0l.42-.09a2.31,2.31,0,0,0,.41-.16,2.42,2.42,0,0,0,.4-.25l.08,1.1a2.46,2.46,0,0,1-.4.19l-.46.13a4,4,0,0,1-.5.07A4.36,4.36,0,0,1,303.82,155.57Z" fill="#2f292a"/>
        <path d="M306.88,155.55h-.25l-.22,0-.19,0,.06-1,.16,0h.13a.59.59,0,0,0,.52-.29,2.21,2.21,0,0,0,.28-.89,12.61,12.61,0,0,0,.14-1.51c0-.4.12-2,.14-2.42h4.23v6.06h-1.19v-5.88l.59.81h-3.17l.65-.75c0,.43-.15,2.16-.18,2.63s-.08,1-.13,1.43a4.12,4.12,0,0,1-.24,1,1.24,1.24,0,0,1-.48.61A1.53,1.53,0,0,1,306.88,155.55Z" fill="#2f292a"/>
        <path d="M314.14,155.46c.11-.26.62-1.34.76-1.64l-2.18-4.42h1.34l1.42,3.28h.1L317,149.4h1.28l-2.82,6.06Z" fill="#2f292a"/>
        <path d="M318.62,155.46l2.59-3.53-.09.52-2.38-3h1.38l1.84,2.44h.45v.94H322L320,155.46Zm3.69,0V149.4h1.17v6.06Zm3.43,0-1.91-2.68h-.46v-.94h.45s1.64-2.15,1.87-2.44h1.36l-2.45,3,0-.52,2.59,3.53Z" fill="#2f292a"/>
        <path d="M328,155.46V149.4h1.16v4.07h.09l2.81-4.07h1v6.06h-1.17v-4.08h-.08s-2.57,3.7-2.82,4.08Z" fill="#2f292a"/>
        <path d="M335.91,155.46v-5.88l.45.86H334v-1h5v1h-2.37l.46-.86v5.88Z" fill="#2f292a"/>
        <path d="M339.89,155.46V149.4h3.94v1h-3.41l.64-.8v5.7l-.56-.81h3.36v1Zm.9-2.59v-.94h2.89v.94Z" fill="#2f292a"/>
        <path d="M345.06,155.55h-.25l-.22,0-.19,0,.06-1,.16,0h.13a.59.59,0,0,0,.52-.29,2.37,2.37,0,0,0,.29-.89,15.11,15.11,0,0,0,.14-1.51c0-.4.11-2,.13-2.42h4.23v6.06h-1.19v-5.88l.59.81H346.3l.65-.75c0,.43-.15,2.16-.19,2.63s-.08,1-.12,1.43a3.7,3.7,0,0,1-.25,1,1.24,1.24,0,0,1-.48.61A1.51,1.51,0,0,1,345.06,155.55Z" fill="#2f292a"/>
        <path d="M353.67,155.46h-2.28V149.4h1.17v5.11h.89a2,2,0,0,0,.7-.1.78.78,0,0,0,.4-.33,1.21,1.21,0,0,0,.13-.6,1.13,1.13,0,0,0-.09-.49.69.69,0,0,0-.25-.28,1.2,1.2,0,0,0-.33-.13,1.61,1.61,0,0,0-.37,0h-1.23v-.95h1.31a3.45,3.45,0,0,1,1.2.18,1.45,1.45,0,0,1,.73.6,2.16,2.16,0,0,1,.24,1.1,2.37,2.37,0,0,1-.21,1,1.6,1.6,0,0,1-.7.71A2.83,2.83,0,0,1,353.67,155.46Z" fill="#2f292a"/>
      </g>
      <g>
        <path d="M408.69,156.87v-2.3h6.51v2.3h-1l-.07-1.49.23.19h-4.83l.23-.19-.06,1.49Zm4.54-1.49v-5.69l.37.82h-2.92l.59-.75c0,.36-.11,1.84-.13,2.21a10.68,10.68,0,0,1-.13,1.17,3.9,3.9,0,0,1-.25.87,2.75,2.75,0,0,1-.43.69l-1.14-.11a2.39,2.39,0,0,0,.41-.58,4,4,0,0,0,.3-.92,10.23,10.23,0,0,0,.17-1.36c0-.39.11-1.88.13-2.22h4.22v5.87Z" fill="#2f292a"/>
        <path d="M416,155.57v-6.06H420v1h-3.41l.64-.8v5.7l-.56-.81H420v1Zm.9-2.59V152h2.89V153Z" fill="#2f292a"/>
        <path d="M422.6,155.57v-5.88l.45.86h-2.37v-1h5v1h-2.37l.46-.86v5.88Z" fill="#2f292a"/>
        <path d="M426.58,155.57v-6.06h3.94v1h-3.4l.63-.8v5.7l-.56-.81h3.36v1Zm.9-2.59V152h2.89V153Z" fill="#2f292a"/>
        <path d="M431.65,155.57v-6.06h1.19v6.06Zm3.56,0c-.21-.28-2.08-2.67-2.08-2.67h-.4v-1h.39l2-2.44h1.39l-2.63,3.05,0-.52s2.62,3.35,2.77,3.53Z" fill="#2f292a"/>
        <path d="M439,155.57v-5.88l.45.86h-2.36v-1h5v1h-2.37l.46-.86v5.88Z" fill="#2f292a"/>
        <path d="M443,155.57v-6.06h1.16v4.07h.09l2.81-4.07h1v6.06h-1.17v-4.08h-.08L444,155.57Z" fill="#2f292a"/>
        <path d="M451.43,155.57h-2.05v-6.06h2.38a4,4,0,0,1,1,.1,1.7,1.7,0,0,1,.65.28,1.06,1.06,0,0,1,.35.44,1.66,1.66,0,0,1,0,1.26,1.38,1.38,0,0,1-.39.47,1.93,1.93,0,0,1-.56.27v.1a2.11,2.11,0,0,1,.62.24,1.17,1.17,0,0,1,.45.46,1.54,1.54,0,0,1,.16.75,1.83,1.83,0,0,1-.12.68,1.26,1.26,0,0,1-.41.54,2.07,2.07,0,0,1-.79.35A5.45,5.45,0,0,1,451.43,155.57Zm-.89-.94h1a2,2,0,0,0,.71-.1.74.74,0,0,0,.4-.29.76.76,0,0,0,.13-.46.69.69,0,0,0-.3-.62,1.56,1.56,0,0,0-.86-.2h-1.34v-.89h1.31a1.41,1.41,0,0,0,.59-.11.77.77,0,0,0,.35-.31.89.89,0,0,0,.11-.43.69.69,0,0,0-.24-.58,1.12,1.12,0,0,0-.72-.2h-1.13Z" fill="#2f292a"/>
      </g>
      <g>
        <path d="M417.75,74.86V68.8h3.91v1h-3.22L419,69v5.88Z" fill="#2f292a"/>
        <path d="M422.62,74.86V68.8h3.94v1h-3.41l.64-.8v5.7l-.56-.81h3.36v1Zm.9-2.59v-.94h2.89v.94Z" fill="#2f292a"/>
        <path d="M427.69,74.86V68.8H430a3.45,3.45,0,0,1,1.2.18,1.39,1.39,0,0,1,.73.59,2.11,2.11,0,0,1,.24,1.08,2.4,2.4,0,0,1-.21,1,1.51,1.51,0,0,1-.69.7,2.74,2.74,0,0,1-1.28.26H428.7v-1h1.05a2,2,0,0,0,.7-.1.78.78,0,0,0,.4-.33,1.16,1.16,0,0,0,.13-.6,1.06,1.06,0,0,0-.09-.47.63.63,0,0,0-.25-.28,1.15,1.15,0,0,0-.34-.13,2.19,2.19,0,0,0-.36,0h-1.65l.57-.77v5.88Z" fill="#2f292a"/>
        <path d="M436,75a3.48,3.48,0,0,1-1.39-.26,2.5,2.5,0,0,1-1-.68,3,3,0,0,1-.58-1,3.85,3.85,0,0,1-.19-1.19,3.52,3.52,0,0,1,.36-1.6,2.64,2.64,0,0,1,1-1.13,3.23,3.23,0,0,1,1.71-.42,3.5,3.5,0,0,1,1.35.24,2.65,2.65,0,0,1,1,.68,2.94,2.94,0,0,1,.59,1,3.76,3.76,0,0,1,.19,1.22,3.5,3.5,0,0,1-.36,1.61,2.64,2.64,0,0,1-1,1.13A3.27,3.27,0,0,1,436,75Zm0-1a1.81,1.81,0,0,0,.83-.17,1.65,1.65,0,0,0,.58-.47,2.22,2.22,0,0,0,.34-.69,2.75,2.75,0,0,0,.11-.82,2.84,2.84,0,0,0-.12-.84,2.06,2.06,0,0,0-.36-.69,1.62,1.62,0,0,0-.58-.46,1.84,1.84,0,0,0-.8-.16,1.8,1.8,0,0,0-.82.17,1.57,1.57,0,0,0-.58.47,2.06,2.06,0,0,0-.36.69,2.76,2.76,0,0,0-.12.82,2.71,2.71,0,0,0,.12.82,1.88,1.88,0,0,0,.35.69,1.57,1.57,0,0,0,.58.47A1.81,1.81,0,0,0,436,74Z" fill="#2f292a"/>
        <path d="M440.08,74.86V68.8h1.16v4.07h.09l2.81-4.07h1v6.06H444V70.78h-.08l-2.82,4.08Zm2.51-6.6a2.21,2.21,0,0,1-.95-.18,1.21,1.21,0,0,1-.57-.52,1.57,1.57,0,0,1-.19-.79l.86,0a.89.89,0,0,0,.22.64.82.82,0,0,0,.63.23.8.8,0,0,0,.64-.23.84.84,0,0,0,.21-.6h.87a1.57,1.57,0,0,1-.19.79,1.23,1.23,0,0,1-.56.52A2.3,2.3,0,0,1,442.59,68.26Z" fill="#2f292a"/>
      </g>
      <g>
        <path d="M478.76,74.86V68.8h2.33a3.55,3.55,0,0,1,1.21.18,1.37,1.37,0,0,1,.72.59,2.11,2.11,0,0,1,.24,1.08,2.4,2.4,0,0,1-.21,1,1.51,1.51,0,0,1-.69.7,2.71,2.71,0,0,1-1.28.26h-1.3v-1h1a2,2,0,0,0,.7-.1.74.74,0,0,0,.4-.33,1.16,1.16,0,0,0,.14-.6,1.06,1.06,0,0,0-.1-.47.61.61,0,0,0-.24-.28,1.4,1.4,0,0,0-.34-.13l-.37,0h-1.65l.57-.77v5.88Z" fill="#2f292a"/>
        <path d="M484.22,74.86V68.8h3.94v1h-3.41l.64-.8v5.7l-.57-.81h3.37v1Zm.9-2.59v-.94H488v.94Z" fill="#2f292a"/>
        <path d="M491.33,74.86h-2.05V68.8h2.38a4.06,4.06,0,0,1,1,.1,1.65,1.65,0,0,1,.64.28,1.08,1.08,0,0,1,.36.44,1.54,1.54,0,0,1,.1.58,1.59,1.59,0,0,1-.14.68,1.19,1.19,0,0,1-.39.47,1.71,1.71,0,0,1-.56.27v.1a2.17,2.17,0,0,1,.63.24,1.22,1.22,0,0,1,.44.46,1.51,1.51,0,0,1,.17.75,1.68,1.68,0,0,1-.13.68,1.19,1.19,0,0,1-.41.54,2.18,2.18,0,0,1-.78.35A5.48,5.48,0,0,1,491.33,74.86Zm-.88-.94h1a2.06,2.06,0,0,0,.71-.1.82.82,0,0,0,.4-.29.86.86,0,0,0,.13-.46.69.69,0,0,0-.3-.62,1.5,1.5,0,0,0-.86-.2h-1.35v-.89h1.31a1.5,1.5,0,0,0,.6-.11.82.82,0,0,0,.35-.31.93.93,0,0,0,.11-.44.71.71,0,0,0-.24-.58,1.22,1.22,0,0,0-.73-.19h-1.12Z" fill="#2f292a"/>
        <path d="M497.71,75a3.57,3.57,0,0,1-1.4-.26,2.54,2.54,0,0,1-1-.68,3,3,0,0,1-.58-1,3.85,3.85,0,0,1-.19-1.19,3.52,3.52,0,0,1,.36-1.6,2.64,2.64,0,0,1,1-1.13,3.23,3.23,0,0,1,1.71-.42,3.5,3.5,0,0,1,1.35.24,2.65,2.65,0,0,1,1,.68,2.77,2.77,0,0,1,.58,1,3.76,3.76,0,0,1,.2,1.22,3.5,3.5,0,0,1-.36,1.61,2.7,2.7,0,0,1-1,1.13A3.27,3.27,0,0,1,497.71,75Zm0-1a1.81,1.81,0,0,0,.83-.17,1.65,1.65,0,0,0,.58-.47,2.47,2.47,0,0,0,.34-.69,2.75,2.75,0,0,0,.11-.82,2.84,2.84,0,0,0-.12-.84,2.06,2.06,0,0,0-.36-.69,1.62,1.62,0,0,0-.58-.46,1.84,1.84,0,0,0-.8-.16,1.8,1.8,0,0,0-.82.17,1.68,1.68,0,0,0-.59.47,2.24,2.24,0,0,0-.35.69,2.76,2.76,0,0,0-.12.82,2.71,2.71,0,0,0,.12.82,2,2,0,0,0,.34.69,1.68,1.68,0,0,0,.59.47A1.81,1.81,0,0,0,497.69,74Z" fill="#2f292a"/>
        <path d="M501.91,75h-.25l-.22,0-.19,0,.06-1,.16,0h.13a.59.59,0,0,0,.52-.29,2.37,2.37,0,0,0,.29-.88c.06-.4.1-.91.14-1.52,0-.4.11-2,.13-2.42h4.23v6.06h-1.19V69l.59.81h-3.16l.65-.75c0,.43-.16,2.16-.19,2.63s-.08,1-.13,1.43a4.12,4.12,0,0,1-.24,1,1.24,1.24,0,0,1-.48.61A1.51,1.51,0,0,1,501.91,75Z" fill="#2f292a"/>
        <path d="M508.23,74.86V68.8h1.2v6.06Zm.85-2.56v-1h2v1ZM513.49,75a3.45,3.45,0,0,1-1.39-.26,2.5,2.5,0,0,1-1-.68,2.94,2.94,0,0,1-.56-1,3.85,3.85,0,0,1-.19-1.19,3.78,3.78,0,0,1,.2-1.23,3,3,0,0,1,.57-1,2.56,2.56,0,0,1,1-.67,3.45,3.45,0,0,1,1.34-.24,3.52,3.52,0,0,1,1.34.24,2.7,2.7,0,0,1,1,.68,2.77,2.77,0,0,1,.58,1,3.76,3.76,0,0,1,.2,1.22,3.5,3.5,0,0,1-.36,1.61,2.77,2.77,0,0,1-1,1.13A3.22,3.22,0,0,1,513.49,75Zm0-1a1.73,1.73,0,0,0,.81-.17,1.53,1.53,0,0,0,.57-.47,2.25,2.25,0,0,0,.35-.69,3.12,3.12,0,0,0,.11-.82,2.84,2.84,0,0,0-.12-.84,2.51,2.51,0,0,0-.36-.69,1.62,1.62,0,0,0-.58-.46,2,2,0,0,0-1.6,0,1.65,1.65,0,0,0-.58.47,2.22,2.22,0,0,0-.34.69,2.75,2.75,0,0,0-.11.82,2.71,2.71,0,0,0,.11.82,2,2,0,0,0,.33.69,1.65,1.65,0,0,0,.58.47A1.81,1.81,0,0,0,513.47,74Z" fill="#2f292a"/>
        <path d="M522.3,76.16l-.06-1.49.22.19h-4.9V68.8h1.2v5.87l-.56-.81h5.1v2.3Zm-1-1.49V68.8h1.2v5.87Z" fill="#2f292a"/>
        <path d="M524.15,74.86V68.8h1.16v4.07h.08l2.82-4.07h1v6.06h-1.17V70.78H528l-2.82,4.08Z" fill="#2f292a"/>
        <path d="M533.37,75a3.48,3.48,0,0,1-1.39-.26,2.5,2.5,0,0,1-1-.68,3,3,0,0,1-.58-1,3.85,3.85,0,0,1-.19-1.19,3.52,3.52,0,0,1,.36-1.6,2.64,2.64,0,0,1,1-1.13,3.23,3.23,0,0,1,1.71-.42,3.5,3.5,0,0,1,1.35.24,2.65,2.65,0,0,1,1,.68,2.94,2.94,0,0,1,.59,1,3.76,3.76,0,0,1,.19,1.22,3.5,3.5,0,0,1-.36,1.61,2.64,2.64,0,0,1-1,1.13A3.27,3.27,0,0,1,533.37,75Zm0-1a1.81,1.81,0,0,0,.83-.17,1.65,1.65,0,0,0,.58-.47,2.22,2.22,0,0,0,.34-.69,2.75,2.75,0,0,0,.11-.82,2.84,2.84,0,0,0-.12-.84,2.06,2.06,0,0,0-.36-.69,1.62,1.62,0,0,0-.58-.46,1.84,1.84,0,0,0-.8-.16,1.8,1.8,0,0,0-.82.17,1.57,1.57,0,0,0-.58.47,2.06,2.06,0,0,0-.36.69,2.76,2.76,0,0,0-.12.82,2.71,2.71,0,0,0,.12.82,2,2,0,0,0,.34.69,1.68,1.68,0,0,0,.59.47A1.81,1.81,0,0,0,533.35,74Z" fill="#2f292a"/>
        <path d="M537.47,74.86V68.8h1.19v6.06Zm.84-2.56v-1h3.4v1Zm3,2.56V68.8h1.2v6.06Z" fill="#2f292a"/>
        <path d="M543.85,74.86V68.8h3.93v1h-3.4L545,69v5.7l-.56-.81h3.36v1Zm.89-2.59v-.94h2.89v.94Z" fill="#2f292a"/>
        <path d="M548.91,74.86V68.8h2.33a3.45,3.45,0,0,1,1.2.18,1.35,1.35,0,0,1,.73.59,2.11,2.11,0,0,1,.24,1.08,2.4,2.4,0,0,1-.21,1,1.51,1.51,0,0,1-.69.7,2.71,2.71,0,0,1-1.28.26h-1.31v-1H551a2,2,0,0,0,.7-.1.78.78,0,0,0,.4-.33,1.16,1.16,0,0,0,.13-.6,1.06,1.06,0,0,0-.09-.47.57.57,0,0,0-.25-.28,1.2,1.2,0,0,0-.33-.13l-.37,0h-1.65l.57-.77v5.88Z" fill="#2f292a"/>
      </g>
      <g>
        <path d="M495.41,154.93a4.51,4.51,0,0,1-1.37-.18,2.5,2.5,0,0,1-.91-.52,2,2,0,0,1-.5-.8,2.86,2.86,0,0,1-.16-1,2.79,2.79,0,0,1,.29-1.32,2,2,0,0,1,.92-.88,3.79,3.79,0,0,1,1.67-.32h.45v.91h-.43a2.09,2.09,0,0,0-1,.19,1.18,1.18,0,0,0-.54.54,2.1,2.1,0,0,0-.16.88,2,2,0,0,0,.16.85,1.22,1.22,0,0,0,.55.55,2.31,2.31,0,0,0,1,.18h.44v.91Zm-.09.67v-.83l0,0v-4.64l0,0v-.84h1.19v.84l0,0v4.64l0,0v.83Zm.66-.67,0-.91h.44a2.31,2.31,0,0,0,1-.18,1.25,1.25,0,0,0,.54-.55,2,2,0,0,0,.17-.85,2.09,2.09,0,0,0-.17-.88,1.11,1.11,0,0,0-.53-.54,2.09,2.09,0,0,0-1-.19H496v-.91h.45a3.74,3.74,0,0,1,1.66.32,2,2,0,0,1,.93.88,2.79,2.79,0,0,1,.29,1.32,2.68,2.68,0,0,1-.29,1.28,2,2,0,0,1-.93.89,3.8,3.8,0,0,1-1.72.32Z" fill="#2f292a"/>
        <path d="M500.32,155.46V149.4h1.16v4.07h.09l2.81-4.07h1v6.06h-1.17v-4.08h-.08s-2.57,3.7-2.82,4.08Z" fill="#2f292a"/>
        <path d="M506.81,155.55h-.25l-.22,0-.19,0,.06-1,.16,0h.13a.59.59,0,0,0,.52-.29,2.37,2.37,0,0,0,.29-.89c.06-.39.1-.9.14-1.51,0-.4.11-2,.13-2.42h4.23v6.06h-1.19v-5.88l.59.81h-3.16l.65-.75c0,.43-.16,2.16-.19,2.63s-.08,1-.13,1.43a4.12,4.12,0,0,1-.24,1,1.24,1.24,0,0,1-.48.61A1.51,1.51,0,0,1,506.81,155.55Z" fill="#2f292a"/>
        <path d="M516,155.57a3.57,3.57,0,0,1-1.4-.26,2.54,2.54,0,0,1-1-.68,3,3,0,0,1-.58-1,3.85,3.85,0,0,1-.19-1.19,3.52,3.52,0,0,1,.36-1.6,2.58,2.58,0,0,1,1-1.13,3.23,3.23,0,0,1,1.71-.42,3.5,3.5,0,0,1,1.35.24,2.65,2.65,0,0,1,1,.68,2.77,2.77,0,0,1,.58,1,3.76,3.76,0,0,1,.2,1.22,3.5,3.5,0,0,1-.36,1.61,2.7,2.7,0,0,1-1,1.13A3.27,3.27,0,0,1,516,155.57Zm0-1a1.74,1.74,0,0,0,.82-.17,1.49,1.49,0,0,0,.58-.47,2.25,2.25,0,0,0,.35-.69,3.12,3.12,0,0,0,.11-.82,2.84,2.84,0,0,0-.12-.84,2.06,2.06,0,0,0-.36-.69,1.62,1.62,0,0,0-.58-.46,1.84,1.84,0,0,0-.8-.16,1.8,1.8,0,0,0-.82.17,1.68,1.68,0,0,0-.59.47,2.24,2.24,0,0,0-.35.69,2.76,2.76,0,0,0-.12.82,2.71,2.71,0,0,0,.12.82,2,2,0,0,0,.34.69,1.68,1.68,0,0,0,.59.47A1.81,1.81,0,0,0,516,154.57Z" fill="#2f292a"/>
        <path d="M522.93,155.57a3.65,3.65,0,0,1-1.32-.23,2.84,2.84,0,0,1-1-.65,3,3,0,0,1-.63-1,3.72,3.72,0,0,1-.22-1.27,3.47,3.47,0,0,1,.38-1.63,2.76,2.76,0,0,1,1.05-1.12,3.15,3.15,0,0,1,1.63-.4,5.49,5.49,0,0,1,.58,0l.55.11.48.15.4.18-.1,1.11a5.48,5.48,0,0,0-.63-.33,4,4,0,0,0-.6-.18,3.64,3.64,0,0,0-.56,0,2,2,0,0,0-1,.25,1.74,1.74,0,0,0-.69.73,2.38,2.38,0,0,0-.25,1.15,2.43,2.43,0,0,0,.13.82,2.13,2.13,0,0,0,.39.69,1.85,1.85,0,0,0,.65.47,2.31,2.31,0,0,0,.91.16,2.88,2.88,0,0,0,.41,0l.42-.09a2.66,2.66,0,0,0,.41-.16,2.92,2.92,0,0,0,.4-.25l.07,1.1a1.86,1.86,0,0,1-.4.19c-.14,0-.3.09-.46.13a3.85,3.85,0,0,1-.49.07A4.36,4.36,0,0,1,522.93,155.57Z" fill="#2f292a"/>
        <path d="M528.72,155.57a3.53,3.53,0,0,1-1.4-.26,2.65,2.65,0,0,1-1-.68,3.14,3.14,0,0,1-.57-1,3.58,3.58,0,0,1-.19-1.19,3.65,3.65,0,0,1,.35-1.6A2.67,2.67,0,0,1,527,149.7a3.22,3.22,0,0,1,1.7-.42,3.55,3.55,0,0,1,1.36.24,2.62,2.62,0,0,1,1,.68,2.79,2.79,0,0,1,.59,1,3.76,3.76,0,0,1,.2,1.22,3.5,3.5,0,0,1-.36,1.61,2.72,2.72,0,0,1-1.05,1.13A3.23,3.23,0,0,1,528.72,155.57Zm0-1a1.77,1.77,0,0,0,.82-.17,1.57,1.57,0,0,0,.58-.47,2.25,2.25,0,0,0,.35-.69,3.12,3.12,0,0,0,.11-.82,2.84,2.84,0,0,0-.12-.84,2.51,2.51,0,0,0-.36-.69,1.66,1.66,0,0,0-.59-.46,2,2,0,0,0-1.61,0,1.6,1.6,0,0,0-.59.47,2,2,0,0,0-.35.69,2.76,2.76,0,0,0-.12.82,3.07,3.07,0,0,0,.11.82,2.24,2.24,0,0,0,.35.69,1.6,1.6,0,0,0,.59.47A1.78,1.78,0,0,0,528.7,154.57Z" fill="#2f292a"/>
        <path d="M535.39,154.93a4.55,4.55,0,0,1-1.37-.18,2.45,2.45,0,0,1-.9-.52,2.11,2.11,0,0,1-.51-.8,2.86,2.86,0,0,1-.16-1,2.92,2.92,0,0,1,.29-1.32,2,2,0,0,1,.93-.88,3.74,3.74,0,0,1,1.66-.32h.45v.91h-.43a2,2,0,0,0-1,.19,1.09,1.09,0,0,0-.54.54,2.09,2.09,0,0,0-.17.88,2,2,0,0,0,.17.85,1.15,1.15,0,0,0,.54.55,2.31,2.31,0,0,0,1,.18h.44l0,.91Zm-.09.67v-.83l0,0v-4.64l0,0v-.84h1.19v.84l0,0v4.64l0,0v.83Zm.67-.67V154h.44a2.31,2.31,0,0,0,1-.18,1.15,1.15,0,0,0,.54-.55,1.84,1.84,0,0,0,.17-.85,2.1,2.1,0,0,0-.16-.88,1.13,1.13,0,0,0-.54-.54,2.07,2.07,0,0,0-1-.19H536l0-.91h.46a3.77,3.77,0,0,1,1.66.32,2,2,0,0,1,.93.88,2.92,2.92,0,0,1,.29,1.32,2.8,2.8,0,0,1-.29,1.28,2,2,0,0,1-.94.89,3.78,3.78,0,0,1-1.71.32Z" fill="#2f292a"/>
      </g>
    </g>
    <g>
      <g>
        <path d="M35.67,176.36l1.83-5.05h.85c.09.26,1.71,4.78,1.8,5.05h-.66c-.11-.3-1.54-4.48-1.54-4.48h-.06s-1.46,4.18-1.57,4.48Zm.94-1.27.06-.5h2.55l.05.5Z" fill="#6b6b6c"/>
        <path d="M41.78,176.36c.11-.21.54-1.11.66-1.35l-1.9-3.7h.72l1.5,3.05h.06l1.44-3.05H45l-2.49,5.05Z" fill="#6b6b6c"/>
        <path d="M47.09,176.36v-5l.26.48h-2v-.57h4.1v.57h-2l.26-.48v5Z" fill="#6b6b6c"/>
        <path d="M50.34,176.36v-5.05H51v3.95H51l2.8-3.95h.55v5.05h-.63v-4h-.05l-2.81,4Z" fill="#6b6b6c"/>
        <path d="M58.52,176.36v-2.1a3,3,0,0,1-.36.14,1.94,1.94,0,0,1-.46.11,3.27,3.27,0,0,1-.57.05,2.38,2.38,0,0,1-.93-.17,1.24,1.24,0,0,1-.58-.5,1.54,1.54,0,0,1-.21-.84v-1.74h.64V173a1.26,1.26,0,0,0,.13.57.81.81,0,0,0,.4.35,1.87,1.87,0,0,0,.72.12,3.3,3.3,0,0,0,.47,0,2.45,2.45,0,0,0,.41-.11,2.07,2.07,0,0,0,.34-.15v-2.42h.64v5.05Z" fill="#6b6b6c"/>
        <path d="M60.47,176.36v-5.05h.64v5.05Zm.42-2.28v-.56h3.18v.56Zm2.94,2.28v-5.05h.64v5.05Z" fill="#6b6b6c"/>
        <path d="M67.41,176.36H65.78v-5.05h.63v4.52h.9a2.18,2.18,0,0,0,.74-.11.79.79,0,0,0,.43-.34,1.24,1.24,0,0,0,.14-.62,1,1,0,0,0-.1-.5.67.67,0,0,0-.27-.28,1,1,0,0,0-.35-.12l-.37,0h-1.2v-.54h1.24a2.58,2.58,0,0,1,1,.16,1.16,1.16,0,0,1,.57.47,1.74,1.74,0,0,1,.19.84,1.84,1.84,0,0,1-.18.83,1.15,1.15,0,0,1-.57.56A2.51,2.51,0,0,1,67.41,176.36Zm2.73,0v-5.05h.65v5.05Z" fill="#6b6b6c"/>
        <path d="M72.1,176.36v-5.05h.63v3.95h0l2.8-3.95h.55v5.05h-.62v-4h-.06l-2.8,4Zm2-5.59a1.58,1.58,0,0,1-.73-.15,1.06,1.06,0,0,1-.43-.41,1.15,1.15,0,0,1-.15-.59l.5,0a.76.76,0,0,0,.2.57.84.84,0,0,0,.61.21.81.81,0,0,0,.61-.21.76.76,0,0,0,.2-.55h.49a1.15,1.15,0,0,1-.14.59,1,1,0,0,1-.42.41A1.6,1.6,0,0,1,74.1,170.77Z" fill="#6b6b6c"/>
      </g>
      <g>
        <path d="M19.06,94.39v-5h4v5H22.4v-5l.23.46H19.48l.22-.46v5Z" fill="#6b6b6c"/>
        <path d="M26.64,94.47a2.85,2.85,0,0,1-1.08-.2,2.3,2.3,0,0,1-.81-.54,2.38,2.38,0,0,1-.52-.83,3,3,0,0,1-.18-1,2.87,2.87,0,0,1,.32-1.36,2.34,2.34,0,0,1,.87-.92,2.55,2.55,0,0,1,1.31-.33,4,4,0,0,1,.49,0l.45.1a3.56,3.56,0,0,1,.39.13l.31.14-.06.62a3.3,3.3,0,0,0-1-.41,2.81,2.81,0,0,0-.49,0,1.94,1.94,0,0,0-1,.25,1.7,1.7,0,0,0-.67.71,2.31,2.31,0,0,0-.24,1.09,2.63,2.63,0,0,0,.12.8,2,2,0,0,0,.38.65,1.77,1.77,0,0,0,.62.45,2.27,2.27,0,0,0,.86.16,2.19,2.19,0,0,0,.36,0,2.29,2.29,0,0,0,.36-.07,2.09,2.09,0,0,0,.35-.13,3,3,0,0,0,.34-.2l.05.61a1.71,1.71,0,0,1-.33.17,3.44,3.44,0,0,1-.38.11l-.4.07Z" fill="#6b6b6c"/>
        <path d="M29.21,94.39v-5h.62v4h.06l2.8-4h.55v5h-.63v-4h0S30,94,29.75,94.39Z" fill="#6b6b6c"/>
        <path d="M34.15,94.39l1.67-2.68v.18l-1.67-2.55h.74l1.32,2h.06l1.28-2h.72c-.16.27-1.63,2.6-1.63,2.6v-.21l1.81,2.66h-.76l-1.43-2.12H36.2l-1.32,2.12Z" fill="#6b6b6c"/>
        <path d="M41.62,94.47a2.8,2.8,0,0,1-1.12-.21,2.29,2.29,0,0,1-1.28-1.4,3,3,0,0,1-.16-1,2.92,2.92,0,0,1,.3-1.33,2.43,2.43,0,0,1,.86-.94,2.62,2.62,0,0,1,1.38-.34,2.65,2.65,0,0,1,1.09.2,2.18,2.18,0,0,1,.8.56,2.44,2.44,0,0,1,.48.83,3.11,3.11,0,0,1,.16,1,2.93,2.93,0,0,1-.29,1.34,2.33,2.33,0,0,1-.86.93A2.57,2.57,0,0,1,41.62,94.47Zm0-.55a1.92,1.92,0,0,0,.83-.17,1.65,1.65,0,0,0,.58-.46,1.88,1.88,0,0,0,.34-.66,2.81,2.81,0,0,0,.11-.77,2.64,2.64,0,0,0-.12-.81A1.93,1.93,0,0,0,43,90.4a1.61,1.61,0,0,0-.59-.44,1.84,1.84,0,0,0-.8-.16,1.92,1.92,0,0,0-.83.17,1.66,1.66,0,0,0-.59.45,2.08,2.08,0,0,0-.35.66,2.59,2.59,0,0,0,0,1.56,1.92,1.92,0,0,0,.34.65,1.58,1.58,0,0,0,.59.46A1.93,1.93,0,0,0,41.61,93.92Z" fill="#6b6b6c"/>
        <path d="M45.15,94.39v-5h4v5h-.64v-5l.23.46H45.56l.23-.46v5Z" fill="#6b6b6c"/>
        <path d="M50,94.39l1.83-5h.84c.1.26,1.71,4.78,1.81,5H53.8l-1.53-4.47h-.06s-1.46,4.18-1.57,4.47Zm.94-1.27,0-.5h2.56l.05.5Z" fill="#6b6b6c"/>
        <path d="M56.62,94.39v-5l.26.48h-2v-.57H59v.57H57l.26-.48v5Z" fill="#6b6b6c"/>
        <path d="M59.87,94.39v-5h.63v4h0l2.8-4h.55v5h-.62v-4h-.06l-2.8,4Z" fill="#6b6b6c"/>
        <path d="M68.05,94.39v-2.1a2.46,2.46,0,0,1-.36.14,2.56,2.56,0,0,1-.46.12,3.32,3.32,0,0,1-.57,0,2.21,2.21,0,0,1-.93-.17,1.19,1.19,0,0,1-.58-.5,1.54,1.54,0,0,1-.21-.84V89.34h.65V91a1.2,1.2,0,0,0,.12.57.75.75,0,0,0,.41.35,1.78,1.78,0,0,0,.71.12,2.29,2.29,0,0,0,.47,0,2.24,2.24,0,0,0,.41-.1l.34-.15V89.34h.64v5Z" fill="#6b6b6c"/>
        <path d="M70,94.39v-5h3.14v.55H70.27l.36-.46V94.3l-.32-.46h2.84v.55Zm.49-2.29v-.54H73v.54Z" fill="#6b6b6c"/>
        <path d="M76.5,94.47a2.85,2.85,0,0,1-1.08-.2,2.34,2.34,0,0,1-.82-.54,2.38,2.38,0,0,1-.52-.83,3,3,0,0,1-.17-1,2.87,2.87,0,0,1,.31-1.36,2.29,2.29,0,0,1,.88-.92,2.49,2.49,0,0,1,1.3-.33,3.91,3.91,0,0,1,.49,0l.45.1a3.56,3.56,0,0,1,.39.13,2.33,2.33,0,0,1,.31.14l-.05.62a3.29,3.29,0,0,0-.54-.26,2.46,2.46,0,0,0-.51-.15,2.81,2.81,0,0,0-.49,0,2,2,0,0,0-1,.25,1.84,1.84,0,0,0-.67.71,2.31,2.31,0,0,0-.24,1.09,2.36,2.36,0,0,0,.13.8,2,2,0,0,0,.37.65,1.87,1.87,0,0,0,.62.45,2.33,2.33,0,0,0,.87.16,2.19,2.19,0,0,0,.36,0,2,2,0,0,0,.35-.07,2.09,2.09,0,0,0,.35-.13,2.33,2.33,0,0,0,.34-.2l.05.61a1.71,1.71,0,0,1-.33.17l-.37.11-.4.07Z" fill="#6b6b6c"/>
        <path d="M79.06,94.39v-5h.64v5Zm3.08,0L80,92h-.34v-.53H80l2.08-2.17h.78L80.4,91.87v-.29L83,94.39Z" fill="#6b6b6c"/>
        <path d="M83.82,94.39v-5h.62v4h.06l2.79-4h.56v5h-.63v-4h0l-2.81,4Z" fill="#6b6b6c"/>
        <path d="M89.16,94.39v-5h.63v4h0l2.8-4h.55v5h-.63v-4h0S90,94,89.7,94.39Zm2-5.59a1.58,1.58,0,0,1-.73-.15,1,1,0,0,1-.43-.41,1.15,1.15,0,0,1-.15-.59l.49,0a.77.77,0,0,0,.21.57.82.82,0,0,0,.61.21.86.86,0,0,0,.61-.2.8.8,0,0,0,.2-.56h.49a1.25,1.25,0,0,1-.14.59,1,1,0,0,1-.43.41A1.55,1.55,0,0,1,91.16,88.8Z" fill="#6b6b6c"/>
      </g>
      <g>
        <path d="M112.71,94.39v-5h.63v4h0l2.8-4h.55v5h-.62v-4h-.06l-2.8,4Z" fill="#6b6b6c"/>
        <path d="M120.34,94.47a2.85,2.85,0,0,1-1.08-.2,2.33,2.33,0,0,1-1.33-1.37,3,3,0,0,1-.18-1,2.87,2.87,0,0,1,.32-1.36,2.34,2.34,0,0,1,.87-.92,2.55,2.55,0,0,1,1.31-.33,3.91,3.91,0,0,1,.49,0l.45.1a3.56,3.56,0,0,1,.39.13l.31.14,0,.62a3.29,3.29,0,0,0-.54-.26,2.88,2.88,0,0,0-.51-.15,2.81,2.81,0,0,0-.49,0,1.94,1.94,0,0,0-1,.25,1.77,1.77,0,0,0-.67.71,2.31,2.31,0,0,0-.24,1.09,2.36,2.36,0,0,0,.13.8,1.83,1.83,0,0,0,.37.65,1.77,1.77,0,0,0,.62.45,2.36,2.36,0,0,0,1.23.13,2.17,2.17,0,0,0,.35-.07,2.09,2.09,0,0,0,.35-.13,2.33,2.33,0,0,0,.34-.2l0,.61a1.71,1.71,0,0,1-.33.17l-.37.11-.41.07Z" fill="#6b6b6c"/>
        <path d="M124.2,94.39v-5l.26.48h-2v-.57h4.11v.57h-2l.26-.48v5Z" fill="#6b6b6c"/>
        <path d="M127.45,94.39v-5h3.14v.55h-2.87l.36-.46V94.3l-.32-.46h2.84v.55Zm.49-2.29v-.54h2.51v.54Z" fill="#6b6b6c"/>
        <path d="M131.66,94.39v-5h1.78a2.61,2.61,0,0,1,1,.15A1.09,1.09,0,0,1,135,90a1.58,1.58,0,0,1,.19.82,2,2,0,0,1-.17.83,1.24,1.24,0,0,1-.57.56,2.42,2.42,0,0,1-1.1.21H132.2v-.53h1a2.18,2.18,0,0,0,.74-.11.78.78,0,0,0,.43-.34,1.2,1.2,0,0,0,.14-.61,1,1,0,0,0-.11-.5.62.62,0,0,0-.26-.27,1.09,1.09,0,0,0-.36-.12,2.31,2.31,0,0,0-.37,0H132l.31-.44v5Z" fill="#6b6b6c"/>
        <path d="M138.36,94.47a2.8,2.8,0,0,1-1.12-.21,2.29,2.29,0,0,1-1.28-1.4,3,3,0,0,1-.16-1,2.92,2.92,0,0,1,.3-1.33,2.43,2.43,0,0,1,.86-.94,2.62,2.62,0,0,1,1.38-.34,2.65,2.65,0,0,1,1.09.2,2.18,2.18,0,0,1,.8.56,2.44,2.44,0,0,1,.48.83,3.12,3.12,0,0,1,.17,1,2.93,2.93,0,0,1-.3,1.34,2.33,2.33,0,0,1-.86.93A2.57,2.57,0,0,1,138.36,94.47Zm0-.55a1.92,1.92,0,0,0,.83-.17,1.56,1.56,0,0,0,.58-.46,1.88,1.88,0,0,0,.34-.66,2.81,2.81,0,0,0,.11-.77,2.64,2.64,0,0,0-.12-.81,1.93,1.93,0,0,0-.35-.65,1.53,1.53,0,0,0-.59-.44,1.84,1.84,0,0,0-.8-.16,1.92,1.92,0,0,0-.83.17,1.66,1.66,0,0,0-.59.45,2.08,2.08,0,0,0-.35.66,2.59,2.59,0,0,0,0,1.56,1.92,1.92,0,0,0,.34.65,1.58,1.58,0,0,0,.59.46A2,2,0,0,0,138.35,93.92Z" fill="#6b6b6c"/>
        <path d="M141.89,94.39v-5h.63v4h0l2.8-4h.55v5h-.63v-4h0l-2.8,4Z" fill="#6b6b6c"/>
        <path d="M146.67,95.48V93.84h5.27v1.64h-.55l0-1.19.16.1h-4.4l.15-.1,0,1.19Zm4-1.19V89.43l.24.46h-2.62l.33-.41c0,.32-.1,1.61-.13,1.94a7.39,7.39,0,0,1-.12,1.08,3.62,3.62,0,0,1-.24.8,2.85,2.85,0,0,1-.38.63l-.62-.07a2.75,2.75,0,0,0,.37-.58,4.07,4.07,0,0,0,.26-.81,8.34,8.34,0,0,0,.15-1.19c0-.34.11-1.64.13-1.94h3.27v5Z" fill="#6b6b6c"/>
        <path d="M152.79,94.39v-5h.64v5Zm.41-2.28v-.55h3.19v.55Zm2.94,2.28v-5h.65v5Z" fill="#6b6b6c"/>
        <path d="M159.73,94.39H158.1v-5h.63v4.52h.9a2.18,2.18,0,0,0,.74-.11.82.82,0,0,0,.43-.34,1.24,1.24,0,0,0,.14-.62,1,1,0,0,0-.11-.5.64.64,0,0,0-.26-.28,1.09,1.09,0,0,0-.36-.12l-.37,0h-1.19v-.53h1.23a2.61,2.61,0,0,1,1,.15,1.06,1.06,0,0,1,.56.48,1.57,1.57,0,0,1,.19.83,2,2,0,0,1-.17.83,1.28,1.28,0,0,1-.58.57A2.59,2.59,0,0,1,159.73,94.39Zm2.72,0v-5h.66v5Z" fill="#6b6b6c"/>
        <path d="M164.42,94.39v-5H165v4h.06l2.8-4h.55v5h-.63v-4h0s-2.55,3.61-2.81,4Zm2-5.59a1.55,1.55,0,0,1-.73-.15,1,1,0,0,1-.43-.41,1.15,1.15,0,0,1-.15-.59l.49,0a.77.77,0,0,0,.21.57.82.82,0,0,0,.61.21.86.86,0,0,0,.61-.2.8.8,0,0,0,.2-.56h.49a1.25,1.25,0,0,1-.14.59,1,1,0,0,1-.43.41A1.55,1.55,0,0,1,166.42,88.8Z" fill="#6b6b6c"/>
      </g>
      <g>
        <path d="M108.25,176.46l-.43,0-.4-.07-.38-.11a2.55,2.55,0,0,1-.33-.17l.05-.61a1.68,1.68,0,0,0,.34.2,2.09,2.09,0,0,0,.35.13l.36.07.37,0a2.2,2.2,0,0,0,1.15-.26,1.65,1.65,0,0,0,.65-.71,2.33,2.33,0,0,0,.21-1v-.18a2.29,2.29,0,0,0-.14-.81,1.72,1.72,0,0,0-.39-.62,1.47,1.47,0,0,0-.59-.38,2,2,0,0,0-.75-.14,2.94,2.94,0,0,0-.51,0,3.46,3.46,0,0,0-.53.14,3.4,3.4,0,0,0-.54.27l-.06-.62.31-.14.41-.13a3.11,3.11,0,0,1,.46-.1,4.19,4.19,0,0,1,.5,0,2.54,2.54,0,0,1,1,.19,2.11,2.11,0,0,1,.78.54,2.44,2.44,0,0,1,.5.82,3.23,3.23,0,0,1,.17,1.06,2.91,2.91,0,0,1-.3,1.34,2.23,2.23,0,0,1-.87.93A2.73,2.73,0,0,1,108.25,176.46Zm-.61-2.37v-.53h2.69v.53Z" fill="#6b6b6c"/>
        <path d="M111.84,176.38v-5h4v5h-.64v-5l.23.46h-3.15l.22-.46v5Z" fill="#6b6b6c"/>
        <path d="M117.13,176.38v-5h.63v3.95h0l2.8-3.95h.55v5h-.62v-4h-.06l-2.8,4Z" fill="#6b6b6c"/>
        <path d="M122.35,176.44h-.16l-.15,0-.13,0,0-.56.15,0h.11a.52.52,0,0,0,.48-.26,2.15,2.15,0,0,0,.25-.79c0-.36.09-.82.13-1.38l.12-2.11h3.3v5h-.64v-5l.34.46h-2.76l.36-.42c0,.36-.12,1.82-.15,2.21s-.06.88-.1,1.23a3.55,3.55,0,0,1-.19.86,1,1,0,0,1-.36.51A1,1,0,0,1,122.35,176.44Z" fill="#6b6b6c"/>
        <path d="M127.8,176.38v-5h3.14v.55h-2.87l.36-.46v4.87l-.32-.46H131v.55Zm.49-2.29v-.54h2.51v.54Z" fill="#6b6b6c"/>
        <path d="M132,176.38v-5h4v5h-.65v-5l.23.46h-3.15l.23-.46v5Z" fill="#6b6b6c"/>
        <path d="M138.59,176.38v-5l.26.48h-2v-.57H141v.57h-2l.25-.48v5Z" fill="#6b6b6c"/>
        <path d="M144.1,176.46a2.8,2.8,0,0,1-1.12-.21,2.29,2.29,0,0,1-1.28-1.4,3,3,0,0,1-.16-1,2.92,2.92,0,0,1,.3-1.33,2.36,2.36,0,0,1,.86-.94,2.62,2.62,0,0,1,1.38-.34,2.65,2.65,0,0,1,1.09.2,2.18,2.18,0,0,1,.8.56,2.44,2.44,0,0,1,.48.83,3.12,3.12,0,0,1,.17,1,2.86,2.86,0,0,1-.3,1.33,2.3,2.3,0,0,1-.86.94A2.66,2.66,0,0,1,144.1,176.46Zm0-.55a1.92,1.92,0,0,0,.83-.17,1.56,1.56,0,0,0,.58-.46,2,2,0,0,0,.34-.66,2.87,2.87,0,0,0,.11-.77,2.64,2.64,0,0,0-.12-.81,1.93,1.93,0,0,0-.35-.65,1.61,1.61,0,0,0-.59-.44,1.84,1.84,0,0,0-.8-.16,1.78,1.78,0,0,0-.83.17,1.66,1.66,0,0,0-.59.45,2.08,2.08,0,0,0-.35.66,2.59,2.59,0,0,0,0,1.56,1.92,1.92,0,0,0,.34.65,1.58,1.58,0,0,0,.59.46A2,2,0,0,0,144.09,175.91Z" fill="#6b6b6c"/>
        <path d="M147.63,176.38v-5h.62v3.95h.06l2.8-3.95h.55v5H151v-4H151l-2.81,4Z" fill="#6b6b6c"/>
        <path d="M152.41,177.47v-1.64h5.27v1.64h-.55l0-1.19.16.1h-4.4l.15-.1,0,1.19Zm4-1.19v-4.86l.24.46H154l.33-.41c0,.32-.11,1.61-.13,1.94a7.26,7.26,0,0,1-.13,1.08,3.17,3.17,0,0,1-.23.8,2.55,2.55,0,0,1-.39.63l-.62-.07a2.43,2.43,0,0,0,.38-.58,4.07,4.07,0,0,0,.26-.81,8.34,8.34,0,0,0,.15-1.19c0-.34.11-1.64.12-1.94H157v4.95Z" fill="#6b6b6c"/>
        <path d="M158.52,176.38v-5h.64v5Zm.42-2.28v-.55h3.19v.55Zm2.94,2.28v-5h.64v5Z" fill="#6b6b6c"/>
        <path d="M165.47,176.38h-1.64v-5h.64v4.52h.9a2.18,2.18,0,0,0,.74-.11.82.82,0,0,0,.43-.34,1.24,1.24,0,0,0,.13-.62,1,1,0,0,0-.1-.5.65.65,0,0,0-.26-.28,1.09,1.09,0,0,0-.36-.12l-.37,0h-1.2v-.53h1.24a2.65,2.65,0,0,1,1,.15,1.06,1.06,0,0,1,.56.48,1.57,1.57,0,0,1,.19.83,2,2,0,0,1-.17.83,1.28,1.28,0,0,1-.58.57A2.59,2.59,0,0,1,165.47,176.38Zm2.72,0v-5h.66v5Z" fill="#6b6b6c"/>
        <path d="M170.16,176.38v-5h.62v3.95h.06l2.8-3.95h.55v5h-.63v-4h-.05l-2.81,4Zm2-5.59a1.55,1.55,0,0,1-.73-.15,1,1,0,0,1-.44-.41,1.25,1.25,0,0,1-.14-.59l.49,0a.77.77,0,0,0,.21.57.82.82,0,0,0,.61.21.78.78,0,0,0,.6-.21.72.72,0,0,0,.21-.55h.49a1.25,1.25,0,0,1-.14.59,1,1,0,0,1-.43.41A1.58,1.58,0,0,1,172.16,170.79Z" fill="#6b6b6c"/>
      </g>
      <g>
        <path d="M210,176.36v-5.05h.64v5.05Zm3.08,0L210.89,174h-.34v-.53h.34l2.08-2.17h.78l-2.43,2.52,0-.28,2.57,2.81Z" fill="#6b6b6c"/>
        <path d="M217,176.44a2.76,2.76,0,0,1-1.12-.21,2.28,2.28,0,0,1-.81-.57,2.54,2.54,0,0,1-.48-.83,3.32,3.32,0,0,1-.16-1,2.92,2.92,0,0,1,.3-1.33,2.32,2.32,0,0,1,.87-.94,2.62,2.62,0,0,1,1.38-.35,2.68,2.68,0,0,1,1.09.21,2.15,2.15,0,0,1,.79.56,2.23,2.23,0,0,1,.49.83,3.07,3.07,0,0,1,.16,1,2.89,2.89,0,0,1-.3,1.33,2.23,2.23,0,0,1-.86.94A2.6,2.6,0,0,1,217,176.44Zm0-.56a2,2,0,0,0,.84-.16,1.88,1.88,0,0,0,.58-.46,2.3,2.3,0,0,0,.34-.66,2.86,2.86,0,0,0,.1-.77,2.65,2.65,0,0,0-.11-.81,1.92,1.92,0,0,0-.36-.66,1.82,1.82,0,0,0-.58-.44,2,2,0,0,0-.81-.15,2,2,0,0,0-.83.16,1.65,1.65,0,0,0-.58.46,1.75,1.75,0,0,0-.35.66,2.45,2.45,0,0,0-.12.78,2.88,2.88,0,0,0,.11.78,2,2,0,0,0,.35.65,1.54,1.54,0,0,0,.58.46A2,2,0,0,0,217,175.88Z" fill="#6b6b6c"/>
        <path d="M220.34,176.36c0-.28.6-4.76.63-5.05h.65l1.63,4h.05s1.47-3.64,1.62-4h.64c0,.28.59,4.77.62,5.05h-.61c0-.45-.48-3.92-.48-3.92h0s-1.41,3.58-1.55,3.92h-.43l-1.59-3.92h0s-.42,3.47-.47,3.92Z" fill="#6b6b6c"/>
        <path d="M227.31,176.36v-5.05h4v5.05h-.64v-5l.23.46h-3.16l.23-.46v5Z" fill="#6b6b6c"/>
        <path d="M233.37,176.36c.11-.21.54-1.11.66-1.35,0,0-1.76-3.42-1.91-3.7h.73l1.5,3.05h.06l1.44-3.05h.7l-2.49,5.05Z" fill="#6b6b6c"/>
        <path d="M237.27,176.42h-.17l-.15,0-.12,0,0-.56.14,0h.11a.54.54,0,0,0,.48-.26,2,2,0,0,0,.25-.8c.05-.36.1-.81.13-1.37l.12-2.11h3.3v5.05h-.64v-5l.34.46h-2.76l.36-.42c0,.36-.12,1.82-.14,2.21s-.07.88-.11,1.23a3.55,3.55,0,0,1-.19.86,1,1,0,0,1-.36.51A1,1,0,0,1,237.27,176.42Z" fill="#6b6b6c"/>
        <path d="M244.35,176.36h-1.64v-5.05h.63v4.52h.9a2.28,2.28,0,0,0,.75-.11.8.8,0,0,0,.42-.34,1.24,1.24,0,0,0,.14-.62,1,1,0,0,0-.1-.5.71.71,0,0,0-.26-.28,1.09,1.09,0,0,0-.36-.12l-.37,0h-1.2v-.54h1.24a2.58,2.58,0,0,1,.95.16,1.16,1.16,0,0,1,.57.47,1.74,1.74,0,0,1,.19.84,1.84,1.84,0,0,1-.18.83,1.15,1.15,0,0,1-.57.56A2.44,2.44,0,0,1,244.35,176.36Z" fill="#6b6b6c"/>
        <path d="M249.44,176.44a2.79,2.79,0,0,1-1.07-.2,2.34,2.34,0,0,1-.82-.54,2.48,2.48,0,0,1-.52-.83,3,3,0,0,1-.18-1,2.85,2.85,0,0,1,.32-1.36,2.34,2.34,0,0,1,.87-.92,2.55,2.55,0,0,1,1.31-.34,3.89,3.89,0,0,1,.49,0,3,3,0,0,1,.45.1l.39.13a1.51,1.51,0,0,1,.31.14l-.05.62a4.52,4.52,0,0,0-.54-.27,3.23,3.23,0,0,0-.51-.14,2.81,2.81,0,0,0-.49-.05,1.85,1.85,0,0,0-1,.25,1.77,1.77,0,0,0-.67.71,2.31,2.31,0,0,0-.24,1.09,2.26,2.26,0,0,0,.13.79,1.94,1.94,0,0,0,.37.66,1.71,1.71,0,0,0,.62.44,2.13,2.13,0,0,0,.86.16,2.3,2.3,0,0,0,.37,0,2,2,0,0,0,.35-.07,2.09,2.09,0,0,0,.35-.13,2.33,2.33,0,0,0,.34-.2l.05.61a2.55,2.55,0,0,1-.33.17l-.37.11-.4.07Z" fill="#6b6b6c"/>
        <path d="M252,176.36v-5.05h.63v3.95h.05l2.8-3.95H256v5.05h-.63v-4h0l-2.8,4Z" fill="#6b6b6c"/>
        <path d="M258.93,176.36h-1.58v-5.05h1.86a2.73,2.73,0,0,1,.75.08,1.34,1.34,0,0,1,.51.24.85.85,0,0,1,.28.37,1.15,1.15,0,0,1,.1.5,1.25,1.25,0,0,1-.12.56,1.13,1.13,0,0,1-.32.4,1.22,1.22,0,0,1-.45.24v.06a1.47,1.47,0,0,1,.49.19.93.93,0,0,1,.38.38,1.24,1.24,0,0,1,.15.64,1.63,1.63,0,0,1-.1.55,1,1,0,0,1-.34.44,1.43,1.43,0,0,1-.62.29A4,4,0,0,1,258.93,176.36Zm-.95-.53h1a2.29,2.29,0,0,0,.77-.11.91.91,0,0,0,.43-.31.88.88,0,0,0,.14-.49.71.71,0,0,0-.33-.66,1.78,1.78,0,0,0-.91-.2h-1.24v-.51h1.24a1.44,1.44,0,0,0,.63-.13.85.85,0,0,0,.36-.34.82.82,0,0,0,.11-.44.71.71,0,0,0-.25-.61,1.27,1.27,0,0,0-.77-.19H258Z" fill="#6b6b6c"/>
        <path d="M261.93,176.36v-5.05h.64v5.05Zm.42-2.28v-.56h3.18v.56Zm2.94,2.28v-5.05h.64v5.05Z" fill="#6b6b6c"/>
        <path d="M268.88,176.36h-1.64v-5.05h.63v4.52h.9a2.24,2.24,0,0,0,.75-.11.8.8,0,0,0,.42-.34,1.24,1.24,0,0,0,.14-.62,1,1,0,0,0-.1-.5.71.71,0,0,0-.26-.28,1.09,1.09,0,0,0-.36-.12l-.37,0h-1.2v-.54H269a2.58,2.58,0,0,1,1,.16,1.16,1.16,0,0,1,.57.47,1.74,1.74,0,0,1,.19.84,1.84,1.84,0,0,1-.18.83,1.15,1.15,0,0,1-.57.56A2.44,2.44,0,0,1,268.88,176.36Zm2.72,0v-5.05h.65v5.05Z" fill="#6b6b6c"/>
        <path d="M273.56,176.36v-5.05h.63v3.95h.05l2.8-3.95h.56v5.05H277v-4h-.05l-2.81,4Zm2-5.59a1.61,1.61,0,0,1-.73-.15,1.06,1.06,0,0,1-.43-.41,1.39,1.39,0,0,1-.15-.59l.5,0a.77.77,0,0,0,.21.57,1,1,0,0,0,1.21,0,.72.72,0,0,0,.2-.55h.5a1.25,1.25,0,0,1-.14.59,1.06,1.06,0,0,1-.43.41A1.6,1.6,0,0,1,275.56,170.77Z" fill="#6b6b6c"/>
      </g>
      <g>
        <path d="M212.46,94.39c0-.27.59-4.76.63-5h.64l1.64,4h0s1.47-3.64,1.61-4h.65c0,.29.58,4.77.62,5h-.62c-.05-.45-.47-3.92-.47-3.92h-.05l-1.54,3.92h-.44c-.09-.21-1.59-3.92-1.59-3.92h0s-.42,3.47-.48,3.92Z" fill="#6b6b6c"/>
        <path d="M219,94.39c.1-.27,1.73-4.8,1.83-5h.84l1.81,5h-.67l-1.54-4.47h-.06l-1.56,4.47Zm.93-1.27.06-.5h2.56l0,.5Z" fill="#6b6b6c"/>
        <path d="M224.31,94.39v-5H225v5Zm.42-2.28v-.55h3.19v.55Zm2.94,2.28v-5h.64v5Z" fill="#6b6b6c"/>
        <path d="M229.62,94.39v-5h.63v4h.06l2.79-4h.56v5H233v-4H233l-2.81,4Z" fill="#6b6b6c"/>
        <path d="M234.52,94.39l1.83-5h.84c.1.26,1.71,4.78,1.81,5h-.67l-1.53-4.47h-.06s-1.46,4.18-1.57,4.47Zm.94-1.27,0-.5h2.56l.05.5Z" fill="#6b6b6c"/>
        <path d="M239.86,94.39v-5h.64v5Zm3.08,0L240.77,92h-.34v-.53h.34l2.08-2.17h.78l-2.44,2.53v-.29s2.43,2.67,2.57,2.81Z" fill="#6b6b6c"/>
        <path d="M244.17,94.39c.1-.27,1.73-4.8,1.83-5h.84l1.81,5H248l-1.54-4.47h-.06l-1.56,4.47Zm.93-1.27.06-.5h2.56l0,.5Z" fill="#6b6b6c"/>
        <path d="M249.38,94.46h-.16l-.15,0-.13,0,0-.56.14,0h.12a.52.52,0,0,0,.48-.26,2.15,2.15,0,0,0,.25-.79q.08-.54.12-1.38c0-.35.11-1.76.13-2.11h3.3v5h-.64v-5l.34.46h-2.76l.36-.42c0,.36-.12,1.82-.15,2.21s-.06.88-.1,1.23a4.1,4.1,0,0,1-.19.86,1.13,1.13,0,0,1-.36.52A1.1,1.1,0,0,1,249.38,94.46Z" fill="#6b6b6c"/>
        <path d="M256.46,94.39h-1.63v-5h.63v4.52h.9a2.18,2.18,0,0,0,.74-.11.78.78,0,0,0,.43-.34,1.24,1.24,0,0,0,.14-.62,1.13,1.13,0,0,0-.1-.5.73.73,0,0,0-.27-.28,1.12,1.12,0,0,0-.35-.12l-.37,0h-1.2v-.53h1.23a2.61,2.61,0,0,1,1,.15,1.06,1.06,0,0,1,.56.48,1.57,1.57,0,0,1,.19.83,2,2,0,0,1-.17.83,1.23,1.23,0,0,1-.58.57A2.59,2.59,0,0,1,256.46,94.39Z" fill="#6b6b6c"/>
        <path d="M259.27,94.39v-5h.64v5Zm.42-2.28v-.55h3.18v.55Zm2.94,2.28v-5h.64v5Z" fill="#6b6b6c"/>
        <path d="M266.22,94.39h-1.64v-5h.63v4.52h.9a2.24,2.24,0,0,0,.75-.11.76.76,0,0,0,.42-.34,1.24,1.24,0,0,0,.14-.62,1,1,0,0,0-.1-.5.78.78,0,0,0-.26-.28,1.09,1.09,0,0,0-.36-.12l-.37,0h-1.2v-.53h1.24a2.59,2.59,0,0,1,.95.15,1.09,1.09,0,0,1,.57.48,1.67,1.67,0,0,1,.19.83,2,2,0,0,1-.17.83,1.28,1.28,0,0,1-.58.57A2.59,2.59,0,0,1,266.22,94.39Zm2.72,0v-5h.65v5Z" fill="#6b6b6c"/>
        <path d="M270.9,94.39v-5h.63v4h.05l2.8-4h.56v5h-.63v-4h-.05l-2.81,4Zm2-5.59a1.61,1.61,0,0,1-.73-.15,1.06,1.06,0,0,1-.43-.41,1.25,1.25,0,0,1-.14-.59l.49,0a.77.77,0,0,0,.21.57.81.81,0,0,0,.6.21.84.84,0,0,0,.61-.2.76.76,0,0,0,.2-.56h.5a1.25,1.25,0,0,1-.14.59,1.06,1.06,0,0,1-.43.41A1.6,1.6,0,0,1,272.9,88.8Z" fill="#6b6b6c"/>
      </g>
      <g>
        <path d="M297.79,94.39v-5h.64v5Zm.41-2.28v-.55h3.19v.55Zm2.95,2.28v-5h.64v5Z" fill="#6b6b6c"/>
        <path d="M302.65,94.39l1.83-5h.84c.1.26,1.71,4.78,1.81,5h-.67l-1.53-4.47h-.06s-1.46,4.18-1.57,4.47Zm.94-1.27.05-.5h2.56l.05.5Z" fill="#6b6b6c"/>
        <path d="M308,94.39v-5h1.78a2.61,2.61,0,0,1,1,.15,1.09,1.09,0,0,1,.56.47,1.58,1.58,0,0,1,.19.82,2,2,0,0,1-.17.83,1.24,1.24,0,0,1-.57.56,2.42,2.42,0,0,1-1.1.21h-1.11v-.53h1a2.18,2.18,0,0,0,.74-.11.78.78,0,0,0,.43-.34,1.2,1.2,0,0,0,.14-.61,1,1,0,0,0-.11-.5.62.62,0,0,0-.26-.27,1.09,1.09,0,0,0-.36-.12,2.31,2.31,0,0,0-.37,0h-1.42l.31-.44v5Z" fill="#6b6b6c"/>
        <path d="M316.46,95.48l0-1.19.15.1h-4.14v-5h.64v5l-.32-.45H317v1.64Zm-.74-1.19v-5h.64v5Z" fill="#6b6b6c"/>
        <path d="M317.85,94.39v-5h.63v4h0l2.8-4h.55v5h-.62v-4h-.06l-2.8,4Z" fill="#6b6b6c"/>
        <path d="M325.48,94.47a2.83,2.83,0,0,1-1.07-.2,2.34,2.34,0,0,1-.82-.54,2.38,2.38,0,0,1-.52-.83,3,3,0,0,1-.18-1,2.87,2.87,0,0,1,.32-1.36,2.29,2.29,0,0,1,.88-.92,2.49,2.49,0,0,1,1.3-.33,3.91,3.91,0,0,1,.49,0l.45.1a3.56,3.56,0,0,1,.39.13,2.33,2.33,0,0,1,.31.14l0,.62a3.29,3.29,0,0,0-.54-.26,2.46,2.46,0,0,0-.51-.15,2.81,2.81,0,0,0-.49,0,2,2,0,0,0-1,.25,1.84,1.84,0,0,0-.67.71,2.31,2.31,0,0,0-.24,1.09,2.36,2.36,0,0,0,.13.8,2,2,0,0,0,.37.65,1.87,1.87,0,0,0,.62.45,2.33,2.33,0,0,0,.87.16,2.19,2.19,0,0,0,.36,0,2,2,0,0,0,.35-.07,2.09,2.09,0,0,0,.35-.13,2.33,2.33,0,0,0,.34-.2l.05.61a1.71,1.71,0,0,1-.33.17l-.37.11-.4.07Z" fill="#6b6b6c"/>
        <path d="M330.34,94.47a2.85,2.85,0,0,1-1.08-.2,2.44,2.44,0,0,1-.82-.54,2.51,2.51,0,0,1-.51-.83,3,3,0,0,1-.18-1,2.87,2.87,0,0,1,.31-1.36,2.36,2.36,0,0,1,.88-.92,2.51,2.51,0,0,1,1.3-.33,3.91,3.91,0,0,1,.49,0l.45.1a3.56,3.56,0,0,1,.39.13,2.52,2.52,0,0,1,.32.14l-.06.62a2.66,2.66,0,0,0-.54-.26,2.46,2.46,0,0,0-.51-.15,2.7,2.7,0,0,0-.48,0,2,2,0,0,0-1,.25,1.74,1.74,0,0,0-.66.71,2.31,2.31,0,0,0-.25,1.09,2.63,2.63,0,0,0,.13.8,1.86,1.86,0,0,0,.38.65,1.68,1.68,0,0,0,.62.45,2.24,2.24,0,0,0,.86.16,2.19,2.19,0,0,0,.36,0,2.29,2.29,0,0,0,.36-.07,2.48,2.48,0,0,0,.35-.13l.34-.2,0,.61a1.38,1.38,0,0,1-.32.17l-.38.11-.4.07Z" fill="#6b6b6c"/>
        <path d="M332.9,94.39v-5h.63v4h.05l2.8-4h.56v5h-.63v-4h-.05l-2.81,4Z" fill="#6b6b6c"/>
        <path d="M341.08,94.39v-2.1a2.08,2.08,0,0,1-.36.14,2.44,2.44,0,0,1-.45.12,3.32,3.32,0,0,1-.57,0,2.15,2.15,0,0,1-.93-.17,1.17,1.17,0,0,1-.59-.5,1.63,1.63,0,0,1-.2-.84V89.34h.64V91a1.09,1.09,0,0,0,.13.57.73.73,0,0,0,.4.35,1.78,1.78,0,0,0,.71.12,2.45,2.45,0,0,0,.48,0,2.34,2.34,0,0,0,.4-.1l.34-.15V89.34h.64v5Z" fill="#6b6b6c"/>
        <path d="M343,94.39v-5h.65v5Zm.42-2.28v-.55h3.19v.55Zm2.94,2.28v-5H347v5Z" fill="#6b6b6c"/>
        <path d="M350,94.39h-1.63v-5H349v4.52h.9a2.18,2.18,0,0,0,.74-.11.82.82,0,0,0,.43-.34,1.24,1.24,0,0,0,.13-.62,1,1,0,0,0-.1-.5.64.64,0,0,0-.26-.28,1.09,1.09,0,0,0-.36-.12l-.37,0h-1.2v-.53h1.24a2.65,2.65,0,0,1,1,.15,1.06,1.06,0,0,1,.56.48,1.57,1.57,0,0,1,.19.83,2,2,0,0,1-.17.83,1.28,1.28,0,0,1-.58.57A2.59,2.59,0,0,1,350,94.39Zm2.72,0v-5h.66v5Z" fill="#6b6b6c"/>
        <path d="M354.67,94.39v-5h.62v4h.06l2.8-4h.55v5h-.63v-4H358s-2.55,3.61-2.81,4Zm2-5.59a1.55,1.55,0,0,1-.73-.15,1,1,0,0,1-.44-.41,1.25,1.25,0,0,1-.14-.59l.49,0a.77.77,0,0,0,.21.57,1,1,0,0,0,1.21,0,.76.76,0,0,0,.21-.56H358a1.25,1.25,0,0,1-.14.59,1,1,0,0,1-.43.41A1.55,1.55,0,0,1,356.67,88.8Z" fill="#6b6b6c"/>
      </g>
      <g>
        <path d="M298.19,177.47v-1.64h5.27v1.64h-.55l0-1.19.15.1h-4.4l.15-.1,0,1.19Zm4-1.19v-4.86l.25.46h-2.63l.33-.41-.12,1.94a8.89,8.89,0,0,1-.13,1.08,3.62,3.62,0,0,1-.24.8,2.85,2.85,0,0,1-.38.63l-.62-.07a2.4,2.4,0,0,0,.37-.58,3.49,3.49,0,0,0,.27-.81,10.3,10.3,0,0,0,.14-1.19c0-.34.11-1.64.13-1.94h3.27v4.95Z" fill="#6b6b6c"/>
        <path d="M304.3,176.38v-5h3.14v.55h-2.87l.36-.46v4.87l-.32-.46h2.84v.55Zm.49-2.29v-.54h2.51v.54Z" fill="#6b6b6c"/>
        <path d="M308.5,176.38v-5h4v5h-.64v-5l.23.46h-3.15l.23-.46v5Z" fill="#6b6b6c"/>
        <path d="M313.79,176.38v-5h1.79a2.65,2.65,0,0,1,1,.15,1.13,1.13,0,0,1,.56.47,1.58,1.58,0,0,1,.19.82,2,2,0,0,1-.17.83,1.22,1.22,0,0,1-.58.56,2.37,2.37,0,0,1-1.09.21h-1.11v-.53h1a2.18,2.18,0,0,0,.74-.11.76.76,0,0,0,.42-.34,1.13,1.13,0,0,0,.14-.61,1,1,0,0,0-.1-.5.68.68,0,0,0-.26-.27,1.09,1.09,0,0,0-.36-.12l-.37,0h-1.43l.32-.44v5Z" fill="#6b6b6c"/>
        <path d="M318.24,176.38v-5h3.14v.55h-2.87l.35-.46v4.87l-.31-.46h2.83v.55Zm.49-2.29v-.54h2.51v.54Z" fill="#6b6b6c"/>
        <path d="M324.73,176.46a2.85,2.85,0,0,1-1.08-.2,2.3,2.3,0,0,1-.81-.54,2.38,2.38,0,0,1-.52-.83,3,3,0,0,1-.18-1,2.87,2.87,0,0,1,.32-1.36,2.34,2.34,0,0,1,.87-.92,2.55,2.55,0,0,1,1.31-.33,3.91,3.91,0,0,1,.49,0,3.63,3.63,0,0,1,.45.1,3.56,3.56,0,0,1,.39.13l.31.14-.06.62a3.3,3.3,0,0,0-1-.41,2.81,2.81,0,0,0-.49,0,1.94,1.94,0,0,0-1,.25,1.77,1.77,0,0,0-.67.71,2.31,2.31,0,0,0-.24,1.09,2.52,2.52,0,0,0,.12.79,2,2,0,0,0,.38.66,1.77,1.77,0,0,0,.62.45,2.31,2.31,0,0,0,.86.16,2.19,2.19,0,0,0,.36,0,2.29,2.29,0,0,0,.36-.07,2.09,2.09,0,0,0,.35-.13,2.33,2.33,0,0,0,.34-.2l.05.61a2.55,2.55,0,0,1-.33.17l-.37.11-.41.07Z" fill="#6b6b6c"/>
        <path d="M329.59,176.46a2.85,2.85,0,0,1-1.08-.2,2.44,2.44,0,0,1-.82-.54,2.51,2.51,0,0,1-.51-.83,3,3,0,0,1-.18-1,2.87,2.87,0,0,1,.31-1.36,2.29,2.29,0,0,1,.88-.92,2.51,2.51,0,0,1,1.3-.33,3.91,3.91,0,0,1,.49,0,3,3,0,0,1,.45.1,3.56,3.56,0,0,1,.39.13,3.37,3.37,0,0,1,.32.14l-.06.62a2.94,2.94,0,0,0-.54-.26,2.46,2.46,0,0,0-.51-.15,2.7,2.7,0,0,0-.48,0,2,2,0,0,0-1,.25,1.74,1.74,0,0,0-.66.71,2.2,2.2,0,0,0-.25,1.09,2.52,2.52,0,0,0,.13.79,1.94,1.94,0,0,0,.37.66,1.87,1.87,0,0,0,.62.45,2.33,2.33,0,0,0,.87.16,2.19,2.19,0,0,0,.36,0,2.29,2.29,0,0,0,.36-.07,3,3,0,0,0,.35-.13,2.9,2.9,0,0,0,.33-.2l.05.61a2.4,2.4,0,0,1-.32.17l-.38.11-.4.07Z" fill="#6b6b6c"/>
        <path d="M332.15,176.38v-5h.63v3.95h.05l2.8-3.95h.55v5h-.62v-4h-.05l-2.81,4Z" fill="#6b6b6c"/>
        <path d="M339.07,176.38H337.5v-5h1.85a3.28,3.28,0,0,1,.76.08,1.55,1.55,0,0,1,.5.24.94.94,0,0,1,.29.37,1.31,1.31,0,0,1,.09.5,1.25,1.25,0,0,1-.12.56,1.13,1.13,0,0,1-.31.4,1.35,1.35,0,0,1-.46.24v.06a1.91,1.91,0,0,1,.5.19,1,1,0,0,1,.37.38,1.24,1.24,0,0,1,.15.64,1.42,1.42,0,0,1-.1.55,1.09,1.09,0,0,1-.33.44,1.68,1.68,0,0,1-.63.3A3.92,3.92,0,0,1,339.07,176.38Zm-.95-.53h1a2.39,2.39,0,0,0,.78-.11.82.82,0,0,0,.42-.31.87.87,0,0,0,.14-.48.73.73,0,0,0-.33-.67,1.78,1.78,0,0,0-.91-.2H338v-.51h1.24a1.28,1.28,0,0,0,.63-.13.83.83,0,0,0,.36-.33.89.89,0,0,0,.12-.45.72.72,0,0,0-.26-.61,1.25,1.25,0,0,0-.76-.19h-1.19Z" fill="#6b6b6c"/>
        <path d="M342.07,176.38v-5h.65v5Zm.42-2.28v-.55h3.19v.55Zm2.94,2.28v-5h.64v5Z" fill="#6b6b6c"/>
        <path d="M349,176.38h-1.63v-5H348v4.52h.9a2.18,2.18,0,0,0,.74-.11.82.82,0,0,0,.43-.34,1.24,1.24,0,0,0,.13-.62,1,1,0,0,0-.1-.5.59.59,0,0,0-.26-.28,1.09,1.09,0,0,0-.36-.12l-.37,0h-1.2v-.53h1.24a2.65,2.65,0,0,1,1,.15,1.06,1.06,0,0,1,.56.48,1.57,1.57,0,0,1,.19.83,2,2,0,0,1-.17.83,1.28,1.28,0,0,1-.58.57A2.59,2.59,0,0,1,349,176.38Zm2.72,0v-5h.66v5Z" fill="#6b6b6c"/>
        <path d="M353.71,176.38v-5h.62v3.95h.06l2.8-3.95h.55v5h-.63v-4h-.05l-2.81,4Zm2-5.59a1.55,1.55,0,0,1-.73-.15,1,1,0,0,1-.44-.41,1.25,1.25,0,0,1-.14-.59l.49,0a.77.77,0,0,0,.21.57.82.82,0,0,0,.61.21.78.78,0,0,0,.6-.21.72.72,0,0,0,.21-.55H357a1.25,1.25,0,0,1-.14.59,1,1,0,0,1-.43.41A1.55,1.55,0,0,1,355.71,170.79Z" fill="#6b6b6c"/>
      </g>
      <g>
        <path d="M395.53,176.36v-5.05h4v5.05h-.64v-5l.23.46H396l.23-.46v5Z" fill="#6b6b6c"/>
        <path d="M400.38,176.36c.1-.27,1.73-4.8,1.83-5.05h.84l1.81,5.05h-.67l-1.54-4.48h-.06s-1.46,4.18-1.56,4.48Zm.93-1.27.06-.5h2.56l0,.5Z" fill="#6b6b6c"/>
        <path d="M405.71,176.36v-5.05h1.79a2.59,2.59,0,0,1,.95.15,1.12,1.12,0,0,1,.57.47,1.58,1.58,0,0,1,.19.82,2,2,0,0,1-.17.83,1.26,1.26,0,0,1-.58.56,2.37,2.37,0,0,1-1.09.21h-1.11v-.53h1a2.22,2.22,0,0,0,.74-.11.8.8,0,0,0,.42-.34,1.13,1.13,0,0,0,.14-.61,1,1,0,0,0-.1-.5.68.68,0,0,0-.26-.27.9.9,0,0,0-.36-.12l-.37,0H406l.31-.44v5Z" fill="#6b6b6c"/>
        <path d="M409.71,176.36l1.83-5.05h.84l1.81,5.05h-.67L412,171.88h-.06s-1.46,4.18-1.56,4.48Zm.94-1.27.05-.5h2.56l.05.5Z" fill="#6b6b6c"/>
        <path d="M415.05,176.36v-5.05h.64v5.05Zm.41-2.28v-.56h3.19v.56Zm3,2.28v-5.05h.64v5.05Z" fill="#6b6b6c"/>
        <path d="M422.62,176.44a2.76,2.76,0,0,1-1.12-.21,2.29,2.29,0,0,1-1.28-1.4,3,3,0,0,1-.16-1,2.92,2.92,0,0,1,.3-1.33,2.29,2.29,0,0,1,.86-.94,2.62,2.62,0,0,1,1.38-.35,2.68,2.68,0,0,1,1.09.21,2.18,2.18,0,0,1,.8.56,2.35,2.35,0,0,1,.48.83,3.07,3.07,0,0,1,.16,1,2.89,2.89,0,0,1-.29,1.33,2.3,2.3,0,0,1-.86.94A2.66,2.66,0,0,1,422.62,176.44Zm0-.56a1.94,1.94,0,0,0,.84-.16,1.77,1.77,0,0,0,.58-.46,2.07,2.07,0,0,0,.34-.66,2.87,2.87,0,0,0,.11-.77,2.64,2.64,0,0,0-.12-.81,2.08,2.08,0,0,0-.35-.66,1.86,1.86,0,0,0-.59-.44,2,2,0,0,0-.81-.15,1.91,1.91,0,0,0-.82.16,1.68,1.68,0,0,0-.59.46,1.9,1.9,0,0,0-.35.66,2.45,2.45,0,0,0-.12.78,2.54,2.54,0,0,0,.12.78,1.92,1.92,0,0,0,.34.65,1.58,1.58,0,0,0,.59.46A1.92,1.92,0,0,0,422.6,175.88Z" fill="#6b6b6c"/>
        <path d="M426.15,176.36v-5.05h.62v3.95h.06l2.8-3.95h.55v5.05h-.63v-4h-.05l-2.81,4Z" fill="#6b6b6c"/>
        <path d="M430.93,177.45v-1.64h5.27v1.64h-.55l0-1.19.15.1h-4.39l.15-.1,0,1.19Zm4-1.19V171.4l.24.46h-2.62l.32-.41c0,.32-.1,1.61-.12,1.94a9.15,9.15,0,0,1-.13,1.08,3.79,3.79,0,0,1-.24.8,2.52,2.52,0,0,1-.38.63l-.62-.08a2.69,2.69,0,0,0,.38-.57,4.07,4.07,0,0,0,.26-.81,8.34,8.34,0,0,0,.15-1.19c0-.34.1-1.65.12-1.94h3.28v4.95Z" fill="#6b6b6c"/>
        <path d="M436.6,176.36l1.82-5.05h.85l1.81,5.05h-.67l-1.54-4.48h-.06s-1.46,4.18-1.56,4.48Zm.93-1.27.06-.5h2.56l0,.5Z" fill="#6b6b6c"/>
        <path d="M441.81,176.42h-.16l-.15,0-.13,0,0-.56.14,0h.12a.54.54,0,0,0,.48-.26,2.15,2.15,0,0,0,.25-.8c.05-.36.09-.81.12-1.37,0-.35.11-1.76.13-2.11H446v5.05h-.64v-5l.34.46h-2.76l.36-.42c0,.36-.12,1.82-.15,2.21s-.06.88-.1,1.23a4.1,4.1,0,0,1-.19.86,1,1,0,0,1-.36.51A1,1,0,0,1,441.81,176.42Z" fill="#6b6b6c"/>
        <path d="M448.89,176.36h-1.63v-5.05h.63v4.52h.9a2.18,2.18,0,0,0,.74-.11.82.82,0,0,0,.43-.34,1.24,1.24,0,0,0,.14-.62,1.13,1.13,0,0,0-.1-.5.67.67,0,0,0-.27-.28,1.09,1.09,0,0,0-.36-.12,2.31,2.31,0,0,0-.37,0h-1.19v-.54H449a2.6,2.6,0,0,1,1,.16,1.09,1.09,0,0,1,.56.47,1.63,1.63,0,0,1,.19.84,2,2,0,0,1-.17.83,1.22,1.22,0,0,1-.58.56A2.44,2.44,0,0,1,448.89,176.36Z" fill="#6b6b6c"/>
        <path d="M451.7,176.36v-5.05h.64v5.05Zm.42-2.28v-.56h3.18v.56Zm2.94,2.28v-5.05h.64v5.05Z" fill="#6b6b6c"/>
        <path d="M458.65,176.36H457v-5.05h.63v4.52h.9a2.24,2.24,0,0,0,.75-.11.8.8,0,0,0,.42-.34,1.24,1.24,0,0,0,.14-.62,1,1,0,0,0-.1-.5.71.71,0,0,0-.26-.28,1.09,1.09,0,0,0-.36-.12l-.37,0h-1.2v-.54h1.24a2.58,2.58,0,0,1,.95.16,1.16,1.16,0,0,1,.57.47,1.74,1.74,0,0,1,.19.84,1.84,1.84,0,0,1-.18.83,1.15,1.15,0,0,1-.57.56A2.44,2.44,0,0,1,458.65,176.36Zm2.72,0v-5.05H462v5.05Z" fill="#6b6b6c"/>
        <path d="M463.33,176.36v-5.05H464v3.95H464l2.8-3.95h.56v5.05h-.63v-4h-.05l-2.81,4Zm2-5.59a1.61,1.61,0,0,1-.73-.15,1.06,1.06,0,0,1-.43-.41,1.25,1.25,0,0,1-.14-.59l.49,0a.77.77,0,0,0,.21.57,1,1,0,0,0,1.21,0,.72.72,0,0,0,.2-.55h.5a1.25,1.25,0,0,1-.14.59,1.06,1.06,0,0,1-.43.41A1.6,1.6,0,0,1,465.33,170.77Z" fill="#6b6b6c"/>
      </g>
      <g>
        <path d="M406.87,94.39v-5h.64v5l-.32-.45h5.47l-.34.45v-5H413v5Zm2.73-.1v-5h.63v5Z" fill="#6b6b6c"/>
        <path d="M414.28,94.39v-5h.62v4H415l2.79-4h.56v5h-.63v-4h-.05l-2.81,4Z" fill="#6b6b6c"/>
        <path d="M421,94.47a3.75,3.75,0,0,1-.48,0l-.45-.09a3.14,3.14,0,0,1-.4-.13,2.23,2.23,0,0,1-.3-.13l.06-.59.36.18.37.13.37.08a2.56,2.56,0,0,0,.39,0,1.58,1.58,0,0,0,.71-.13.8.8,0,0,0,.37-.33,1.06,1.06,0,0,0,.11-.48.73.73,0,0,0-.34-.69,2,2,0,0,0-1-.2h-.58v-.52h.51a1.69,1.69,0,0,0,.74-.13.91.91,0,0,0,.4-.34.94.94,0,0,0,.13-.46.78.78,0,0,0-.16-.49,1,1,0,0,0-.41-.27,1.92,1.92,0,0,0-.55-.08,1.84,1.84,0,0,0-.33,0,1.47,1.47,0,0,0-.35.08,2.83,2.83,0,0,0-.36.16,4.11,4.11,0,0,0-.39.24l-.08-.6a2.14,2.14,0,0,1,.3-.17,2.39,2.39,0,0,1,.37-.15,3,3,0,0,1,.43-.1,2.45,2.45,0,0,1,.48,0,2.4,2.4,0,0,1,.89.15,1.37,1.37,0,0,1,.6.43,1.27,1.27,0,0,1-.05,1.47,1.31,1.31,0,0,1-.64.42v.06a2.22,2.22,0,0,1,.49.18,1,1,0,0,1,.39.39,1.21,1.21,0,0,1,.16.67,1.55,1.55,0,0,1-.17.71,1.3,1.3,0,0,1-.55.54A2.36,2.36,0,0,1,421,94.47Z" fill="#6b6b6c"/>
        <path d="M425.94,94.47a2.8,2.8,0,0,1-1.12-.21,2.29,2.29,0,0,1-1.28-1.4,3,3,0,0,1-.16-1,2.92,2.92,0,0,1,.3-1.33,2.43,2.43,0,0,1,.86-.94,2.62,2.62,0,0,1,1.38-.34,2.65,2.65,0,0,1,1.09.2,2.18,2.18,0,0,1,.8.56,2.44,2.44,0,0,1,.48.83,3.12,3.12,0,0,1,.17,1,2.93,2.93,0,0,1-.3,1.34,2.33,2.33,0,0,1-.86.93A2.57,2.57,0,0,1,425.94,94.47Zm0-.55a1.92,1.92,0,0,0,.83-.17,1.56,1.56,0,0,0,.58-.46,1.88,1.88,0,0,0,.34-.66,2.81,2.81,0,0,0,.11-.77,2.64,2.64,0,0,0-.12-.81,1.93,1.93,0,0,0-.35-.65,1.53,1.53,0,0,0-.59-.44,1.84,1.84,0,0,0-.8-.16,1.92,1.92,0,0,0-.83.17,1.66,1.66,0,0,0-.59.45,2.08,2.08,0,0,0-.35.66,2.59,2.59,0,0,0,0,1.56,1.92,1.92,0,0,0,.34.65,1.58,1.58,0,0,0,.59.46A2,2,0,0,0,425.93,93.92Z" fill="#6b6b6c"/>
        <path d="M429.47,94.39v-5h.63v4h0l2.8-4h.55v5h-.63v-4h-.05s-2.55,3.61-2.81,4Z" fill="#6b6b6c"/>
        <path d="M434.25,95.48V93.84h5.27v1.64H439l0-1.19.16.1h-4.4l.15-.1,0,1.19Zm4-1.19V89.43l.24.46h-2.62l.33-.41c0,.32-.11,1.61-.13,1.94a9.09,9.09,0,0,1-.12,1.08,3.62,3.62,0,0,1-.24.8,2.85,2.85,0,0,1-.38.63l-.62-.07a2.75,2.75,0,0,0,.37-.58,4.07,4.07,0,0,0,.26-.81,8.34,8.34,0,0,0,.15-1.19c0-.34.11-1.64.13-1.94h3.27v5Z" fill="#6b6b6c"/>
        <path d="M440.36,94.39v-5H441v5Zm.42-2.28v-.55H444v.55Zm2.94,2.28v-5h.65v5Z" fill="#6b6b6c"/>
        <path d="M447.31,94.39h-1.63v-5h.63v4.52h.9a2.18,2.18,0,0,0,.74-.11.82.82,0,0,0,.43-.34,1.24,1.24,0,0,0,.13-.62,1,1,0,0,0-.1-.5.64.64,0,0,0-.26-.28,1.09,1.09,0,0,0-.36-.12l-.37,0h-1.19v-.53h1.23a2.65,2.65,0,0,1,1,.15A1.06,1.06,0,0,1,449,92a1.57,1.57,0,0,1,.19.83,2,2,0,0,1-.17.83,1.28,1.28,0,0,1-.58.57A2.59,2.59,0,0,1,447.31,94.39Zm2.72,0v-5h.66v5Z" fill="#6b6b6c"/>
        <path d="M452,94.39v-5h.62v4h.06l2.8-4H456v5h-.63v-4h0s-2.55,3.61-2.81,4Zm2-5.59a1.55,1.55,0,0,1-.73-.15,1.09,1.09,0,0,1-.44-.41,1.25,1.25,0,0,1-.14-.59l.49,0a.77.77,0,0,0,.21.57.82.82,0,0,0,.61.21.86.86,0,0,0,.61-.2.8.8,0,0,0,.2-.56h.49a1.25,1.25,0,0,1-.14.59,1,1,0,0,1-.43.41A1.55,1.55,0,0,1,454,88.8Z" fill="#6b6b6c"/>
      </g>
      <g>
        <path d="M483,94.47a2.85,2.85,0,0,1-1.08-.2,2.3,2.3,0,0,1-.81-.54,2.38,2.38,0,0,1-.52-.83,3,3,0,0,1-.18-1,2.87,2.87,0,0,1,.32-1.36,2.34,2.34,0,0,1,.87-.92,2.55,2.55,0,0,1,1.31-.33,4,4,0,0,1,.49,0l.45.1a3.56,3.56,0,0,1,.39.13l.31.14-.06.62a3.3,3.3,0,0,0-1-.41,2.81,2.81,0,0,0-.49,0,1.94,1.94,0,0,0-1,.25,1.77,1.77,0,0,0-.67.71,2.31,2.31,0,0,0-.24,1.09,2.63,2.63,0,0,0,.12.8,2,2,0,0,0,.38.65,1.77,1.77,0,0,0,.62.45,2.27,2.27,0,0,0,.86.16,2.19,2.19,0,0,0,.36,0,2.29,2.29,0,0,0,.36-.07,2.09,2.09,0,0,0,.35-.13,3,3,0,0,0,.34-.2l.05.61a1.71,1.71,0,0,1-.33.17l-.37.11-.41.07Z" fill="#6b6b6c"/>
        <path d="M485.55,94.39v-5h.62v4h.06l2.8-4h.55v5H489v-4h-.05s-2.55,3.61-2.81,4Z" fill="#6b6b6c"/>
        <path d="M490.71,94.39c0-.27.59-4.76.63-5H492c.14.36,1.63,4,1.63,4h.05s1.47-3.64,1.61-4h.65c0,.29.59,4.77.62,5h-.61c-.06-.45-.48-3.92-.48-3.92h0l-1.54,3.92h-.44c-.08-.21-1.59-3.92-1.59-3.92h0s-.42,3.47-.48,3.92Z" fill="#6b6b6c"/>
        <path d="M499.31,94.39h-1.63v-5h3.19v.57h-2.93l.37-.48v4.43h.9a2.38,2.38,0,0,0,.7-.09.85.85,0,0,0,.45-.31,1.11,1.11,0,0,0,.16-.62.9.9,0,0,0-.12-.5.72.72,0,0,0-.28-.27,1.2,1.2,0,0,0-.37-.1l-.33,0h-1.19v-.52h1.23a2.61,2.61,0,0,1,1,.15A1.09,1.09,0,0,1,501,92a1.57,1.57,0,0,1,.19.83,1.8,1.8,0,0,1-.17.79,1.22,1.22,0,0,1-.58.54A2.61,2.61,0,0,1,499.31,94.39Z" fill="#6b6b6c"/>
        <path d="M502.12,94.39v-5h.63v4h.05l2.8-4h.55v5h-.63v-4h0l-2.8,4Z" fill="#6b6b6c"/>
        <path d="M509.73,94.47a2.85,2.85,0,0,1-1.13-.21,2.33,2.33,0,0,1-.8-.57,2.54,2.54,0,0,1-.48-.83,3,3,0,0,1-.16-1,2.92,2.92,0,0,1,.3-1.33,2.38,2.38,0,0,1,.87-.94,2.59,2.59,0,0,1,1.38-.34,2.68,2.68,0,0,1,1.09.2,2.15,2.15,0,0,1,.79.56,2.31,2.31,0,0,1,.49.83,3.4,3.4,0,0,1,.16,1,2.93,2.93,0,0,1-.3,1.34,2.27,2.27,0,0,1-.86.93A2.56,2.56,0,0,1,509.73,94.47Zm0-.55a2,2,0,0,0,.84-.17,1.61,1.61,0,0,0,.57-.46,1.73,1.73,0,0,0,.34-.66,2.47,2.47,0,0,0,.11-.77,2.64,2.64,0,0,0-.12-.81,1.64,1.64,0,0,0-.35-.65,1.57,1.57,0,0,0-.58-.44,1.86,1.86,0,0,0-.81-.16,2,2,0,0,0-.83.17,1.62,1.62,0,0,0-.58.45,1.92,1.92,0,0,0-.36.66,2.82,2.82,0,0,0,0,1.56,2,2,0,0,0,.35.65,1.54,1.54,0,0,0,.58.46A2,2,0,0,0,509.71,93.92Z" fill="#6b6b6c"/>
        <path d="M514.55,94.39v-5l.25.48h-2v-.57h4.1v.57h-2l.26-.48v5Z" fill="#6b6b6c"/>
        <path d="M517.8,94.39v-5h.62v4h.06l2.79-4h.56v5h-.63v-4h-.05l-2.81,4Z" fill="#6b6b6c"/>
        <path d="M526,94.39v-2.1a2.08,2.08,0,0,1-.36.14,2.44,2.44,0,0,1-.45.12,3.32,3.32,0,0,1-.57,0,2.15,2.15,0,0,1-.93-.17,1.21,1.21,0,0,1-.59-.5,1.63,1.63,0,0,1-.2-.84V89.34h.64V91a1.09,1.09,0,0,0,.13.57.73.73,0,0,0,.4.35,1.78,1.78,0,0,0,.71.12,2.45,2.45,0,0,0,.48,0,2.12,2.12,0,0,0,.4-.1l.34-.15V89.34h.64v5Z" fill="#6b6b6c"/>
        <path d="M527.93,94.39v-5h3.13v.55H528.2l.35-.46V94.3l-.32-.46h2.84v.55Zm.48-2.29v-.54h2.51v.54Z" fill="#6b6b6c"/>
        <path d="M534.42,94.47a2.85,2.85,0,0,1-1.08-.2,2.44,2.44,0,0,1-.82-.54,2.51,2.51,0,0,1-.51-.83,3,3,0,0,1-.18-1,2.76,2.76,0,0,1,.32-1.36,2.34,2.34,0,0,1,.87-.92,2.51,2.51,0,0,1,1.3-.33,3.79,3.79,0,0,1,.49,0l.45.1a3.14,3.14,0,0,1,.4.13l.31.14-.06.62a3.3,3.3,0,0,0-1-.41,2.81,2.81,0,0,0-.49,0,1.92,1.92,0,0,0-1,.25,1.7,1.7,0,0,0-.67.71,2.31,2.31,0,0,0-.24,1.09,2.63,2.63,0,0,0,.12.8,2,2,0,0,0,.38.65,1.68,1.68,0,0,0,.62.45,2.24,2.24,0,0,0,.86.16,2.19,2.19,0,0,0,.36,0,2.29,2.29,0,0,0,.36-.07,2.48,2.48,0,0,0,.35-.13,3,3,0,0,0,.34-.2l.05.61a1.71,1.71,0,0,1-.33.17l-.38.11-.4.07Z" fill="#6b6b6c"/>
        <path d="M537,94.39v-5h.65v5Zm3.09,0L537.9,92h-.35v-.53h.35L540,89.34h.78l-2.44,2.53v-.29l2.56,2.81Z" fill="#6b6b6c"/>
        <path d="M541.74,94.39v-5h.63v4h0l2.8-4h.55v5h-.62v-4h-.06l-2.8,4Z" fill="#6b6b6c"/>
        <path d="M547.08,94.39v-5h.63v4h0l2.8-4h.56v5h-.63v-4h0l-2.81,4Zm2-5.59a1.61,1.61,0,0,1-.73-.15,1.06,1.06,0,0,1-.43-.41,1.39,1.39,0,0,1-.15-.59l.5,0a.77.77,0,0,0,.21.57.81.81,0,0,0,.6.21.84.84,0,0,0,.61-.2.76.76,0,0,0,.2-.56h.5a1.25,1.25,0,0,1-.14.59,1.06,1.06,0,0,1-.43.41A1.6,1.6,0,0,1,549.08,88.8Z" fill="#6b6b6c"/>
      </g>
      <g>
        <path d="M490.11,176.38v-5h.62v3.95h.06l2.8-3.95h.55v5h-.63v-4h-.05l-2.81,4Z" fill="#6b6b6c"/>
        <path d="M496.79,176.46a2.59,2.59,0,0,1-.48,0l-.45-.08a3.14,3.14,0,0,1-.4-.13l-.3-.13.06-.59c.12.07.24.12.36.18l.37.13.38.08a2.34,2.34,0,0,0,.38,0,1.55,1.55,0,0,0,.71-.13.8.8,0,0,0,.37-.33,1.06,1.06,0,0,0,.11-.48.73.73,0,0,0-.34-.7,2.17,2.17,0,0,0-1-.19H496v-.52h.52a1.67,1.67,0,0,0,.73-.13.86.86,0,0,0,.4-.34.87.87,0,0,0,.13-.46.72.72,0,0,0-.16-.49.92.92,0,0,0-.41-.27,1.92,1.92,0,0,0-.55-.08l-.33,0a1.59,1.59,0,0,0-.35.08,2.83,2.83,0,0,0-.36.16l-.39.24-.08-.6a3.23,3.23,0,0,1,.68-.32,2.47,2.47,0,0,1,.43-.1,2.74,2.74,0,0,1,1.36.11,1.29,1.29,0,0,1,.6.43,1.13,1.13,0,0,1,.21.69,1.15,1.15,0,0,1-.26.78,1.33,1.33,0,0,1-.64.42v.06a2.22,2.22,0,0,1,.49.18,1.15,1.15,0,0,1,.4.39,1.3,1.3,0,0,1,.15.67,1.43,1.43,0,0,1-.17.71,1.18,1.18,0,0,1-.55.53A2.22,2.22,0,0,1,496.79,176.46Z" fill="#6b6b6c"/>
        <path d="M501.15,176.38h-1.64v-5h3.2v.57h-2.94l.37-.48v4.43h.9a2.45,2.45,0,0,0,.71-.09.84.84,0,0,0,.44-.31,1,1,0,0,0,.16-.62,1,1,0,0,0-.11-.5.75.75,0,0,0-.29-.27,1.14,1.14,0,0,0-.36-.1l-.33,0h-1.2v-.52h1.24a2.59,2.59,0,0,1,.95.15,1.16,1.16,0,0,1,.57.47,1.87,1.87,0,0,1,0,1.62,1.16,1.16,0,0,1-.57.54A2.61,2.61,0,0,1,501.15,176.38Z" fill="#6b6b6c"/>
        <path d="M504,176.38v-5h3.14v.55h-2.86l.35-.46v4.87l-.32-.46h2.84v.55Zm.49-2.29v-.54H507v.54Z" fill="#6b6b6c"/>
        <path d="M508.16,176.38v-5h3.08v.57h-2.71l.27-.48v5Z" fill="#6b6b6c"/>
        <path d="M511.72,176.38l1.83-5h.84c.1.26,1.71,4.78,1.81,5h-.67L514,171.91h-.06s-1.46,4.18-1.57,4.47Zm.94-1.27.05-.5h2.56l.05.5Z" fill="#6b6b6c"/>
        <path d="M517.06,176.38v-5h.64v5Zm.42-2.28v-.55h1.6v.55Zm3.75,2.36a2.76,2.76,0,0,1-1.12-.21,2.2,2.2,0,0,1-.79-.57,2.52,2.52,0,0,1-.47-.83,3.32,3.32,0,0,1-.15-1,3.13,3.13,0,0,1,.16-1,2.4,2.4,0,0,1,.49-.83,2.09,2.09,0,0,1,.78-.55,3,3,0,0,1,2.15,0,2.07,2.07,0,0,1,.79.56,2.31,2.31,0,0,1,.49.83,3.12,3.12,0,0,1,.17,1,2.86,2.86,0,0,1-.3,1.33,2.37,2.37,0,0,1-.86.94A2.61,2.61,0,0,1,521.23,176.46Zm0-.55a1.87,1.87,0,0,0,.82-.17,1.56,1.56,0,0,0,.58-.46,2.17,2.17,0,0,0,.34-.66,2.87,2.87,0,0,0,.11-.77,2.64,2.64,0,0,0-.12-.81,1.93,1.93,0,0,0-.35-.65A1.57,1.57,0,0,0,522,172a1.84,1.84,0,0,0-.8-.16,1.74,1.74,0,0,0-.82.17,1.54,1.54,0,0,0-.58.45,1.88,1.88,0,0,0-.34.66,2.54,2.54,0,0,0-.12.78,2.88,2.88,0,0,0,.11.78,2.12,2.12,0,0,0,.34.65,1.47,1.47,0,0,0,.58.46A1.92,1.92,0,0,0,521.21,175.91Z" fill="#6b6b6c"/>
        <path d="M530.93,177.47l0-1.19.16.1h-6.31v-5h.64v4.95l-.32-.45h6.42v1.64Zm-3.46-1.19v-4.95h.63v4.95Zm2.72,0v-4.95h.64v4.95Z" fill="#6b6b6c"/>
        <path d="M532.33,176.38v-5H533v3.95H533l2.8-3.95h.55v5h-.63v-4h-.05l-2.81,4Z" fill="#6b6b6c"/>
        <path d="M537.67,176.38v-5h.63v3.95h.05l2.8-3.95h.55v5h-.63v-4H541l-2.8,4Zm2-5.59a1.58,1.58,0,0,1-.73-.15,1,1,0,0,1-.43-.41,1.15,1.15,0,0,1-.15-.59l.49,0a.77.77,0,0,0,.21.57,1,1,0,0,0,1.22,0,.76.76,0,0,0,.2-.55H541a1.15,1.15,0,0,1-.14.59,1,1,0,0,1-.43.41A1.55,1.55,0,0,1,539.67,170.79Z" fill="#6b6b6c"/>
      </g>
    </g>
    <g>
      <g>
        <path d="M75.2,22l3.11-3.91.26.44a3.74,3.74,0,0,1-1.29-.19,2.16,2.16,0,0,1-.85-.52,2.08,2.08,0,0,1-.46-.77,3.12,3.12,0,0,1-.14-.93,2.31,2.31,0,0,1,.31-1.28,1.7,1.7,0,0,1,.92-.7,4.56,4.56,0,0,1,1.54-.22h2.79V22h-1V14.09l.56.7h-2.3a4.22,4.22,0,0,0-.6,0,1.9,1.9,0,0,0-.57.18,1.06,1.06,0,0,0-.42.42,1.65,1.65,0,0,0-.16.8,1.52,1.52,0,0,0,.51,1.29A2.7,2.7,0,0,0,79,17.9h1.58v.85h-1.9l.67-.51-3,3.78Z" fill="#231f20"/>
        <path d="M85.66,22V13.94h1v6.33h.09l4.48-6.33h.88V22h-1V15.69H91L86.53,22Z" fill="#231f20"/>
        <path d="M96.09,22c0-.43,1-7.61,1-8.08h1c.24.57,2.62,6.4,2.62,6.4h.08l2.58-6.4h1c.06.46.94,7.64,1,8.08h-1c-.08-.71-.76-6.27-.76-6.27h-.07s-2.26,5.73-2.48,6.27h-.69l-2.54-6.27h-.08s-.67,5.56-.76,6.27Z" fill="#231f20"/>
        <path d="M107.24,22V13.94h1v6.33h.09s4-5.65,4.48-6.33h.88V22h-1V15.69h-.09L108.11,22Z" fill="#231f20"/>
        <path d="M115.79,22V13.94h2.85a4.16,4.16,0,0,1,1.53.24,1.86,1.86,0,0,1,.91.76,2.57,2.57,0,0,1,.3,1.31,3.05,3.05,0,0,1-.28,1.32,1.94,1.94,0,0,1-.92.91,4,4,0,0,1-1.75.32h-1.77V18h1.58a3.27,3.27,0,0,0,1.18-.17,1.26,1.26,0,0,0,.69-.54,2,2,0,0,0,.22-1,1.8,1.8,0,0,0-.16-.8,1,1,0,0,0-.43-.43,1.6,1.6,0,0,0-.57-.19,4,4,0,0,0-.59-.05H116.3l.5-.7V22Z" fill="#231f20"/>
      </g>
      <g>
        <path d="M256.69,22c.05-.43.95-7.61,1-8.08h1l2.61,6.4h.08s2.36-5.82,2.59-6.4h1c.06.46.94,7.64,1,8.08h-1c-.09-.71-.76-6.27-.76-6.27h-.08L261.74,22H261c-.13-.34-2.54-6.27-2.54-6.27h-.07s-.67,5.56-.76,6.27Z" fill="#231f20"/>
        <path d="M270.45,22h-2.62V13.94h1v7.23h1.44a3.33,3.33,0,0,0,1.19-.17,1.22,1.22,0,0,0,.68-.55,1.87,1.87,0,0,0,.22-1,1.69,1.69,0,0,0-.16-.81,1.08,1.08,0,0,0-.42-.45,1.74,1.74,0,0,0-.57-.19,4,4,0,0,0-.59-.05h-1.92v-.85h2a4.16,4.16,0,0,1,1.53.24,1.8,1.8,0,0,1,.9.77,2.63,2.63,0,0,1,.3,1.34,3.11,3.11,0,0,1-.27,1.32,2,2,0,0,1-.93.91A3.94,3.94,0,0,1,270.45,22Zm4.36,0V13.94h1V22Z" fill="#231f20"/>
        <path d="M280.12,22V13.94h1v6.33h.09l4.48-6.33h.88V22h-1V15.69h-.09L281,22Z" fill="#231f20"/>
        <path d="M294.46,22.15a4.59,4.59,0,0,1-1.8-.33,3.53,3.53,0,0,1-1.28-.92,3.84,3.84,0,0,1-.77-1.33,4.9,4.9,0,0,1-.25-1.59,4.64,4.64,0,0,1,.48-2.13,3.7,3.7,0,0,1,1.38-1.5,4.17,4.17,0,0,1,2.21-.56,4.29,4.29,0,0,1,1.74.33,3.43,3.43,0,0,1,1.27.89,3.71,3.71,0,0,1,.78,1.33,4.84,4.84,0,0,1,.26,1.63,4.78,4.78,0,0,1-.47,2.14,3.61,3.61,0,0,1-1.38,1.49A4,4,0,0,1,294.46,22.15Zm0-.89a3.2,3.2,0,0,0,1.34-.26,2.61,2.61,0,0,0,.93-.74,3.22,3.22,0,0,0,.54-1.06,4.16,4.16,0,0,0,.18-1.23,4.47,4.47,0,0,0-.19-1.29,3.13,3.13,0,0,0-.57-1,2.6,2.6,0,0,0-.93-.7,3.08,3.08,0,0,0-1.3-.25,3.2,3.2,0,0,0-1.32.26,2.62,2.62,0,0,0-.94.73,3.26,3.26,0,0,0-.56,1.06,4.23,4.23,0,0,0-.19,1.24,3.94,3.94,0,0,0,.19,1.25,3.1,3.1,0,0,0,.55,1.05,2.62,2.62,0,0,0,.94.73A3,3,0,0,0,294.43,21.26Z" fill="#231f20"/>
        <path d="M300.1,22V13.94h1V22Zm.67-3.65v-.88h5.1v.88ZM305.48,22V13.94h1V22Z" fill="#231f20"/>
        <path d="M308.6,22V13.94h1v6.33h.08l4.48-6.33h.88V22h-1V15.69H314L309.47,22Z" fill="#231f20"/>
      </g>
      <g>
        <path d="M455.09,22l3.11-3.91.26.44a3.74,3.74,0,0,1-1.29-.19,2.16,2.16,0,0,1-.85-.52,2.08,2.08,0,0,1-.46-.77,3.12,3.12,0,0,1-.14-.93,2.31,2.31,0,0,1,.31-1.28,1.7,1.7,0,0,1,.92-.7,4.56,4.56,0,0,1,1.54-.22h2.79V22h-1V14.09l.56.7h-2.3a4.22,4.22,0,0,0-.6,0,1.9,1.9,0,0,0-.57.18,1.06,1.06,0,0,0-.42.42,1.65,1.65,0,0,0-.16.8,1.52,1.52,0,0,0,.51,1.29,2.7,2.7,0,0,0,1.58.38h1.58v.85h-1.9l.67-.51-3,3.78Z" fill="#231f20"/>
        <path d="M465.55,22V13.94h1v6.33h.09l4.48-6.33H472V22h-1V15.69h-.09L466.42,22Z" fill="#231f20"/>
        <path d="M478.35,22V14.09l.4.76h-3.18v-.91h6.57v.91H479l.41-.76V22Z" fill="#231f20"/>
        <path d="M486.15,22h-2.61V13.94h1v7.23H486a3.37,3.37,0,0,0,1.19-.17,1.29,1.29,0,0,0,.68-.55,1.87,1.87,0,0,0,.22-1,1.69,1.69,0,0,0-.16-.81,1.15,1.15,0,0,0-.42-.45,1.91,1.91,0,0,0-.57-.19,4.28,4.28,0,0,0-.6-.05h-1.91v-.85h2a4.14,4.14,0,0,1,1.52.24,1.78,1.78,0,0,1,.91.77,2.63,2.63,0,0,1,.3,1.34,3,3,0,0,1-.28,1.32,2,2,0,0,1-.92.91A4,4,0,0,1,486.15,22Zm4.36,0V13.94h1.05V22Z" fill="#231f20"/>
      </g>
    </g>
  </g>
</svg>
