<svg id="Layer_1" data-name="Layer 1" xmlns="http://www.w3.org/2000/svg" viewBox="0 0 293.82 298.83">
  <g>
    <g>
      <rect x="10.23" y="12.74" width="91.12" height="91.12" fill="#b5ce9c"/>
      <path d="M101.85,104.35H9.73V12.24h92.12Zm-91.12-1h90.12V13.24H10.73Z" fill="#fff"/>
    </g>
    <g>
      <rect x="101.35" y="12.74" width="91.12" height="91.12" fill="#c6e1aa"/>
      <path d="M193,104.35H100.85V12.24H193Zm-91.12-1H192V13.24H101.85Z" fill="#fff"/>
    </g>
    <g>
      <rect x="192.47" y="12.74" width="91.12" height="91.12" fill="#cee0bb"/>
      <path d="M284.09,104.35H192V12.24h92.12Zm-91.12-1h90.12V13.24H193Z" fill="#fff"/>
    </g>
    <g>
      <rect x="192.47" y="103.85" width="91.12" height="91.12" fill="#f5d0df"/>
      <path d="M284.09,195.47H192V103.35h92.12Zm-91.12-1h90.12V104.35H193Z" fill="#fff"/>
    </g>
    <g>
      <rect x="101.35" y="103.85" width="91.12" height="91.12" fill="#f5bbd4"/>
      <path d="M193,195.47H100.85V103.35H193Zm-91.12-1H192V104.35H101.85Z" fill="#fff"/>
    </g>
    <g>
      <rect x="10.23" y="103.85" width="91.12" height="91.12" fill="#dda9c0"/>
      <path d="M101.85,195.47H9.73V103.35h92.12Zm-91.12-1h90.12V104.35H10.73Z" fill="#fff"/>
    </g>
    <g>
      <rect x="10.23" y="194.97" width="91.12" height="91.12" fill="#ebbf82"/>
      <path d="M101.85,286.59H9.73V194.47h92.12Zm-91.12-1h90.12V195.47H10.73Z" fill="#fff"/>
    </g>
    <g>
      <rect x="101.35" y="194.97" width="91.12" height="91.12" fill="#f6c98a"/>
      <path d="M193,286.59H100.85V194.47H193Zm-91.12-1H192V195.47H101.85Z" fill="#fff"/>
    </g>
    <g>
      <rect x="192.47" y="194.97" width="91.12" height="91.12" fill="#f6dcb8"/>
      <path d="M284.09,286.59H192V194.47h92.12Zm-91.12-1h90.12V195.47H193Z" fill="#fff"/>
    </g>
  </g>
  <g>
    <path d="M139.33,148.47c.37-.42.78-.89,1.23-1.42s.92-1.06,1.4-1.61.93-1.07,1.34-1.56l2.76-3.18.09.56a8,8,0,0,1-2.63-.38,4.4,4.4,0,0,1-1.69-1,3.83,3.83,0,0,1-.9-1.51,6,6,0,0,1-.27-1.81,4.59,4.59,0,0,1,.57-2.42,3.31,3.31,0,0,1,1.72-1.37,8.43,8.43,0,0,1,2.94-.44h5.18v16.17H150v-16l.72.87h-4.73c-.43,0-.89,0-1.37.07a4.37,4.37,0,0,0-1.34.37,2.35,2.35,0,0,0-1,1,3.72,3.72,0,0,0-.39,1.87,3.43,3.43,0,0,0,1.19,2.93,6.26,6.26,0,0,0,3.74.9h3.38v1h-3.79l.85-.48-3,3.55-1.67,1.93-1.77,2.05Z"/>
    <g>
      <path d="M137.57,233.26a8.62,8.62,0,0,1-3.49-.66,6.74,6.74,0,0,1-2.52-1.81,7.74,7.74,0,0,1-1.53-2.66,9.67,9.67,0,0,1-.52-3.2,9.22,9.22,0,0,1,1-4.24,7.53,7.53,0,0,1,2.76-3,8.11,8.11,0,0,1,4.3-1.1,8.3,8.3,0,0,1,3.37.64,7.13,7.13,0,0,1,2.5,1.8,7.59,7.59,0,0,1,1.56,2.65,9.83,9.83,0,0,1,.53,3.24,9.3,9.3,0,0,1-1,4.28,7.33,7.33,0,0,1-2.74,3A8,8,0,0,1,137.57,233.26Zm0-1.07a7.36,7.36,0,0,0,3.06-.59,5.78,5.78,0,0,0,2.1-1.63,7.11,7.11,0,0,0,1.22-2.33,9.52,9.52,0,0,0,0-5.56,6.66,6.66,0,0,0-1.27-2.31,5.92,5.92,0,0,0-2.12-1.55,7.2,7.2,0,0,0-3-.57,7.29,7.29,0,0,0-3,.59,6,6,0,0,0-2.13,1.62,7,7,0,0,0-1.26,2.33,9.47,9.47,0,0,0,0,5.48,6.7,6.7,0,0,0,1.24,2.33,5.72,5.72,0,0,0,2.12,1.61A7.43,7.43,0,0,0,137.53,232.19Z"/>
      <path d="M149.15,233V216.87h1.13V233Zm.59-7.7v-1h11.14v1Zm10.52,7.7V216.87h1.13V233Z"/>
    </g>
    <g>
      <path d="M135.67,53.82v-16l.49.91h-6.41v-1H142.7v1h-6.4l.51-.91v16Z"/>
      <path d="M150.37,53.82h-4.54V37.65H147V52.81h3.29a8.46,8.46,0,0,0,2.8-.39,3.05,3.05,0,0,0,1.61-1.27,4.43,4.43,0,0,0,.52-2.3,3.86,3.86,0,0,0-.39-1.89,2.46,2.46,0,0,0-1-1,3.77,3.77,0,0,0-1.33-.42,10.86,10.86,0,0,0-1.37-.09h-4.28v-1h4.35a7.5,7.5,0,0,1,2.93.49,3.36,3.36,0,0,1,1.71,1.47,5,5,0,0,1,.56,2.46,6,6,0,0,1-.53,2.55A3.82,3.82,0,0,1,154,53.17,8.24,8.24,0,0,1,150.37,53.82Zm9.09,0V37.65h1.14V53.82Z"/>
    </g>
    <g>
      <path d="M32.9,176.08V170h4.57v6.07h-.42v-6l.2.33H33.11l.21-.33v6Z"/>
      <path d="M39.25,176.08V170h2a2.9,2.9,0,0,1,1.1.19,1.24,1.24,0,0,1,.64.55,1.78,1.78,0,0,1,.21.91,2.16,2.16,0,0,1-.2.94,1.39,1.39,0,0,1-.69.66,3.06,3.06,0,0,1-1.35.25H39.61v-.38H40.9A3.07,3.07,0,0,0,42,173a1.09,1.09,0,0,0,.61-.47,1.62,1.62,0,0,0,.19-.85,1.5,1.5,0,0,0-.14-.7,1,1,0,0,0-.38-.38,1.45,1.45,0,0,0-.5-.15,3.12,3.12,0,0,0-.52,0H39.46l.21-.32v6Z"/>
      <path d="M47.1,176.16a3.19,3.19,0,0,1-1.31-.25,2.59,2.59,0,0,1-.94-.68,2.9,2.9,0,0,1-.58-1,3.68,3.68,0,0,1-.19-1.2,3.45,3.45,0,0,1,.36-1.59,2.77,2.77,0,0,1,1-1.13,3.06,3.06,0,0,1,1.61-.41,3.15,3.15,0,0,1,1.26.24,2.78,2.78,0,0,1,.94.67,2.86,2.86,0,0,1,.58,1,3.66,3.66,0,0,1,.2,1.21,3.5,3.5,0,0,1-.36,1.61,2.73,2.73,0,0,1-1,1.11A3,3,0,0,1,47.1,176.16Zm0-.4a2.83,2.83,0,0,0,1.14-.22,2.2,2.2,0,0,0,.79-.61,2.55,2.55,0,0,0,.46-.88,3.4,3.4,0,0,0,.15-1,3.32,3.32,0,0,0-.16-1.06,2.63,2.63,0,0,0-.48-.87,2.19,2.19,0,0,0-.79-.58,2.75,2.75,0,0,0-1.11-.21,2.67,2.67,0,0,0-1.14.22,2.22,2.22,0,0,0-.8.61,2.44,2.44,0,0,0-.47.87,3.2,3.2,0,0,0-.16,1,3.47,3.47,0,0,0,.15,1,2.58,2.58,0,0,0,.47.88,2.18,2.18,0,0,0,.79.6A2.76,2.76,0,0,0,47.09,175.76Z"/>
      <path d="M51.44,176.08V170h.43v6l-.24-.33h6.68l-.25.33v-6h.43v6.07Zm3.32-.06v-6h.42v6Z"/>
      <path d="M59.92,176.14h-.15l-.15,0-.12,0,0-.4.18,0h.15a.7.7,0,0,0,.62-.32,2.58,2.58,0,0,0,.3-1c.07-.46.12-1,.16-1.76,0-.44.06-.88.08-1.31s0-.87.08-1.32h3.74v6.07h-.43v-6l.27.33H61.25l.26-.3c0,.44,0,.88-.08,1.32s0,.89-.09,1.36-.08,1.07-.12,1.5a5.41,5.41,0,0,1-.21,1,1.31,1.31,0,0,1-.4.62A1.13,1.13,0,0,1,59.92,176.14Z"/>
      <path d="M69.25,176.16a3.13,3.13,0,0,1-1.31-.25,2.62,2.62,0,0,1-1-.68,3,3,0,0,1-.57-1,3.68,3.68,0,0,1-.2-1.2,3.33,3.33,0,0,1,.37-1.59,2.74,2.74,0,0,1,1-1.13,3.08,3.08,0,0,1,1.61-.41,3.16,3.16,0,0,1,1.27.24,2.74,2.74,0,0,1,.93.67,2.88,2.88,0,0,1,.59,1,3.65,3.65,0,0,1,.19,1.21,3.5,3.5,0,0,1-.36,1.61,2.67,2.67,0,0,1-1,1.11A3,3,0,0,1,69.25,176.16Zm0-.4a2.88,2.88,0,0,0,1.15-.22,2.3,2.3,0,0,0,.79-.61,2.72,2.72,0,0,0,.45-.88,3.4,3.4,0,0,0,.15-1,3.32,3.32,0,0,0-.16-1.06,2.32,2.32,0,0,0-.48-.87,2.11,2.11,0,0,0-.79-.58,2.75,2.75,0,0,0-1.11-.21,2.67,2.67,0,0,0-1.14.22,2.31,2.31,0,0,0-.8.61,2.44,2.44,0,0,0-.47.87,3.58,3.58,0,0,0,0,2.05,2.55,2.55,0,0,0,.46.88,2.31,2.31,0,0,0,.8.6A2.68,2.68,0,0,0,69.23,175.76Z"/>
      <path d="M73.59,176.08V170h3.63v.39H73.78l.23-.33v6l-.21-.33h3.41v.39Zm.33-2.89v-.38H77v.38H73.92Z"/>
    </g>
    <g>
      <path d="M219.26,176.08h-1.7V170h3.6v.4h-3.41l.23-.34v5.63h1.23a3.21,3.21,0,0,0,1-.13,1.18,1.18,0,0,0,.64-.43,1.52,1.52,0,0,0,.22-.89,1.41,1.41,0,0,0-.16-.71,1,1,0,0,0-.42-.37A1.49,1.49,0,0,0,220,173l-.45,0h-1.6v-.38h1.63a2.82,2.82,0,0,1,1.09.18,1.3,1.3,0,0,1,.65.54,1.84,1.84,0,0,1,.21.92,2.12,2.12,0,0,1-.2.93,1.44,1.44,0,0,1-.69.64A3.14,3.14,0,0,1,219.26,176.08Z"/>
      <path d="M223.53,176.08l.39-.78c.14-.26.28-.54.43-.83l-1.45-2.7c-.15-.3-.3-.57-.45-.84s-.31-.57-.49-.92h.49l.4.76.32.62.31.57.32.62.75,1.42h.06l.71-1.39c.12-.23.23-.44.32-.64l.3-.59.31-.62.38-.75h.47l-.59,1.15c-.2.4-.39.76-.55,1.09l-1,1.92q-.21.44-.48.93l-.5,1Z"/>
      <path d="M226.7,177.39v-1.7h6.18v1.7h-.39l0-1.38.14.07H227l.15-.07,0,1.38Zm5-1.37v-6l.23.33h-3.34l.23-.29c0,.4,0,.81-.08,1.21s-.05.81-.08,1.22a11.86,11.86,0,0,1-.17,1.41,5.71,5.71,0,0,1-.32,1,3.54,3.54,0,0,1-.48.8l-.42-.06a3.4,3.4,0,0,0,.48-.78,5.32,5.32,0,0,0,.33-1,11.79,11.79,0,0,0,.18-1.47c0-.43.06-.84.09-1.25s.05-.79.08-1.17h3.69v6Z"/>
      <path d="M234.68,176.08l.4-.78.42-.83-1.44-2.7-.45-.84-.5-.92h.49l.4.76.33.62.3.57.32.62.76,1.42h.06l.7-1.39.33-.64.29-.59c.1-.19.2-.4.32-.62s.23-.47.38-.75h.46c-.18.37-.38.75-.58,1.15l-.56,1.09-1,1.92c-.14.29-.3.6-.47.93s-.35.67-.5,1Z"/>
      <path d="M246.84,177.39l0-1.38.15.07h-7.57V170h.43v6l-.24-.33h7.64v1.7ZM242.71,176v-6h.42v6Zm3.3,0v-6h.43v6Z"/>
      <path d="M248.37,176.08V170H252v.39h-3.43l.22-.33v6l-.21-.33H252v.39Zm.33-2.89v-.38h3.11v.38H248.7Z"/>
      <path d="M253.4,176.08V170H257v.39H253.6l.22-.33v6l-.21-.33H257v.39Zm.34-2.89v-.38h3.1v.38h-3.1Z"/>
    </g>
    <g>
      <path d="M119.75,176.25v-6.07h.42v6.07Zm.22-2.89V173h4.18v.38Zm3.94,2.89v-6.07h.43v6.07Z"/>
      <path d="M125.52,176.25c.12-.33.25-.68.39-1s.26-.7.39-1l.79-2.08c.14-.37.27-.71.39-1s.23-.61.34-.92h.58c.12.31.24.62.35.92l.38,1,.78,2.09.39,1c.13.36.26.69.38,1h-.45c-.13-.37-.27-.76-.42-1.15s-.29-.77-.41-1.12l-1.26-3.37h-.06L126.82,174l-.43,1.14c-.14.4-.29.78-.43,1.16Zm.94-1.66,0-.37h3.27v.37Z"/>
      <path d="M134.26,176.33a3.25,3.25,0,0,1-1.28-.24,2.88,2.88,0,0,1-1-.66,3.07,3.07,0,0,1-.6-1,3.53,3.53,0,0,1-.21-1.23,3.3,3.3,0,0,1,.38-1.63,2.82,2.82,0,0,1,1-1.1,2.94,2.94,0,0,1,1.52-.39,3.81,3.81,0,0,1,.59,0c.19,0,.37.08.53.13a4.09,4.09,0,0,1,.46.16l.36.17L136,171a4.24,4.24,0,0,0-.65-.31,2.87,2.87,0,0,0-.62-.17,3.23,3.23,0,0,0-.61-.06,2.45,2.45,0,0,0-1.3.34,2.27,2.27,0,0,0-.89,1,3.06,3.06,0,0,0-.32,1.44,3.36,3.36,0,0,0,.17,1.06,2.44,2.44,0,0,0,.49.86,2.41,2.41,0,0,0,.83.59,2.9,2.9,0,0,0,1.14.21l.45,0,.44-.08a2.5,2.5,0,0,0,.43-.16,2.73,2.73,0,0,0,.4-.23l0,.43a2.42,2.42,0,0,1-.39.21,3.26,3.26,0,0,1-.44.15l-.47.08Z"/>
      <path d="M139.05,176.25v-6l.18.34h-2.4v-.4h4.85v.4h-2.4l.19-.34v6Z"/>
      <path d="M145.16,176.33a3.13,3.13,0,0,1-1.31-.25,2.54,2.54,0,0,1-.95-.68,3,3,0,0,1-.57-1,3.58,3.58,0,0,1-.2-1.19,3.33,3.33,0,0,1,.37-1.59,2.74,2.74,0,0,1,1-1.13,3.08,3.08,0,0,1,1.61-.41,3.16,3.16,0,0,1,1.27.24,2.64,2.64,0,0,1,.93.67,2.88,2.88,0,0,1,.59,1,3.65,3.65,0,0,1,.19,1.21,3.5,3.5,0,0,1-.35,1.61,2.76,2.76,0,0,1-1,1.11A3,3,0,0,1,145.16,176.33Zm0-.4a2.84,2.84,0,0,0,1.15-.22,2.3,2.3,0,0,0,.79-.61,2.72,2.72,0,0,0,.45-.88,3.4,3.4,0,0,0,.15-1,3.32,3.32,0,0,0-.16-1.06,2.32,2.32,0,0,0-.48-.87,2.11,2.11,0,0,0-.79-.58,2.75,2.75,0,0,0-1.11-.21,2.67,2.67,0,0,0-1.14.22,2.31,2.31,0,0,0-.8.6,2.58,2.58,0,0,0-.47.88,3.58,3.58,0,0,0,0,2,2.55,2.55,0,0,0,.46.88,2.22,2.22,0,0,0,.8.6A2.68,2.68,0,0,0,145.14,175.93Z"/>
      <path d="M148.78,176.25l.46-.53.53-.61.5-.58,1-1.2,0,.21a2.88,2.88,0,0,1-1-.14,1.54,1.54,0,0,1-.63-.39,1.41,1.41,0,0,1-.34-.56,2.54,2.54,0,0,1-.1-.68,1.78,1.78,0,0,1,.21-.91,1.29,1.29,0,0,1,.65-.51,3.14,3.14,0,0,1,1.1-.17h1.94v6.07h-.42v-6l.28.32h-1.78l-.51,0a1.38,1.38,0,0,0-.5.14.78.78,0,0,0-.38.36,1.37,1.37,0,0,0-.15.7,1.28,1.28,0,0,0,.45,1.1,2.29,2.29,0,0,0,1.4.34h1.27v.37h-1.42l.31-.18-1.14,1.34-.62.72-.67.77Z"/>
      <path d="M162.41,177.56l0-1.38.14.07H155v-6.07h.42v6l-.24-.33h7.64v1.7Zm-4.13-1.37v-6h.42v6Zm3.31,0v-6H162v6Z"/>
      <path d="M163.94,176.25v-6.07h3.63v.39h-3.43l.22-.33v5.95l-.21-.33h3.42v.39Zm.34-2.89V173h3.1v.38h-3.1Z"/>
      <path d="M169,176.25v-6.07h3.62v.39h-3.43l.23-.33v5.95l-.22-.33h3.42v.39Zm.33-2.89V173h3.11v.38h-3.11Z"/>
    </g>
    <g>
      <path d="M123.18,75.92a3.6,3.6,0,0,1-.58,0,4.28,4.28,0,0,1-.54-.12,3,3,0,0,1-.45-.15,3.84,3.84,0,0,1-.35-.17l.06-.41.43.21a3.26,3.26,0,0,0,.44.15,3.41,3.41,0,0,0,.46.1,3.75,3.75,0,0,0,.48,0,2.19,2.19,0,0,0,1-.17,1.07,1.07,0,0,0,.51-.47,1.4,1.4,0,0,0,.15-.66,1,1,0,0,0-.48-1A2.86,2.86,0,0,0,122.9,73h-.67v-.38h.62a2.24,2.24,0,0,0,1-.19,1.16,1.16,0,0,0,.55-.49,1.33,1.33,0,0,0,.16-.65,1.05,1.05,0,0,0-.21-.69,1.31,1.31,0,0,0-.57-.37,2.6,2.6,0,0,0-.74-.11,3,3,0,0,0-.42,0,2.17,2.17,0,0,0-.42.11,2.09,2.09,0,0,0-.44.19,5,5,0,0,0-.47.29l-.06-.43.34-.21a2.43,2.43,0,0,1,.43-.19,2.63,2.63,0,0,1,.5-.14,3.33,3.33,0,0,1,.56,0,2.64,2.64,0,0,1,1,.18,1.58,1.58,0,0,1,.69.52,1.27,1.27,0,0,1,.26.83,1.4,1.4,0,0,1-.31.94,1.55,1.55,0,0,1-.76.53v.06a2.05,2.05,0,0,1,.57.2,1.35,1.35,0,0,1,.48.47,1.51,1.51,0,0,1,.2.82,1.85,1.85,0,0,1-.2.83,1.47,1.47,0,0,1-.63.63A2.54,2.54,0,0,1,123.18,75.92Z"/>
      <path d="M126.48,75.84V69.78h.43v6.06ZM126.7,73v-.38h4.18V73Zm4,2.89V69.78h.42v6.06Z"/>
      <path d="M132.25,75.84c.13-.33.26-.67.39-1s.27-.7.39-1l.79-2.08c.15-.37.27-.71.39-1l.34-.91h.59l.34.91.38,1,.79,2.08c.12.34.25.68.38,1s.26.69.38,1H137l-.43-1.15c-.15-.39-.28-.77-.41-1.12l-1.26-3.37h-.06l-1.25,3.34c-.14.37-.29.75-.43,1.14s-.3.78-.44,1.16Zm.94-1.66,0-.37h3.27l0,.37Z"/>
      <path d="M141.57,75.84V73.19l-.43.18a2.86,2.86,0,0,1-.58.16,4.07,4.07,0,0,1-.73.06,3,3,0,0,1-1.14-.2,1.43,1.43,0,0,1-.71-.59,1.92,1.92,0,0,1-.24-1v-2h.43v2a1.57,1.57,0,0,0,.18.79,1.07,1.07,0,0,0,.56.48,2.67,2.67,0,0,0,1,.16,3.37,3.37,0,0,0,.66-.06,2.34,2.34,0,0,0,.55-.15,4.15,4.15,0,0,0,.47-.2v-3H142v6.06Z"/>
      <path d="M143.77,75.84V69.78h.42v5.29h.05l1.5-2.09,1.12-1.56L148,69.78h.38v6.06H148v-5.3h0l-1.5,2.08-1.24,1.73-1.07,1.49Z"/>
      <path d="M150,75.84c0-.34.08-.66.13-1s.08-.67.12-1l.25-2c0-.37.09-.72.13-1s.08-.65.13-1h.42c.2.47.4.93.58,1.38s.37.9.55,1.34l1.1,2.63h0l1.09-2.63c.18-.45.36-.89.55-1.34s.37-.91.57-1.38h.43c0,.34.09.68.13,1s.07.67.12,1l.24,2c.05.37.09.71.13,1s.07.65.11,1h-.4q-.12-.9-.21-1.71c-.07-.54-.13-1-.19-1.51l-.24-2h0l-.9,2.18c-.22.52-.43,1-.65,1.58l-.62,1.48h-.3l-.39-.94-.44-1.06-.43-1-.91-2.19h0l-.24,2c-.06.46-.12,1-.19,1.51s-.13,1.11-.21,1.71Z"/>
      <path d="M160,75.84h-1.7V69.78h.42v5.68H160a3.07,3.07,0,0,0,1.05-.15,1.06,1.06,0,0,0,.6-.47,1.59,1.59,0,0,0,.2-.86,1.41,1.41,0,0,0-.15-.71.91.91,0,0,0-.37-.38,1.46,1.46,0,0,0-.5-.16l-.52,0h-1.6v-.38h1.63a2.91,2.91,0,0,1,1.1.18,1.29,1.29,0,0,1,.64.55,1.88,1.88,0,0,1,.21.93,2.24,2.24,0,0,1-.2,1,1.45,1.45,0,0,1-.69.67A3.11,3.11,0,0,1,160,75.84Zm3.41,0V69.78h.43v6.06Z"/>
      <path d="M165.64,75.84V69.78h.42v5.29h0L167.61,73l1.12-1.56c.38-.54.78-1.08,1.18-1.64h.38v6.06h-.42v-5.3h0l-1.5,2.08-1.24,1.73L166,75.84ZM168,69a1.67,1.67,0,0,1-.81-.18,1.15,1.15,0,0,1-.48-.47,1.27,1.27,0,0,1-.16-.64h.37a.94.94,0,0,0,.27.72,1.18,1.18,0,0,0,.81.26,1.14,1.14,0,0,0,.81-.26.91.91,0,0,0,.27-.71h.36a1.37,1.37,0,0,1-.15.64,1.07,1.07,0,0,1-.47.47A1.69,1.69,0,0,1,168,69Z"/>
      <path d="M128.54,87.36v-1.7h6.17v1.7h-.38l0-1.38.15.06H128.8l.14-.06,0,1.38Zm5-1.38V80l.23.34H130.4l.23-.29c0,.4-.06.8-.08,1.21l-.09,1.21a9.72,9.72,0,0,1-.17,1.41,4.92,4.92,0,0,1-.32,1,3.84,3.84,0,0,1-.47.79l-.43,0a4.46,4.46,0,0,0,.49-.78,4.92,4.92,0,0,0,.32-1,10.36,10.36,0,0,0,.19-1.48c0-.42.06-.84.08-1.24s.06-.8.08-1.17h3.7v6Z"/>
      <path d="M135.86,86V80h2a2.91,2.91,0,0,1,1.1.18,1.39,1.39,0,0,1,.64.55,1.83,1.83,0,0,1,.21.91,2.21,2.21,0,0,1-.2.95,1.39,1.39,0,0,1-.69.66,3.11,3.11,0,0,1-1.35.24h-1.34V83.1h1.29a3.07,3.07,0,0,0,1.05-.15,1.18,1.18,0,0,0,.61-.47,1.66,1.66,0,0,0,.19-.86,1.52,1.52,0,0,0-.14-.7,1,1,0,0,0-.38-.37,1.82,1.82,0,0,0-.5-.16l-.52,0h-1.75l.21-.33v6Z"/>
      <path d="M141.92,86l.4-.77.42-.83-1.44-2.71-.46-.84c-.14-.26-.3-.57-.49-.91h.49l.4.76.33.62.3.57c.1.19.21.39.32.62L143,84H143l.7-1.4.33-.64c.09-.19.19-.39.29-.58l.31-.62c.12-.22.24-.47.38-.75h.47l-.58,1.14c-.21.4-.39.77-.56,1.09l-1,1.92c-.14.29-.3.6-.48.94s-.34.66-.5,1Z"/>
      <path d="M146.63,86V80h3.52v.39h-3.29l.2-.34v6Z"/>
      <path d="M153.69,86.13a3.29,3.29,0,0,1-1.31-.25,2.54,2.54,0,0,1-.95-.68,3,3,0,0,1-.57-1,3.6,3.6,0,0,1-.2-1.2,3.45,3.45,0,0,1,.36-1.59,2.8,2.8,0,0,1,1-1.12,3,3,0,0,1,1.61-.42,3.16,3.16,0,0,1,1.27.25,2.61,2.61,0,0,1,.93.67,3.1,3.1,0,0,1,.59,1,3.76,3.76,0,0,1,.19,1.22,3.58,3.58,0,0,1-.35,1.6,2.92,2.92,0,0,1-1,1.12A3,3,0,0,1,153.69,86.13Zm0-.41a2.71,2.71,0,0,0,1.15-.22,2.18,2.18,0,0,0,.79-.61,2.77,2.77,0,0,0,.45-.87,3.5,3.5,0,0,0,.15-1,3.38,3.38,0,0,0-.16-1.07,2.28,2.28,0,0,0-.48-.86,2.25,2.25,0,0,0-.79-.59,2.75,2.75,0,0,0-1.11-.21,2.66,2.66,0,0,0-1.14.23,2.09,2.09,0,0,0-.8.6,2.62,2.62,0,0,0-.47.87,3.4,3.4,0,0,0,0,2.06,2.42,2.42,0,0,0,.46.87,2.13,2.13,0,0,0,.8.61A2.85,2.85,0,0,0,153.67,85.72Z"/>
      <path d="M158,86V80h.42v5.29h0l1.5-2.08c.37-.51.75-1,1.13-1.57L162.3,80h.38V86h-.42v-5.3h0l-1.5,2.09-1.25,1.73L158.41,86Zm2.31-6.79a1.62,1.62,0,0,1-.81-.18,1.15,1.15,0,0,1-.48-.47,1.29,1.29,0,0,1-.16-.64l.36,0a.92.92,0,0,0,.28.73,1.16,1.16,0,0,0,.81.25,1.13,1.13,0,0,0,.8-.25.93.93,0,0,0,.27-.71h.37a1.29,1.29,0,0,1-.16.64,1.12,1.12,0,0,1-.47.47A1.62,1.62,0,0,1,160.34,79.25Z"/>
    </g>
    <g>
      <path d="M121.69,261.11a3.47,3.47,0,0,1-1.28-.24,2.64,2.64,0,0,1-1-.67,2.79,2.79,0,0,1-.61-1,3.61,3.61,0,0,1-.21-1.23,3.41,3.41,0,0,1,.38-1.63,2.78,2.78,0,0,1,1-1.1,2.91,2.91,0,0,1,1.51-.4,3.81,3.81,0,0,1,.59.05,4.28,4.28,0,0,1,.54.12l.46.17a3.08,3.08,0,0,1,.36.17l0,.43a4.61,4.61,0,0,0-.65-.3,3.73,3.73,0,0,0-.63-.18,4.16,4.16,0,0,0-.6-.05,2.58,2.58,0,0,0-1.31.33,2.4,2.4,0,0,0-.89,1,3.12,3.12,0,0,0-.32,1.44,3.32,3.32,0,0,0,.17,1.06,2.51,2.51,0,0,0,.5.87,2.22,2.22,0,0,0,.82.58,2.9,2.9,0,0,0,1.14.21,3.39,3.39,0,0,0,.45,0,3.38,3.38,0,0,0,.87-.24,2.3,2.3,0,0,0,.4-.23l0,.43a2.42,2.42,0,0,1-.39.21,2.25,2.25,0,0,1-.44.14,3.55,3.55,0,0,1-.47.09A3.87,3.87,0,0,1,121.69,261.11Z"/>
      <path d="M126.48,261v-6l.18.34h-2.4V255h4.86v.39h-2.41l.2-.34v6Z"/>
      <path d="M132.59,261.11a3.33,3.33,0,0,1-1.31-.25,2.5,2.5,0,0,1-.94-.68,2.86,2.86,0,0,1-.58-1,3.59,3.59,0,0,1-.19-1.2,3.45,3.45,0,0,1,.36-1.59,2.78,2.78,0,0,1,1-1.12,3,3,0,0,1,1.61-.42,3.16,3.16,0,0,1,1.27.25,2.65,2.65,0,0,1,.94.67,3,3,0,0,1,.58,1,3.76,3.76,0,0,1,.2,1.22,3.46,3.46,0,0,1-.36,1.6,2.78,2.78,0,0,1-1,1.12A3,3,0,0,1,132.59,261.11Zm0-.41a2.68,2.68,0,0,0,1.15-.22,2.18,2.18,0,0,0,.79-.61A2.6,2.6,0,0,0,135,259a3.5,3.5,0,0,0,.15-1,3.69,3.69,0,0,0-.16-1.07,2.58,2.58,0,0,0-.48-.86,2.29,2.29,0,0,0-.8-.59,2.68,2.68,0,0,0-1.11-.21,2.65,2.65,0,0,0-1.13.23,2,2,0,0,0-.8.6,2.65,2.65,0,0,0-.48.87,3.61,3.61,0,0,0,0,2.06,2.59,2.59,0,0,0,.46.87,2.22,2.22,0,0,0,.8.61A2.88,2.88,0,0,0,132.57,260.7Z"/>
      <path d="M136.93,261V255h2a2.87,2.87,0,0,1,1.1.18,1.34,1.34,0,0,1,.64.55,1.83,1.83,0,0,1,.21.91,2.07,2.07,0,0,1-.2.95,1.39,1.39,0,0,1-.69.66,3.06,3.06,0,0,1-1.34.24h-1.35v-.37h1.3a3.15,3.15,0,0,0,1-.15,1.15,1.15,0,0,0,.6-.47,1.66,1.66,0,0,0,.19-.86,1.41,1.41,0,0,0-.14-.7,1,1,0,0,0-.38-.37,1.63,1.63,0,0,0-.5-.16l-.51,0h-1.76l.21-.33v6Z"/>
      <path d="M144.78,261.11a3.36,3.36,0,0,1-1.31-.25,2.59,2.59,0,0,1-.94-.68,2.83,2.83,0,0,1-.57-1,3.6,3.6,0,0,1-.2-1.2,3.45,3.45,0,0,1,.36-1.59,2.8,2.8,0,0,1,1-1.12,3,3,0,0,1,1.61-.42,3.11,3.11,0,0,1,1.26.25,2.56,2.56,0,0,1,.94.67,2.81,2.81,0,0,1,.58,1,3.51,3.51,0,0,1,.2,1.22,3.46,3.46,0,0,1-.36,1.6,2.83,2.83,0,0,1-1,1.12A3,3,0,0,1,144.78,261.11Zm0-.41a2.74,2.74,0,0,0,1.15-.22,2.06,2.06,0,0,0,.78-.61,2.6,2.6,0,0,0,.46-.87,3.5,3.5,0,0,0,.15-1,3.38,3.38,0,0,0-.16-1.07,2.58,2.58,0,0,0-.48-.86,2.34,2.34,0,0,0-.79-.59,2.75,2.75,0,0,0-1.11-.21,2.66,2.66,0,0,0-1.14.23,2.09,2.09,0,0,0-.8.6,2.62,2.62,0,0,0-.47.87,3.5,3.5,0,0,0,0,2.06,2.61,2.61,0,0,0,.47.87,2.13,2.13,0,0,0,.8.61A2.85,2.85,0,0,0,144.77,260.7Z"/>
      <path d="M149.13,261V255h.42V261Zm.22-2.88v-.39h4.18v.39Zm3.94,2.88V255h.43V261Z"/>
      <path d="M155.5,261V255h.42V261Zm.22-2.88v-.39h4.18v.39Zm3.94,2.88V255h.43V261Z"/>
      <path d="M161.87,261V255h.42v5.29h0l1.5-2.08c.37-.51.74-1,1.13-1.57l1.17-1.64h.39V261h-.42v-5.3h0l-1.49,2.09-1.25,1.73L162.24,261Z"/>
      <path d="M168.29,261V255h.43v5.29h0l1.5-2.08,1.12-1.57c.39-.53.78-1.08,1.18-1.64H173V261h-.43v-5.3h0L171,257.81c-.46.63-.88,1.2-1.25,1.73L168.67,261Zm2.31-6.79a1.61,1.61,0,0,1-.8-.18,1.24,1.24,0,0,1-.49-.47,1.41,1.41,0,0,1-.16-.64l.37,0a.92.92,0,0,0,.28.73,1.42,1.42,0,0,0,1.61,0,.93.93,0,0,0,.27-.71H172a1.4,1.4,0,0,1-.15.64,1.18,1.18,0,0,1-.47.47A1.66,1.66,0,0,1,170.6,254.23Z"/>
      <path d="M113.76,271.23v-6.06h.42v6.06Zm.22-2.89V268h4.18v.38Zm3.94,2.89v-6.06h.43v6.06Z"/>
      <path d="M119.53,271.23c.12-.33.25-.67.39-1s.26-.7.39-1l.79-2.08.38-1c.12-.3.24-.61.35-.91h.58c.12.31.23.61.35.91l.38,1,.78,2.08c.13.34.26.68.39,1l.38,1h-.45c-.13-.37-.28-.75-.42-1.15L123.4,269l-1.25-3.37h-.06l-1.26,3.34-.43,1.14c-.14.4-.29.79-.43,1.16Zm.94-1.66,0-.37h3.27v.37Z"/>
      <path d="M127.57,271.23h-1.7v-6.06h3.6v.39h-3.41l.23-.34v5.63h1.23a3.53,3.53,0,0,0,1-.12,1.2,1.2,0,0,0,.64-.44,1.52,1.52,0,0,0,.22-.89,1.41,1.41,0,0,0-.16-.71,1,1,0,0,0-.42-.37,1.5,1.5,0,0,0-.5-.14l-.46,0h-1.6v-.38h1.63A2.82,2.82,0,0,1,129,268a1.27,1.27,0,0,1,.65.55,1.78,1.78,0,0,1,.21.91,2.12,2.12,0,0,1-.2.93,1.51,1.51,0,0,1-.69.65A3.31,3.31,0,0,1,127.57,271.23Z"/>
      <path d="M130.75,271.29h-.16l-.14,0-.12,0,0-.4.17,0h.15a.7.7,0,0,0,.62-.32,2.74,2.74,0,0,0,.31-1c.06-.46.11-1,.16-1.76,0-.44.05-.88.08-1.31s0-.87.08-1.31h3.73v6.06h-.42v-6l.27.33h-3.44l.26-.29c0,.43-.06.87-.08,1.31s-.06.89-.09,1.36-.08,1.07-.13,1.5a5.41,5.41,0,0,1-.21,1,1.24,1.24,0,0,1-.4.62A1,1,0,0,1,130.75,271.29Z"/>
      <path d="M137.45,271.23v-6.06h.43v6.06Zm.22-2.89V268h1.83v.38Zm4.58,3a3.28,3.28,0,0,1-1.3-.24,2.62,2.62,0,0,1-.94-.68,3.39,3.39,0,0,1-.56-1,4,4,0,0,1-.18-1.2,3.53,3.53,0,0,1,.2-1.23,2.88,2.88,0,0,1,.58-1,2.61,2.61,0,0,1,.93-.67,3.4,3.4,0,0,1,2.51,0,2.84,2.84,0,0,1,.93.67,3,3,0,0,1,.58,1,3.72,3.72,0,0,1,.2,1.22,3.49,3.49,0,0,1-.36,1.6,2.73,2.73,0,0,1-1,1.11A2.94,2.94,0,0,1,142.25,271.31Zm0-.4a2.65,2.65,0,0,0,1.13-.22,2.3,2.3,0,0,0,.79-.61,2.72,2.72,0,0,0,.45-.88,3.38,3.38,0,0,0,.15-1,3.69,3.69,0,0,0-.16-1.07,2.63,2.63,0,0,0-.48-.87,2.11,2.11,0,0,0-.79-.58,3,3,0,0,0-2.23,0,2.18,2.18,0,0,0-.79.61,2.59,2.59,0,0,0-.46.87,3.52,3.52,0,0,0-.15,1,3.57,3.57,0,0,0,.15,1,2.77,2.77,0,0,0,.45.87,2.16,2.16,0,0,0,.79.6A2.68,2.68,0,0,0,142.24,270.91Z"/>
      <path d="M145.65,272.54v-1.7h6.17v1.7h-.38l0-1.38.14.07h-5.65l.15-.07,0,1.38Zm5-1.37v-5.95l.23.33h-3.34l.23-.29c0,.4-.05.81-.08,1.21s-.06.81-.08,1.22a11.68,11.68,0,0,1-.18,1.41,4.84,4.84,0,0,1-.31,1,3.54,3.54,0,0,1-.48.8l-.42-.06a3.4,3.4,0,0,0,.48-.78,5.32,5.32,0,0,0,.33-1,11.79,11.79,0,0,0,.18-1.47c0-.43.06-.84.09-1.25s0-.79.08-1.16H151v6Z"/>
      <path d="M152.37,271.23c.13-.33.26-.67.39-1s.27-.7.39-1l.8-2.08.38-1c.11-.3.23-.61.35-.91h.58c.12.31.23.61.34.91s.24.64.39,1l.78,2.08c.12.34.25.68.39,1s.26.69.37,1h-.44l-.43-1.15c-.15-.39-.28-.77-.41-1.12L155,265.59h-.06l-1.26,3.34-.43,1.14c-.15.4-.29.79-.44,1.16Zm.94-1.66,0-.37h3.27l0,.37Z"/>
      <path d="M159.57,271.23v-6l.18.34h-2.4v-.39h4.86v.39H159.8l.2-.34v6Z"/>
      <path d="M163.38,271.23v-6.06H167v.38h-3.43l.22-.33v5.95l-.21-.33H167v.39Zm.34-2.89V268h3.1v.38h-3.1Z"/>
      <path d="M168.07,271.29h-.15l-.15,0-.12,0,0-.4.17,0H168a.69.69,0,0,0,.61-.32,2.56,2.56,0,0,0,.31-1c.06-.46.12-1,.16-1.76,0-.44.06-.88.08-1.31s0-.87.08-1.31H173v6.06h-.43v-6l.27.33H169.4l.26-.29c0,.43,0,.87-.08,1.31s-.06.89-.09,1.36-.08,1.07-.12,1.5a5.41,5.41,0,0,1-.21,1,1.31,1.31,0,0,1-.4.62A1.09,1.09,0,0,1,168.07,271.29Z"/>
      <path d="M176.48,271.23h-1.7v-6.06h.42v5.68h1.23a3.07,3.07,0,0,0,1-.15,1.06,1.06,0,0,0,.6-.47,1.68,1.68,0,0,0,.2-.86,1.41,1.41,0,0,0-.15-.71.93.93,0,0,0-.38-.38,1.4,1.4,0,0,0-.5-.16l-.51,0h-1.6v-.38h1.63a2.82,2.82,0,0,1,1.09.18,1.32,1.32,0,0,1,.65.55,1.88,1.88,0,0,1,.21.93,2.24,2.24,0,0,1-.2.95,1.55,1.55,0,0,1-.69.67A3.14,3.14,0,0,1,176.48,271.23Z"/>
    </g>
  </g>
</svg>
